<?xml version="1.0" encoding="UTF-8"?>
<svg version="1.1" xmlns="http://www.w3.org/2000/svg" width="500" height="500">
<path d="M0 0 C1.13308594 -0.02449219 2.26617187 -0.04898438 3.43359375 -0.07421875 C9.8608496 -0.0968234 13.90695455 -0.00906401 18.75 4.375 C19.35328125 4.85839844 19.9565625 5.34179688 20.578125 5.83984375 C22.12758529 7.86963673 22.28344649 9.40965425 22.5 11.9375 C22.57734375 12.72253906 22.6546875 13.50757813 22.734375 14.31640625 C22.75 16.375 22.75 16.375 21.75 18.375 C21.50212983 22.52003661 21.50212983 22.52003661 22.75 26.375 C23.13893819 31.04225826 23.20147837 33.45467871 21.125 37.6875 C17.7615235 41.4935392 14.99358664 43.19306225 9.82666016 43.61206055 C6.33800789 43.67028102 2.86331878 43.63619688 -0.625 43.5625 C-2.44451172 43.54219727 -2.44451172 43.54219727 -4.30078125 43.52148438 C-7.28431206 43.48624582 -10.26692458 43.43697525 -13.25 43.375 C-13.44206145 37.57292216 -13.62081576 31.77064709 -13.78710938 25.96777344 C-13.84560041 23.99272602 -13.90776216 22.01778382 -13.97363281 20.04296875 C-14.067545 17.20852819 -14.14835955 14.37397447 -14.2265625 11.5390625 C-14.25875885 10.65256012 -14.2909552 9.76605774 -14.3241272 8.85269165 C-14.37718594 6.69397169 -14.32314362 4.53313279 -14.25 2.375 C-10.62876702 -1.24623298 -4.89543142 0.00549431 0 0 Z M-3.25 11.375 C-3.25 13.355 -3.25 15.335 -3.25 17.375 C-1.31280622 17.42906122 0.62481921 17.46782025 2.5625 17.5 C3.64144531 17.52320313 4.72039062 17.54640625 5.83203125 17.5703125 C8.94402868 17.60523717 8.94402868 17.60523717 11.75 15.375 C11.40213292 13.39963255 11.40213292 13.39963255 10.75 11.375 C8.39729407 10.19864703 6.929248 10.24140641 4.3125 10.25 C3.53003906 10.24742187 2.74757812 10.24484375 1.94140625 10.2421875 C-0.42895347 10.29117452 -0.42895347 10.29117452 -3.25 11.375 Z M-3.25 27.375 C-3.25 29.355 -3.25 31.335 -3.25 33.375 C1.37 33.375 5.99 33.375 10.75 33.375 C11.41 32.055 12.07 30.735 12.75 29.375 C7.33411396 25.55202162 3.01732145 25.90033613 -3.25 27.375 Z " fill="#F7BD27" transform="translate(168.25,221.625)"/>
<path d="M0 0 C4.27587813 3.05419866 7.72020797 6.91293672 9.625 11.875 C9.85205078 15.26660156 9.85205078 15.26660156 9.8203125 19.265625 C9.8174826 19.97023865 9.81465271 20.67485229 9.81173706 21.40081787 C9.80057801 23.6423876 9.77548193 25.88355186 9.75 28.125 C9.73996464 29.64843171 9.73083976 31.17186971 9.72265625 32.6953125 C9.70065291 36.42200586 9.66615272 40.14846333 9.625 43.875 C7.828125 44.9296875 7.828125 44.9296875 5.625 45.875 C2.375 45 2.375 45 -0.375 43.875 C-0.375 40.575 -0.375 37.275 -0.375 33.875 C-3.345 33.875 -6.315 33.875 -9.375 33.875 C-9.643125 34.6175 -9.91125 35.36 -10.1875 36.125 C-11.32776751 38.76561949 -12.46880306 40.73052844 -14.375 42.875 C-15.035 42.875 -15.695 42.875 -16.375 42.875 C-16.375 43.535 -16.375 44.195 -16.375 44.875 C-17.035 44.875 -17.695 44.875 -18.375 44.875 C-18.375 45.535 -18.375 46.195 -18.375 46.875 C-19.035 46.875 -19.695 46.875 -20.375 46.875 C-20.705 47.865 -21.035 48.855 -21.375 49.875 C-23.85 50.37 -23.85 50.37 -26.375 50.875 C-27.66275209 28.89123217 -27.66275209 28.89123217 -27.375 19.875 C-27.35824219 19.06804687 -27.34148437 18.26109375 -27.32421875 17.4296875 C-26.93866693 10.93038542 -24.69514269 5.94440274 -19.875 1.48828125 C-13.96656421 -2.55956538 -6.56659249 -2.18886416 0 0 Z M-15.375 12.875 C-17.71872505 16.92325236 -17.34892985 18.00535074 -16.375 22.875 C-11.095 22.875 -5.815 22.875 -0.375 22.875 C-0.2821875 20.7403125 -0.2821875 20.7403125 -0.1875 18.5625 C-0.15269531 17.76199219 -0.11789062 16.96148437 -0.08203125 16.13671875 C-0.19375025 13.82047683 -0.19375025 13.82047683 -1.67578125 12.13671875 C-6.27208762 8.72382919 -11.20339992 9.29934279 -15.375 12.875 Z " fill="#B4A0FA" transform="translate(397.375,221.125)"/>
<path d="M0 0 C1.34362885 0.00031689 2.68728332 0.01162897 4.03076172 0.03173828 C4.73820526 0.03456818 5.4456488 0.03739807 6.17453003 0.04031372 C8.43667432 0.05151941 10.69842437 0.07662399 12.96044922 0.10205078 C14.49299559 0.11208011 16.02554816 0.12120604 17.55810547 0.12939453 C21.31737223 0.15145992 25.07634386 0.18599183 28.83544922 0.22705078 C29.83544922 3.22705078 29.83544922 3.22705078 28.58544922 6.28955078 C26.83544922 9.22705078 26.83544922 9.22705078 23.83544922 11.22705078 C21.01052285 11.34499577 18.27961808 11.36812559 15.46044922 11.28955078 C8.5958302 11.11546309 8.5958302 11.11546309 1.83544922 12.22705078 C1.83544922 13.21705078 1.83544922 14.20705078 1.83544922 15.22705078 C6.0858315 16.64384487 10.40732857 16.54331911 14.85498047 16.65673828 C19.33084339 16.85677685 22.2485804 17.51194414 25.83544922 20.22705078 C28.98630411 23.92115652 29.35897221 27.31455911 29.18701172 32.01220703 C28.47833981 36.47684006 26.17588644 39.24377874 22.61352539 41.85693359 C19.261049 43.51033877 16.80274115 43.67071825 13.07373047 43.77392578 C11.14883789 43.83386719 11.14883789 43.83386719 9.18505859 43.89501953 C8.52272217 43.90839355 7.86038574 43.92176758 7.17797852 43.93554688 C5.14316912 43.97714851 3.10982806 44.03977809 1.07568359 44.10595703 C-8.8658393 44.37640652 -8.8658393 44.37640652 -11.16455078 43.22705078 C-10.64999749 38.72470945 -9.62146389 36.21256665 -6.16455078 33.22705078 C-1.92537289 32.44082665 2.28290056 32.43608745 6.58544922 32.41455078 C8.34695312 32.3768457 8.34695312 32.3768457 10.14404297 32.33837891 C13.04151487 32.2794872 15.93747527 32.2432211 18.83544922 32.22705078 C18.50544922 30.90705078 18.17544922 29.58705078 17.83544922 28.22705078 C16.53349609 28.21287109 15.23154297 28.19869141 13.89013672 28.18408203 C12.16353956 28.13716363 10.43697815 28.08891634 8.71044922 28.03955078 C7.85451172 28.03375 6.99857422 28.02794922 6.11669922 28.02197266 C-0.04534127 27.80867125 -2.87113795 26.69029798 -7.16455078 22.22705078 C-9.70596895 18.76148054 -9.39338694 15.42238031 -9.16455078 11.22705078 C-8.83455078 10.23705078 -8.50455078 9.24705078 -8.16455078 8.22705078 C-8.82455078 7.89705078 -9.48455078 7.56705078 -10.16455078 7.22705078 C-3.16455078 0.22705078 -3.16455078 0.22705078 0 0 Z " fill="#F5B932" transform="translate(84.16455078125,221.77294921875)"/>
<path d="M0 0 C4.73612631 3.12382799 7.80014552 7.13423377 11.1875 11.640625 C13.95500543 15.24315362 16.96890381 18.6188076 20 22 C21.58004353 20.41995647 21.20093762 18.7531482 21.28125 16.5625 C21.31863281 15.66789063 21.35601562 14.77328125 21.39453125 13.8515625 C21.42933594 12.91054687 21.46414063 11.96953125 21.5 11 C21.56858488 9.14566805 21.64127813 7.29148192 21.71875 5.4375 C21.74904297 4.61121094 21.77933594 3.78492188 21.81054688 2.93359375 C22 1 22 1 23 0 C26.4375 -0.1875 26.4375 -0.1875 30 0 C32.66896431 2.66896431 32.23824462 4.67123407 32.25224304 8.29957581 C32.24505753 9.16106735 32.23787201 10.0225589 32.23046875 10.91015625 C32.23001053 11.79279648 32.22955231 12.67543671 32.2290802 13.58482361 C32.22605687 15.45182641 32.21816817 17.31882667 32.20581055 19.18579102 C32.18755226 22.05428939 32.18530084 24.92246521 32.18554688 27.79101562 C32.18063188 29.60156531 32.17480364 31.41211279 32.16796875 33.22265625 C32.16685593 34.08617203 32.1657431 34.94968781 32.16459656 35.83937073 C32.11604615 41.88395385 32.11604615 41.88395385 31 43 C27.78125 43.40625 27.78125 43.40625 24 43 C21.79299871 41.18104289 20.2634503 39.67546231 18.5 37.5 C18.03078125 36.95480713 17.5615625 36.40961426 17.078125 35.84790039 C16.13876966 34.75354496 15.20757114 33.65212877 14.28515625 32.54345703 C12.56196791 30.47392879 10.78154326 28.45683399 9 26.4375 C8.484375 25.83808594 7.96875 25.23867187 7.4375 24.62109375 C6.01425018 23.01607017 4.52261544 21.51022574 3 20 C2.97494385 20.62567871 2.9498877 21.25135742 2.92407227 21.89599609 C2.80824727 24.72254619 2.68546015 27.54875169 2.5625 30.375 C2.50352539 31.85226563 2.50352539 31.85226563 2.44335938 33.359375 C2.40146484 34.30039062 2.35957031 35.24140625 2.31640625 36.2109375 C2.26141968 37.51490479 2.26141968 37.51490479 2.20532227 38.84521484 C2 41 2 41 1 43 C-5.15234375 43.09765625 -5.15234375 43.09765625 -7 43 C-8 42 -8 42 -8.11352539 38.12280273 C-8.11336621 36.39305833 -8.10766849 34.66330919 -8.09765625 32.93359375 C-8.0962413 32.02497086 -8.09482635 31.11634796 -8.09336853 30.18019104 C-8.08775193 27.26592779 -8.07519665 24.35174019 -8.0625 21.4375 C-8.05748714 19.46679798 -8.05292386 17.49609476 -8.04882812 15.52539062 C-8.03777711 10.68356441 -8.02050138 5.84179505 -8 1 C-5.09704195 -0.45147903 -3.22738221 -0.37239025 0 0 Z " fill="#F8BF29" transform="translate(241,222)"/>
<path d="M0 0 C4.6464464 2.43963744 7.72593732 6.12624915 9.38842773 11.09667969 C9.92406051 14.03570997 9.90420359 16.84474175 9.890625 19.83203125 C9.88740234 21.08242187 9.88417969 22.3328125 9.88085938 23.62109375 C9.86829102 25.57402344 9.86829102 25.57402344 9.85546875 27.56640625 C9.85095703 28.88382813 9.84644531 30.20125 9.84179688 31.55859375 C9.83001191 34.81124366 9.81355886 38.06380209 9.79296875 41.31640625 C6.48046875 42.44140625 6.48046875 42.44140625 2.79296875 43.31640625 C-0.20703125 41.31640625 -0.20703125 41.31640625 -0.71875 39.15234375 C-0.88151042 36.87369792 -1.04427083 34.59505208 -1.20703125 32.31640625 C-8.13703125 31.82140625 -8.13703125 31.82140625 -15.20703125 31.31640625 C-15.20703125 34.61640625 -15.20703125 37.91640625 -15.20703125 41.31640625 C-20.83203125 43.44140625 -20.83203125 43.44140625 -24.20703125 42.31640625 C-26.40051666 37.92943544 -25.43691827 32.00846386 -25.45703125 27.19140625 C-25.47765625 25.9796875 -25.49828125 24.76796875 -25.51953125 23.51953125 C-25.58317736 8.91274814 -25.58317736 8.91274814 -20.75463867 3.76928711 C-14.74788091 -1.41774632 -7.65064936 -2.36967016 0 0 Z M-14.20703125 12.31640625 C-15.72878044 14.98722664 -15.72878044 14.98722664 -15.20703125 21.31640625 C-10.25703125 21.31640625 -5.30703125 21.31640625 -0.20703125 21.31640625 C0.29240282 14.93277131 0.29240282 14.93277131 -1.33203125 11.94140625 C-5.77431275 8.09142895 -9.81012515 8.92450726 -14.20703125 12.31640625 Z " fill="#FAC229" transform="translate(346.20703125,222.68359375)"/>
<path d="M0 0 C1.73540039 0.01450195 1.73540039 0.01450195 3.50585938 0.02929688 C4.70404297 0.05443359 5.90222656 0.07957031 7.13671875 0.10546875 C8.96299805 0.12577148 8.96299805 0.12577148 10.82617188 0.14648438 C13.8259722 0.18177614 16.8248685 0.23108394 19.82421875 0.29296875 C20.82421875 3.29296875 20.82421875 3.29296875 20.1171875 5.08203125 C19.75238281 5.68789062 19.38757813 6.29375 19.01171875 6.91796875 C18.65464844 7.52898437 18.29757813 8.14 17.9296875 8.76953125 C16.82421875 10.29296875 16.82421875 10.29296875 14.82421875 11.29296875 C13.44873719 11.37605513 12.06936079 11.40032891 10.69140625 11.390625 C9.88574219 11.38740234 9.08007812 11.38417969 8.25 11.38085938 C7.40824219 11.37248047 6.56648438 11.36410156 5.69921875 11.35546875 C4.42498047 11.34870117 4.42498047 11.34870117 3.125 11.34179688 C1.02470966 11.32999749 -1.07554455 11.31206181 -3.17578125 11.29296875 C-3.50578125 12.94296875 -3.83578125 14.59296875 -4.17578125 16.29296875 C2.75421875 16.62296875 9.68421875 16.95296875 16.82421875 17.29296875 C15.82421875 23.29296875 15.82421875 23.29296875 13.82421875 26.29296875 C11.94482422 26.7253418 11.94482422 26.7253418 9.69140625 26.8046875 C8.48291016 26.85786133 8.48291016 26.85786133 7.25 26.91210938 C6.40824219 26.93466797 5.56648438 26.95722656 4.69921875 26.98046875 C3.42498047 27.03170898 3.42498047 27.03170898 2.125 27.08398438 C0.0252077 27.16656048 -2.07526689 27.23143853 -4.17578125 27.29296875 C-3.84578125 28.94296875 -3.51578125 30.59296875 -3.17578125 32.29296875 C-2.22940796 32.33055298 -2.22940796 32.33055298 -1.26391602 32.36889648 C1.578187 32.48451012 4.41992958 32.60739191 7.26171875 32.73046875 C8.25494141 32.76978516 9.24816406 32.80910156 10.27148438 32.84960938 C11.6878418 32.91245117 11.6878418 32.91245117 13.1328125 32.9765625 C14.00736084 33.01322021 14.88190918 33.04987793 15.78295898 33.08764648 C17.82421875 33.29296875 17.82421875 33.29296875 18.82421875 34.29296875 C19.06150689 40.81839248 19.06150689 40.81839248 17.82421875 43.29296875 C13.76196054 43.40935301 9.70013245 43.48028248 5.63671875 43.54296875 C3.91098633 43.59324219 3.91098633 43.59324219 2.15039062 43.64453125 C0.48266602 43.66386719 0.48266602 43.66386719 -1.21875 43.68359375 C-2.7505188 43.71501465 -2.7505188 43.71501465 -4.31323242 43.74707031 C-8.00000166 43.16221822 -9.57259843 41.93705994 -12.17578125 39.29296875 C-15.1347725 33.82450276 -14.50565525 27.91204409 -14.48828125 21.85546875 C-14.50439453 20.73591797 -14.52050781 19.61636719 -14.53710938 18.46289062 C-14.54343442 7.80518379 -14.54343442 7.80518379 -11.17578125 3.29296875 C-7.35283261 0.49053524 -4.70240323 -0.06949364 0 0 Z " fill="#FABE28" transform="translate(131.17578125,221.70703125)"/>
<path d="M0 0 C1.14791016 -0.00386719 2.29582031 -0.00773438 3.47851562 -0.01171875 C4.66767578 -0.00011719 5.85683594 0.01148438 7.08203125 0.0234375 C8.28279297 0.01183594 9.48355469 0.00023437 10.72070312 -0.01171875 C11.86474609 -0.00785156 13.00878906 -0.00398437 14.1875 0 C15.23446045 0.00338379 16.2814209 0.00676758 17.36010742 0.01025391 C18.19646729 0.13835449 19.03282715 0.26645508 19.89453125 0.3984375 C20.55453125 1.3884375 21.21453125 2.3784375 21.89453125 3.3984375 C21.10819203 4.54793338 20.31526867 5.69292739 19.51953125 6.8359375 C19.07867187 7.47402344 18.6378125 8.11210937 18.18359375 8.76953125 C16.89453125 10.3984375 16.89453125 10.3984375 14.89453125 11.3984375 C13.51904969 11.48152388 12.13967329 11.50579766 10.76171875 11.49609375 C9.95605469 11.49287109 9.15039062 11.48964844 8.3203125 11.48632812 C7.47855469 11.47794922 6.63679688 11.46957031 5.76953125 11.4609375 C4.49529297 11.45416992 4.49529297 11.45416992 3.1953125 11.44726562 C1.09502216 11.43546624 -1.00523205 11.41753056 -3.10546875 11.3984375 C-3.10546875 13.0484375 -3.10546875 14.6984375 -3.10546875 16.3984375 C3.49453125 16.7284375 10.09453125 17.0584375 16.89453125 17.3984375 C15.89453125 23.3984375 15.89453125 23.3984375 13.89453125 26.3984375 C10.95855586 26.78228259 8.21425752 27.0022805 5.26953125 27.0859375 C4.06683594 27.13717773 4.06683594 27.13717773 2.83984375 27.18945312 C0.85856807 27.27200628 -1.12342912 27.33689666 -3.10546875 27.3984375 C-3.10546875 29.0484375 -3.10546875 30.6984375 -3.10546875 32.3984375 C3.82453125 32.7284375 10.75453125 33.0584375 17.89453125 33.3984375 C19.89453125 37.3984375 19.89453125 37.3984375 19.08203125 40.0859375 C17.89453125 42.3984375 17.89453125 42.3984375 16.89453125 43.3984375 C13.15216123 43.67949852 9.39619346 43.63029161 5.64453125 43.6484375 C4.59394531 43.6690625 3.54335937 43.6896875 2.4609375 43.7109375 C0.93533203 43.71867187 0.93533203 43.71867187 -0.62109375 43.7265625 C-1.55211914 43.7359082 -2.48314453 43.74525391 -3.44238281 43.75488281 C-6.66031999 43.32417248 -8.49555835 42.3047777 -11.10546875 40.3984375 C-15.16668384 34.30661486 -14.309648 25.85324629 -14.35546875 18.7109375 C-14.37609375 17.89560547 -14.39671875 17.08027344 -14.41796875 16.24023438 C-14.45036857 11.23041282 -14.04079374 7.65465873 -11.10546875 3.3984375 C-7.33410421 0.62924797 -4.64237347 0.01495587 0 0 Z " fill="#FABE2A" transform="translate(209.10546875,221.6015625)"/>
<path d="M0 0 C12.21 0 24.42 0 37 0 C36.09525323 4.52373386 35.42233372 6.32164139 33 10 C32.37738281 10.95003906 31.75476563 11.90007812 31.11328125 12.87890625 C28.09496972 17.33663438 25.02270561 21.75441185 21.91796875 26.15234375 C20.40160604 28.40372545 19.1213099 30.5378645 18 33 C19.28777344 32.98839844 20.57554687 32.97679687 21.90234375 32.96484375 C23.58072772 32.9554673 25.25911326 32.94636695 26.9375 32.9375 C28.21270508 32.92493164 28.21270508 32.92493164 29.51367188 32.91210938 C30.32255859 32.90888672 31.13144531 32.90566406 31.96484375 32.90234375 C32.7137085 32.89710693 33.46257324 32.89187012 34.23413086 32.88647461 C36 33 36 33 37 34 C37.1875 37.4375 37.1875 37.4375 37 41 C34.19693385 43.80306615 31.4549865 43.40716341 27.69140625 43.51953125 C26.96888168 43.54601242 26.24635712 43.57249359 25.50193787 43.59977722 C23.97305387 43.65247531 22.44398618 43.7000544 20.91479492 43.74291992 C18.57431156 43.81215062 16.23592765 43.90808498 13.89648438 44.00585938 C12.41151007 44.05371655 10.92648381 44.09999308 9.44140625 44.14453125 C8.7413295 44.17561478 8.04125275 44.2066983 7.31996155 44.23872375 C2.44475221 44.34153478 2.44475221 44.34153478 0.03491211 42.4909668 C-0.30660889 41.99894775 -0.64812988 41.50692871 -1 41 C3.42087061 33.95881204 7.95975749 27.0116378 12.62255859 20.12866211 C14.6167355 17.16564956 16.5222068 14.25767672 18 11 C17.03578125 11.05800781 16.0715625 11.11601562 15.078125 11.17578125 C13.81484375 11.22089844 12.5515625 11.26601562 11.25 11.3125 C9.99703125 11.37050781 8.7440625 11.42851562 7.453125 11.48828125 C4 11 4 11 1.59765625 8.6171875 C0.17464216 6.28608862 -0.72092426 4.69773212 -1 2 C-0.67 1.34 -0.34 0.68 0 0 Z " fill="#F6BB27" transform="translate(279,222)"/>
<path d="M0 0 C1.73540039 0.01450195 1.73540039 0.01450195 3.50585938 0.02929688 C4.70404297 0.05443359 5.90222656 0.07957031 7.13671875 0.10546875 C8.96299805 0.12577148 8.96299805 0.12577148 10.82617188 0.14648438 C13.8259722 0.18177614 16.8248685 0.23108394 19.82421875 0.29296875 C20.31921875 1.77796875 20.31921875 1.77796875 20.82421875 3.29296875 C19.83421875 4.28296875 18.84421875 5.27296875 17.82421875 6.29296875 C17.49421875 4.97296875 17.16421875 3.65296875 16.82421875 2.29296875 C9.56421875 2.62296875 2.30421875 2.95296875 -5.17578125 3.29296875 C-5.50578125 3.95296875 -5.83578125 4.61296875 -6.17578125 5.29296875 C-7.49578125 5.29296875 -8.81578125 5.29296875 -10.17578125 5.29296875 C-10.17578125 8.92296875 -10.17578125 12.55296875 -10.17578125 16.29296875 C-10.83578125 16.29296875 -11.49578125 16.29296875 -12.17578125 16.29296875 C-12.06068464 17.71047438 -11.93324467 19.12698044 -11.80078125 20.54296875 C-11.73117188 21.331875 -11.6615625 22.12078125 -11.58984375 22.93359375 C-11.29177546 25.3189165 -11.29177546 25.3189165 -10.11328125 27.35546875 C-8.63561835 30.40930542 -9.55388897 33.05912888 -10.17578125 36.29296875 C-8.85578125 35.63296875 -7.53578125 34.97296875 -6.17578125 34.29296875 C-6.17578125 31.65296875 -6.17578125 29.01296875 -6.17578125 26.29296875 C-3.87924425 25.14470025 -2.59264958 25.177357 -0.04296875 25.1953125 C0.76269531 25.19853516 1.56835938 25.20175781 2.3984375 25.20507812 C3.24019531 25.21345703 4.08195312 25.22183594 4.94921875 25.23046875 C5.79871094 25.23498047 6.64820313 25.23949219 7.5234375 25.24414062 C9.62372784 25.25594001 11.72398205 25.27387569 13.82421875 25.29296875 C13.82421875 25.62296875 13.82421875 25.95296875 13.82421875 26.29296875 C7.88421875 26.62296875 1.94421875 26.95296875 -4.17578125 27.29296875 C-3.84578125 28.94296875 -3.51578125 30.59296875 -3.17578125 32.29296875 C-2.22940796 32.33055298 -2.22940796 32.33055298 -1.26391602 32.36889648 C1.578187 32.48451012 4.41992958 32.60739191 7.26171875 32.73046875 C8.25494141 32.76978516 9.24816406 32.80910156 10.27148438 32.84960938 C11.6878418 32.91245117 11.6878418 32.91245117 13.1328125 32.9765625 C14.00736084 33.01322021 14.88190918 33.04987793 15.78295898 33.08764648 C17.82421875 33.29296875 17.82421875 33.29296875 18.82421875 34.29296875 C19.06150689 40.81839248 19.06150689 40.81839248 17.82421875 43.29296875 C13.76196054 43.40935301 9.70013245 43.48028248 5.63671875 43.54296875 C3.91098633 43.59324219 3.91098633 43.59324219 2.15039062 43.64453125 C0.48266602 43.66386719 0.48266602 43.66386719 -1.21875 43.68359375 C-2.7505188 43.71501465 -2.7505188 43.71501465 -4.31323242 43.74707031 C-8.00000166 43.16221822 -9.57259843 41.93705994 -12.17578125 39.29296875 C-15.1347725 33.82450276 -14.50565525 27.91204409 -14.48828125 21.85546875 C-14.50439453 20.73591797 -14.52050781 19.61636719 -14.53710938 18.46289062 C-14.54343442 7.80518379 -14.54343442 7.80518379 -11.17578125 3.29296875 C-7.35283261 0.49053524 -4.70240323 -0.06949364 0 0 Z " fill="#F2B831" transform="translate(131.17578125,221.70703125)"/>
<path d="M0 0 C4.27587813 3.05419866 7.72020797 6.91293672 9.625 11.875 C9.85205078 15.26660156 9.85205078 15.26660156 9.8203125 19.265625 C9.8174826 19.97023865 9.81465271 20.67485229 9.81173706 21.40081787 C9.80057801 23.6423876 9.77548193 25.88355186 9.75 28.125 C9.73996464 29.64843171 9.73083976 31.17186971 9.72265625 32.6953125 C9.70065291 36.42200586 9.66615272 40.14846333 9.625 43.875 C8.635 44.37 8.635 44.37 7.625 44.875 C7.13 27.55 7.13 27.55 6.625 9.875 C5.635 9.545 4.645 9.215 3.625 8.875 C3.625 7.885 3.625 6.895 3.625 5.875 C2.965 5.875 2.305 5.875 1.625 5.875 C1.295 5.215 0.965 4.555 0.625 3.875 C-5.8144356 1.72852147 -12.03357325 2.7189149 -18.375 4.875 C-19.365 5.205 -20.355 5.535 -21.375 5.875 C-24.02040141 13.11504597 -25.18531413 22.52078039 -22.1796875 29.75 C-20.5581584 32.10641092 -20.5581584 32.10641092 -17.89453125 32.36328125 C-17.00121094 32.30527344 -16.10789062 32.24726563 -15.1875 32.1875 C-14.28644531 32.14238281 -13.38539063 32.09726563 -12.45703125 32.05078125 C-11.76996094 31.99277344 -11.08289063 31.93476563 -10.375 31.875 C-10.01641561 35.72978218 -10.0995182 37.45259458 -12.25 40.75 C-12.95125 41.45125 -13.6525 42.1525 -14.375 42.875 C-15.035 42.875 -15.695 42.875 -16.375 42.875 C-16.375 43.535 -16.375 44.195 -16.375 44.875 C-17.035 44.875 -17.695 44.875 -18.375 44.875 C-18.375 45.535 -18.375 46.195 -18.375 46.875 C-19.035 46.875 -19.695 46.875 -20.375 46.875 C-20.705 47.865 -21.035 48.855 -21.375 49.875 C-23.85 50.37 -23.85 50.37 -26.375 50.875 C-27.66275209 28.89123217 -27.66275209 28.89123217 -27.375 19.875 C-27.35824219 19.06804687 -27.34148437 18.26109375 -27.32421875 17.4296875 C-26.93866693 10.93038542 -24.69514269 5.94440274 -19.875 1.48828125 C-13.96656421 -2.55956538 -6.56659249 -2.18886416 0 0 Z " fill="#A999EB" transform="translate(397.375,221.125)"/>
<path d="M0 0 C3.0625 0.125 3.0625 0.125 5.0625 1.125 C5.97285504 3.85606511 6.18465713 5.42393239 6.17602539 8.22924805 C6.17594986 9.04987228 6.17587433 9.87049652 6.17579651 10.71598816 C6.17063522 11.59732925 6.16547394 12.47867035 6.16015625 13.38671875 C6.1587413 14.29251175 6.15732635 15.19830475 6.15586853 16.13154602 C6.15027001 19.02523091 6.13771781 21.91883849 6.125 24.8125 C6.11998481 26.77408742 6.11542193 28.73567606 6.11132812 30.69726562 C6.10030107 35.50654021 6.08303747 40.315757 6.0625 45.125 C2.94478073 46.72839848 1.67238311 47.31474141 -1.75 46.25 C-2.471875 45.87875 -3.19375 45.5075 -3.9375 45.125 C-3.96277124 38.87704325 -3.98033344 32.62909959 -3.99243164 26.38110352 C-3.99747298 24.25381986 -4.00430591 22.12653969 -4.01293945 19.99926758 C-4.02501379 16.94872174 -4.03073014 13.89822155 -4.03515625 10.84765625 C-4.04031754 9.89037125 -4.04547882 8.93308624 -4.05079651 7.9467926 C-4.05087204 7.06595505 -4.05094757 6.18511749 -4.05102539 5.27758789 C-4.053246 4.49815323 -4.05546661 3.71871857 -4.05775452 2.91566467 C-3.85051528 -0.17025669 -3.12763499 0.13309085 0 0 Z " fill="#B3A1FB" transform="translate(418.9375,219.875)"/>
<path d="M0 0 C5.94 0 11.88 0 18 0 C15 3 15 3 12.30078125 3.29296875 C8.15039062 3.14648438 8.15039062 3.14648438 4 3 C4 6.63 4 10.26 4 14 C8.95 14.33 13.9 14.66 19 15 C18.67 15.99 18.34 16.98 18 18 C16.35 18 14.7 18 13 18 C13 18.66 13 19.32 13 20 C10.03 20.33 7.06 20.66 4 21 C4 24.3 4 27.6 4 31 C5.03640625 30.98839844 6.0728125 30.97679687 7.140625 30.96484375 C8.51041486 30.95546163 9.88020668 30.94636188 11.25 30.9375 C11.93191406 30.92912109 12.61382812 30.92074219 13.31640625 30.91210938 C16.8026497 30.89518586 19.58660119 31.1466503 23 32 C23.33 28.7 23.66 25.4 24 22 C21.03 21.67 18.06 21.34 15 21 C18.60661066 19.19669467 21.08393425 18.53400897 25 18 C28.13107836 21.38583802 28.33550778 23.71109462 28.1875 28.25 C28.16042969 29.32765625 28.13335937 30.4053125 28.10546875 31.515625 C28.07066406 32.33546875 28.03585938 33.1553125 28 34 C22.12905562 36.57996518 16.40390015 36.22552426 10.125 36.125 C9.05507812 36.11597656 7.98515625 36.10695313 6.8828125 36.09765625 C4.25497561 36.07419342 1.62760594 36.04136459 -1 36 C-1.02468447 31.19450253 -1.04285255 26.38904182 -1.05493164 21.58349609 C-1.05996621 19.94807289 -1.06679427 18.3126542 -1.07543945 16.67724609 C-1.08754335 14.32909025 -1.093237 11.98099381 -1.09765625 9.6328125 C-1.10281754 8.89942657 -1.10797882 8.16604065 -1.11329651 7.41043091 C-1.11387171 2.22774341 -1.11387171 2.22774341 0 0 Z " fill="#FCBF28" transform="translate(159,226)"/>
<path d="M0 0 C3.0363743 4.66300339 3.41811933 8.1755155 2.75 13.6875 C0.49278647 18.20192706 -1.75863111 20.47945052 -6.25 22.6875 C-9.47973633 23.11987305 -9.47973633 23.11987305 -13.08203125 23.19921875 C-15.02045898 23.25239258 -15.02045898 23.25239258 -16.99804688 23.30664062 C-18.35285934 23.32973681 -19.70767718 23.35251935 -21.0625 23.375 C-22.43688117 23.40819761 -23.81123171 23.44268953 -25.18554688 23.47851562 C-28.54028234 23.56091264 -31.89475904 23.63009395 -35.25 23.6875 C-35.25 22.0375 -35.25 20.3875 -35.25 18.6875 C-34.26 18.3575 -33.27 18.0275 -32.25 17.6875 C-31.92 17.0275 -31.59 16.3675 -31.25 15.6875 C-22.67 15.3575 -14.09 15.0275 -5.25 14.6875 C-4.96061208 8.4598408 -4.96061208 8.4598408 -7.25 3.6875 C-9.56 3.6875 -11.87 3.6875 -14.25 3.6875 C-14.25 2.6975 -14.25 1.7075 -14.25 0.6875 C-15.24 0.3575 -16.23 0.0275 -17.25 -0.3125 C-14.83761704 -2.72488296 -9.66180828 -2.21234523 -6.4375 -2.44921875 C-3.25 -2.3125 -3.25 -2.3125 0 0 Z " fill="#FCBE28" transform="translate(110.25,242.3125)"/>
<path d="M0 0 C1.13308594 -0.02449219 2.26617187 -0.04898438 3.43359375 -0.07421875 C9.8608496 -0.0968234 13.90695455 -0.00906401 18.75 4.375 C19.35328125 4.85839844 19.9565625 5.34179688 20.578125 5.83984375 C22.12758529 7.86963673 22.28344649 9.40965425 22.5 11.9375 C22.57734375 12.72253906 22.6546875 13.50757813 22.734375 14.31640625 C22.75 16.375 22.75 16.375 21.75 18.375 C21.50212983 22.52003661 21.50212983 22.52003661 22.75 26.375 C23.13893819 31.04225826 23.20147837 33.45467871 21.125 37.6875 C17.7615235 41.4935392 14.99358664 43.19306225 9.82666016 43.61206055 C6.33800789 43.67028102 2.86331878 43.63619688 -0.625 43.5625 C-2.44451172 43.54219727 -2.44451172 43.54219727 -4.30078125 43.52148438 C-7.28431206 43.48624582 -10.26692458 43.43697525 -13.25 43.375 C-13.44206145 37.57292216 -13.62081576 31.77064709 -13.78710938 25.96777344 C-13.84560041 23.99272602 -13.90776216 22.01778382 -13.97363281 20.04296875 C-14.067545 17.20852819 -14.14835955 14.37397447 -14.2265625 11.5390625 C-14.25875885 10.65256012 -14.2909552 9.76605774 -14.3241272 8.85269165 C-14.37718594 6.69397169 -14.32314362 4.53313279 -14.25 2.375 C-10.62876702 -1.24623298 -4.89543142 0.00549431 0 0 Z M4.3984375 1.59375 C3.63192871 1.63435547 2.86541992 1.67496094 2.07568359 1.71679688 C1.10195801 1.76900391 0.12823242 1.82121094 -0.875 1.875 C-3.96875 2.04 -7.0625 2.205 -10.25 2.375 C-10.25 14.915 -10.25 27.455 -10.25 40.375 C-4.743125 40.436875 -4.743125 40.436875 0.875 40.5 C2.0211377 40.51820801 3.16727539 40.53641602 4.34814453 40.55517578 C9.53842218 40.58338876 13.90592339 40.50371187 18.75 38.375 C18.73839844 37.07304687 18.72679687 35.77109375 18.71484375 34.4296875 C18.70546027 32.70312644 18.69636066 30.97656382 18.6875 29.25 C18.67912109 28.3940625 18.67074219 27.538125 18.66210938 26.65625 C18.64453523 22.08697258 18.95398259 17.88576532 19.75 13.375 C19.6708799 11.08084813 19.6708799 11.08084813 19.3125 9 C19.126875 7.80375 18.94125 6.6075 18.75 5.375 C17.76 5.375 16.77 5.375 15.75 5.375 C15.75 4.715 15.75 4.055 15.75 3.375 C14.1 3.375 12.45 3.375 10.75 3.375 C10.75 2.715 10.75 2.055 10.75 1.375 C8.62418997 1.375 6.52134176 1.48052844 4.3984375 1.59375 Z " fill="#EAAE2D" transform="translate(168.25,221.625)"/>
<path d="M0 0 C0 0.66 0 1.32 0 2 C0.66 2 1.32 2 2 2 C2.33 2.99 2.66 3.98 3 5 C3.66 5.33 4.32 5.66 5 6 C6.1687481 9.5062443 6.12514267 12.6477866 6.09765625 16.29296875 C6.0962413 16.99899734 6.09482635 17.70502594 6.09336853 18.43244934 C6.08777764 20.68417626 6.07522688 22.93580321 6.0625 25.1875 C6.05748382 26.71549335 6.05292112 28.24348827 6.04882812 29.77148438 C6.0378112 33.51436135 6.02055287 37.25716373 6 41 C5.01 41.495 5.01 41.495 4 42 C1.90822326 40.29311018 1.07446768 39.38881355 0.55859375 36.6953125 C0.51863281 35.84710938 0.47867187 34.99890625 0.4375 34.125 C0.22948145 31.01828814 -0.00825742 28.97957375 -1.1875 26.0625 C-1.455625 25.381875 -1.72375 24.70125 -2 24 C-1.34 23.01 -0.68 22.02 0 21 C0.24187651 18.25481679 0.24187651 18.25481679 0.125 15.3125 C0.09792969 13.82169922 0.09792969 13.82169922 0.0703125 12.30078125 C0.04710937 11.54152344 0.02390625 10.78226563 0 10 C-0.63292969 9.70351562 -1.26585937 9.40703125 -1.91796875 9.1015625 C-4 8 -4 8 -5.3125 6.375 C-8.06266408 4.13412557 -10.58751301 4.70065904 -14 5 C-16.76142665 6.01736771 -17.68085371 6.36170741 -19 9 C-21 9.66666667 -23 10.33333333 -25 11 C-25.33 11.66 -25.66 12.32 -26 13 C-25.63704497 5.86188437 -25.63704497 5.86188437 -22.875 2.125 C-16.40781078 -2.65509638 -7.1393551 -4.06121329 0 0 Z " fill="#B4A1FB" transform="translate(399,225)"/>
<path d="M0 0 C4.6464464 2.43963744 7.72593732 6.12624915 9.38842773 11.09667969 C9.92406051 14.03570997 9.90420359 16.84474175 9.890625 19.83203125 C9.88740234 21.08242187 9.88417969 22.3328125 9.88085938 23.62109375 C9.86829102 25.57402344 9.86829102 25.57402344 9.85546875 27.56640625 C9.85095703 28.88382813 9.84644531 30.20125 9.84179688 31.55859375 C9.83001191 34.81124366 9.81355886 38.06380209 9.79296875 41.31640625 C6.48046875 42.44140625 6.48046875 42.44140625 2.79296875 43.31640625 C-0.20703125 41.31640625 -0.20703125 41.31640625 -0.71875 39.15234375 C-0.88151042 36.87369792 -1.04427083 34.59505208 -1.20703125 32.31640625 C-8.13703125 31.82140625 -8.13703125 31.82140625 -15.20703125 31.31640625 C-15.20703125 34.61640625 -15.20703125 37.91640625 -15.20703125 41.31640625 C-20.83203125 43.44140625 -20.83203125 43.44140625 -24.20703125 42.31640625 C-26.40051666 37.92943544 -25.43691827 32.00846386 -25.45703125 27.19140625 C-25.47765625 25.9796875 -25.49828125 24.76796875 -25.51953125 23.51953125 C-25.58317736 8.91274814 -25.58317736 8.91274814 -20.75463867 3.76928711 C-14.74788091 -1.41774632 -7.65064936 -2.36967016 0 0 Z M-16.20703125 3.31640625 C-16.20703125 3.97640625 -16.20703125 4.63640625 -16.20703125 5.31640625 C-16.82578125 5.35765625 -17.44453125 5.39890625 -18.08203125 5.44140625 C-20.50460495 6.14671214 -20.50460495 6.14671214 -21.32543945 8.98339844 C-22.20928254 12.32491762 -22.45105064 15.07288566 -22.4375 18.51953125 C-22.43556641 19.66421875 -22.43363281 20.80890625 -22.43164062 21.98828125 C-22.41939453 23.1690625 -22.40714844 24.34984375 -22.39453125 25.56640625 C-22.39388672 26.76265625 -22.39324219 27.95890625 -22.39257812 29.19140625 C-22.65331858 34.92986208 -22.65331858 34.92986208 -21.20703125 40.31640625 C-19.88703125 40.31640625 -18.56703125 40.31640625 -17.20703125 40.31640625 C-16.87703125 37.34640625 -16.54703125 34.37640625 -16.20703125 31.31640625 C-13.56194764 30.95557748 -10.91623578 30.60245273 -8.26953125 30.25390625 C-7.51478516 30.15013672 -6.76003906 30.04636719 -5.98242188 29.93945312 C-4.06228997 29.68974987 -2.13474981 29.49850344 -0.20703125 29.31640625 C1.35882883 30.88226633 1.40391568 32.74155505 1.85546875 34.87890625 C2.03207031 35.70519531 2.20867187 36.53148437 2.390625 37.3828125 C2.58978516 38.33994141 2.58978516 38.33994141 2.79296875 39.31640625 C4.44296875 39.31640625 6.09296875 39.31640625 7.79296875 39.31640625 C7.85116348 35.25396668 7.8866309 31.19163479 7.91796875 27.12890625 C7.93472656 25.97841797 7.95148438 24.82792969 7.96875 23.64257812 C7.97519531 22.53076172 7.98164063 21.41894531 7.98828125 20.2734375 C7.99875488 19.2522583 8.00922852 18.2310791 8.02001953 17.17895508 C7.60168125 11.90474398 5.51219035 8.03562785 1.79296875 4.31640625 C-4.8316983 0.95723165 -9.07885333 1.16450348 -16.20703125 3.31640625 Z " fill="#DFAA3B" transform="translate(346.20703125,222.68359375)"/>
<path d="M0 0 C1.32 0 2.64 0 4 0 C4 12.87 4 25.74 4 39 C2.35 39 0.7 39 -1 39 C-5 34.89189189 -5 34.89189189 -5 32 C-5.66 32 -6.32 32 -7 32 C-7 31.34 -7 30.68 -7 30 C-8.65 29.67 -10.3 29.34 -12 29 C-12.33 26.36 -12.66 23.72 -13 21 C-13.99 20.67 -14.98 20.34 -16 20 C-15.67 18.68 -15.34 17.36 -15 16 C-13.35 16.33 -11.7 16.66 -10 17 C-10.33 17.66 -10.66 18.32 -11 19 C-7.38007501 21.44134476 -3.74777188 23.75133687 0 26 C0 17.42 0 8.84 0 0 Z " fill="#FABF29" transform="translate(266,224)"/>
<path d="M0 0 C3.51202116 0.78742703 4.74922072 1.72266637 6.83984375 4.63671875 C7.3359375 7.36328125 7.3359375 7.36328125 7.27734375 10.26171875 C7.27605469 11.22335938 7.27476562 12.185 7.2734375 13.17578125 C7.05880859 14.39394531 7.05880859 14.39394531 6.83984375 15.63671875 C2.55260899 18.49487526 -1.09801613 17.69301209 -6.12890625 17.51171875 C-9.33985518 17.38100079 -9.33985518 17.38100079 -12.16015625 19.63671875 C-12.16015625 20.29671875 -12.16015625 20.95671875 -12.16015625 21.63671875 C-8.20015625 21.14171875 -8.20015625 21.14171875 -4.16015625 20.63671875 C-4.16015625 21.29671875 -4.16015625 21.95671875 -4.16015625 22.63671875 C-8.12015625 23.13171875 -8.12015625 23.13171875 -12.16015625 23.63671875 C-12.49015625 26.60671875 -12.82015625 29.57671875 -13.16015625 32.63671875 C-14.48015625 32.63671875 -15.80015625 32.63671875 -17.16015625 32.63671875 C-18.51716272 29.92270581 -18.27254235 27.78825559 -18.2578125 24.75390625 C-18.25458984 23.58730469 -18.25136719 22.42070312 -18.24804688 21.21875 C-18.23966797 19.99542969 -18.23128906 18.77210938 -18.22265625 17.51171875 C-18.21814453 16.28066406 -18.21363281 15.04960937 -18.20898438 13.78125 C-18.19716955 10.73302483 -18.18069653 7.68489561 -18.16015625 4.63671875 C-17.83015625 4.63671875 -17.50015625 4.63671875 -17.16015625 4.63671875 C-17.16015625 8.26671875 -17.16015625 11.89671875 -17.16015625 15.63671875 C-16.17015625 15.63671875 -15.18015625 15.63671875 -14.16015625 15.63671875 C-14.26328125 14.46109375 -14.36640625 13.28546875 -14.47265625 12.07421875 C-14.42152557 7.97645973 -13.61836572 5.15829668 -11.0546875 1.9296875 C-7.63499863 -0.40416202 -4.01731266 -0.06585758 0 0 Z M-10.16015625 4.63671875 C-11.68190544 7.30753914 -11.68190544 7.30753914 -11.16015625 13.63671875 C-6.21015625 13.63671875 -1.26015625 13.63671875 3.83984375 13.63671875 C4.33927782 7.25308381 4.33927782 7.25308381 2.71484375 4.26171875 C-1.72743775 0.41174145 -5.76325015 1.24481976 -10.16015625 4.63671875 Z " fill="#F6BC26" transform="translate(342.16015625,230.36328125)"/>
<path d="M0 0 C1.15435547 -0.00386719 2.30871094 -0.00773438 3.49804688 -0.01171875 C5.30692383 0.00568359 5.30692383 0.00568359 7.15234375 0.0234375 C8.36212891 0.01183594 9.57191406 0.00023437 10.81835938 -0.01171875 C11.97142578 -0.00785156 13.12449219 -0.00398437 14.3125 0 C15.37218994 0.00338379 16.43187988 0.00676758 17.52368164 0.01025391 C18.37051514 0.13835449 19.21734863 0.26645508 20.08984375 0.3984375 C20.74984375 1.3884375 21.40984375 2.3784375 22.08984375 3.3984375 C21.30350453 4.54793338 20.51058117 5.69292739 19.71484375 6.8359375 C19.27398437 7.47402344 18.833125 8.11210937 18.37890625 8.76953125 C17.08984375 10.3984375 17.08984375 10.3984375 15.08984375 11.3984375 C13.71436219 11.48152388 12.33498579 11.50579766 10.95703125 11.49609375 C10.15136719 11.49287109 9.34570312 11.48964844 8.515625 11.48632812 C7.67386719 11.47794922 6.83210937 11.46957031 5.96484375 11.4609375 C5.11535156 11.45642578 4.26585937 11.45191406 3.390625 11.44726562 C1.29033466 11.43546624 -0.80991955 11.41753056 -2.91015625 11.3984375 C-2.91015625 13.0484375 -2.91015625 14.6984375 -2.91015625 16.3984375 C3.68984375 16.7284375 10.28984375 17.0584375 17.08984375 17.3984375 C16.08984375 23.3984375 16.08984375 23.3984375 14.08984375 26.3984375 C11.15386836 26.78228259 8.40957002 27.0022805 5.46484375 27.0859375 C4.66304687 27.12009766 3.86125 27.15425781 3.03515625 27.18945312 C1.05388057 27.27200628 -0.92811662 27.33689666 -2.91015625 27.3984375 C-2.91015625 29.0484375 -2.91015625 30.6984375 -2.91015625 32.3984375 C4.01984375 32.7284375 10.94984375 33.0584375 18.08984375 33.3984375 C18.74984375 34.7184375 19.40984375 36.0384375 20.08984375 37.3984375 C19.21484375 39.6484375 19.21484375 39.6484375 18.08984375 41.3984375 C18.08984375 39.4184375 18.08984375 37.4384375 18.08984375 35.3984375 C10.49984375 35.3984375 2.90984375 35.3984375 -4.91015625 35.3984375 C-4.91015625 31.7684375 -4.91015625 28.1384375 -4.91015625 24.3984375 C-3.70617187 24.36105469 -2.5021875 24.32367188 -1.26171875 24.28515625 C0.31383386 24.21950822 1.88935329 24.15306049 3.46484375 24.0859375 C4.25890625 24.06337891 5.05296875 24.04082031 5.87109375 24.01757812 C7.95199956 23.92058675 10.02425707 23.66848925 12.08984375 23.3984375 C12.74984375 22.4084375 13.40984375 21.4184375 14.08984375 20.3984375 C7.81984375 20.0684375 1.54984375 19.7384375 -4.91015625 19.3984375 C-5.91015625 13.3984375 -5.91015625 13.3984375 -3.91015625 9.3984375 C2.68984375 9.3984375 9.28984375 9.3984375 16.08984375 9.3984375 C16.41984375 7.0884375 16.74984375 4.7784375 17.08984375 2.3984375 C13.69402859 2.3692831 10.29824589 2.35158682 6.90234375 2.3359375 C5.94263672 2.32755859 4.98292969 2.31917969 3.99414062 2.31054688 C3.06279297 2.30732422 2.13144531 2.30410156 1.171875 2.30078125 C0.31827393 2.29554443 -0.53532715 2.29030762 -1.41479492 2.28491211 C-4.00262372 2.40264427 -6.38677578 2.82736706 -8.91015625 3.3984375 C-6.30059284 -0.00622285 -4.16098385 0.01327268 0 0 Z " fill="#E0AC3E" transform="translate(208.91015625,221.6015625)"/>
<path d="M0 0 C0.91644287 0.00523682 1.83288574 0.01047363 2.77709961 0.01586914 C3.76645508 0.0190918 4.75581055 0.02231445 5.77514648 0.02563477 C6.81606445 0.03401367 7.85698242 0.04239258 8.92944336 0.05102539 C10.49662109 0.05779297 10.49662109 0.05779297 12.09545898 0.06469727 C14.68600996 0.07652627 17.27644895 0.0930085 19.86694336 0.11352539 C20.52694336 1.76352539 21.18694336 3.41352539 21.86694336 5.11352539 C20.44506836 7.09790039 20.44506836 7.09790039 17.86694336 9.11352539 C14.77238163 9.61979928 11.74221161 9.49048941 8.61694336 9.36352539 C7.77647461 9.34547852 6.93600586 9.32743164 6.07006836 9.30883789 C4.00186941 9.26183337 1.93425895 9.19009263 -0.13305664 9.11352539 C-0.46305664 10.76352539 -0.79305664 12.41352539 -1.13305664 14.11352539 C5.79694336 14.44352539 12.72694336 14.77352539 19.86694336 15.11352539 C19.53694336 16.43352539 19.20694336 17.75352539 18.86694336 19.11352539 C18.86694336 18.12352539 18.86694336 17.13352539 18.86694336 16.11352539 C8.47194336 16.60852539 8.47194336 16.60852539 -2.13305664 17.11352539 C-3.51430682 14.35102504 -3.3238497 12.1662144 -3.13305664 9.11352539 C-2.47305664 8.45352539 -1.81305664 7.79352539 -1.13305664 7.11352539 C-1.79305664 5.13352539 -2.45305664 3.15352539 -3.13305664 1.11352539 C-2.13305664 0.11352539 -2.13305664 0.11352539 0 0 Z " fill="#FAC02B" transform="translate(128.133056640625,223.886474609375)"/>
<path d="M0 0 C1.2065625 0.0309375 1.2065625 0.0309375 2.4375 0.0625 C2.7675 1.7125 3.0975 3.3625 3.4375 5.0625 C4.0975 5.0625 4.7575 5.0625 5.4375 5.0625 C5.4375 5.7225 5.4375 6.3825 5.4375 7.0625 C6.0975 7.0625 6.7575 7.0625 7.4375 7.0625 C6.4375 9.0625 6.4375 9.0625 4.4375 10.0625 C4.4375 11.0525 4.4375 12.0425 4.4375 13.0625 C3.7775 13.0625 3.1175 13.0625 2.4375 13.0625 C2.52128906 13.6709375 2.60507813 14.279375 2.69140625 14.90625 C3.67768477 23.39573596 3.12928369 31.58016765 2.4375 40.0625 C0.4575 40.0625 -1.5225 40.0625 -3.5625 40.0625 C-3.58714775 34.52661467 -3.60533496 28.990761 -3.61743164 23.45483398 C-3.62247244 21.5700627 -3.62930498 19.68529535 -3.63793945 17.80053711 C-3.65001617 15.09748364 -3.65573068 12.39448169 -3.66015625 9.69140625 C-3.66531754 8.84349014 -3.67047882 7.99557404 -3.67579651 7.1219635 C-3.67599195 5.10178932 -3.62456211 3.08172066 -3.5625 1.0625 C-2.5625 0.0625 -2.5625 0.0625 0 0 Z " fill="#F9BF28" transform="translate(238.5625,222.9375)"/>
<path d="M0 0 C1.39120471 0.00015906 2.78241534 0.00585033 4.17358398 0.01586914 C4.90463852 0.01728409 5.63569305 0.01869904 6.38890076 0.02015686 C8.73253406 0.02577131 11.07607313 0.03832617 13.41967773 0.05102539 C15.00496282 0.05603853 16.59024939 0.06060176 18.17553711 0.06469727 C22.06945383 0.07574542 25.96329979 0.09301967 29.85717773 0.11352539 C29.52717773 1.10352539 29.19717773 2.09352539 28.85717773 3.11352539 C28.19717773 3.11352539 27.53717773 3.11352539 26.85717773 3.11352539 C26.52717773 4.76352539 26.19717773 6.41352539 25.85717773 8.11352539 C24.86717773 8.44352539 23.87717773 8.77352539 22.85717773 9.11352539 C21.17179172 11.11017853 21.17179172 11.11017853 19.85717773 13.11352539 C18.53717773 12.78352539 17.21717773 12.45352539 15.85717773 12.11352539 C16.18717773 10.46352539 16.51717773 8.81352539 16.85717773 7.11352539 C15.08600586 7.21793945 15.08600586 7.21793945 13.27905273 7.32446289 C11.72181801 7.38074848 10.16452169 7.43534779 8.60717773 7.48852539 C7.4412207 7.56393555 7.4412207 7.56393555 6.25170898 7.64086914 C3.97169478 7.69933104 2.06853738 7.68264181 -0.14282227 7.11352539 C-2.68969727 4.09008789 -2.68969727 4.09008789 -4.14282227 1.11352539 C-3.14282227 0.11352539 -3.14282227 0.11352539 0 0 Z " fill="#FCC12A" transform="translate(285.142822265625,222.886474609375)"/>
<path d="M0 0 C3.5625 0.1875 3.5625 0.1875 5.5625 2.1875 C5.75026167 5.18885613 5.81800182 8.09637146 5.79296875 11.09765625 C5.79228142 12.42161659 5.79228142 12.42161659 5.7915802 13.77232361 C5.78855687 15.63932641 5.78066817 17.50632667 5.76831055 19.37329102 C5.75005226 22.24178939 5.74780084 25.10996521 5.74804688 27.97851562 C5.74313188 29.78906531 5.73730364 31.59961279 5.73046875 33.41015625 C5.72935593 34.27367203 5.7282431 35.13718781 5.72709656 36.02687073 C5.67854615 42.07145385 5.67854615 42.07145385 4.5625 43.1875 C1.33984375 43.59375 1.33984375 43.59375 -2.4375 43.1875 C-4.62297075 41.35586737 -6.13849239 39.86549259 -7.875 37.6875 C-8.32037109 37.16285156 -8.76574219 36.63820313 -9.22460938 36.09765625 C-10.313752 34.80942304 -11.37822585 33.50040317 -12.4375 32.1875 C-11.7775 31.8575 -11.1175 31.5275 -10.4375 31.1875 C-9.7775 31.5175 -9.1175 31.8475 -8.4375 32.1875 C-8.4375 32.8475 -8.4375 33.5075 -8.4375 34.1875 C-7.7775 34.1875 -7.1175 34.1875 -6.4375 34.1875 C-5.5403125 35.6415625 -5.5403125 35.6415625 -4.625 37.125 C-2.55861457 40.75602606 -2.55861457 40.75602606 2.5625 41.1875 C2.5625 28.3175 2.5625 15.4475 2.5625 2.1875 C1.2425 2.1875 -0.0775 2.1875 -1.4375 2.1875 C-1.4375 7.4675 -1.4375 12.7475 -1.4375 18.1875 C-2.0975 18.1875 -2.7575 18.1875 -3.4375 18.1875 C-3.7675 19.1775 -4.0975 20.1675 -4.4375 21.1875 C-4.46638146 17.87501813 -4.48425799 14.56256833 -4.5 11.25 C-4.50837891 10.30447266 -4.51675781 9.35894531 -4.52539062 8.38476562 C-4.52861328 7.48564453 -4.53183594 6.58652344 -4.53515625 5.66015625 C-4.54039307 4.82750244 -4.54562988 3.99484863 -4.55102539 3.13696289 C-4.35112956 -0.29565695 -3.54951898 0.19361013 0 0 Z " fill="#DD9D28" transform="translate(267.4375,221.8125)"/>
<path d="M0 0 C2 1 2 1 3 3 C2.39421747 5.01927511 1.73080266 7.02253397 1 9 C0.34 9 -0.32 9 -1 9 C-1.99 11.97 -2.98 14.94 -4 18 C2.6 18 9.2 18 16 18 C16 19.32 16 20.64 16 22 C7.75 22 -0.5 22 -9 22 C-9 21.34 -9 20.68 -9 20 C-9.66 19.67 -10.32 19.34 -11 19 C-10.29039046 17.07391695 -9.57768138 15.14890689 -8.84765625 13.23046875 C-8.09214886 11.24247466 -7.35713114 9.24672129 -6.625 7.25 C-4.87704268 3.75408536 -3.20740267 2.16716397 0 0 Z " fill="#FBC228" transform="translate(297,240)"/>
<path d="M0 0 C1.32 0 2.64 0 4 0 C4 0.99 4 1.98 4 3 C3.34 3 2.68 3 2 3 C1.67 16.53 1.34 30.06 1 44 C2.98 44 4.96 44 7 44 C7 31.13 7 18.26 7 5 C7.66 5 8.32 5 9 5 C9 18.2 9 31.4 9 45 C4 47 4 47 1.1875 46.125 C0.465625 45.75375 -0.25625 45.3825 -1 45 C-1.02527124 38.75204325 -1.04283344 32.50409959 -1.05493164 26.25610352 C-1.05997298 24.12881986 -1.06680591 22.00153969 -1.07543945 19.87426758 C-1.08751379 16.82372174 -1.09323014 13.77322155 -1.09765625 10.72265625 C-1.10281754 9.76537125 -1.10797882 8.80808624 -1.11329651 7.8217926 C-1.11337204 6.94095505 -1.11344757 6.06011749 -1.11352539 5.15258789 C-1.115746 4.37315323 -1.11796661 3.59371857 -1.12025452 2.79066467 C-1 1 -1 1 0 0 Z " fill="#9E92D8" transform="translate(416,220)"/>
<path d="M0 0 C1.34362885 0.00031689 2.68728332 0.01162897 4.03076172 0.03173828 C4.73820526 0.03456818 5.4456488 0.03739807 6.17453003 0.04031372 C8.43667432 0.05151941 10.69842437 0.07662399 12.96044922 0.10205078 C14.49299559 0.11208011 16.02554816 0.12120604 17.55810547 0.12939453 C21.31737223 0.15145992 25.07634386 0.18599183 28.83544922 0.22705078 C29.83544922 3.22705078 29.83544922 3.22705078 28.83544922 6.22705078 C26.77294922 6.91455078 26.77294922 6.91455078 24.83544922 7.22705078 C24.34044922 5.74205078 24.34044922 5.74205078 23.83544922 4.22705078 C23.17544922 4.55705078 22.51544922 4.88705078 21.83544922 5.22705078 C20.2863474 5.26412361 18.73553292 5.24041071 17.18701172 5.18408203 C16.26404297 5.1628125 15.34107422 5.14154297 14.39013672 5.11962891 C12.44446178 5.06644712 10.49907261 5.00143168 8.55419922 4.92431641 C3.020038 4.65760444 3.020038 4.65760444 -1.64111328 7.23876953 C-2.14384766 7.89490234 -2.64658203 8.55103516 -3.16455078 9.22705078 C-4.15455078 9.22705078 -5.14455078 9.22705078 -6.16455078 9.22705078 C-6.82455078 12.19705078 -7.48455078 15.16705078 -8.16455078 18.22705078 C-8.49455078 18.22705078 -8.82455078 18.22705078 -9.16455078 18.22705078 C-9.28955078 11.60205078 -9.28955078 11.60205078 -8.16455078 8.22705078 C-8.82455078 7.89705078 -9.48455078 7.56705078 -10.16455078 7.22705078 C-3.16455078 0.22705078 -3.16455078 0.22705078 0 0 Z " fill="#E2AA36" transform="translate(84.16455078125,221.77294921875)"/>
<path d="M0 0 C1.03387225 3.1981115 1.11048522 3.75894134 -0.375 7 C-0.91125 7.99 -1.4475 8.98 -2 10 C-3.07230599 13.12755914 -3.09009076 13.72972773 -2 17 C6.25 17 14.5 17 23 17 C23 15.68 23 14.36 23 13 C16.4 13 9.8 13 3 13 C3 11.35 3 9.7 3 8 C3.99 7.34 4.98 6.68 6 6 C5.67 7.65 5.34 9.3 5 11 C11.6 11.33 18.2 11.66 25 12 C24.67 13.98 24.34 15.96 24 18 C20.57030588 19.02714089 17.34402657 19.18269314 13.7734375 19.28125 C11.9790625 19.33732422 11.9790625 19.33732422 10.1484375 19.39453125 C7.62500609 19.46506194 5.10156853 19.5353731 2.578125 19.60546875 C1.38445312 19.64285156 0.19078125 19.68023437 -1.0390625 19.71875 C-2.13428223 19.74904297 -3.22950195 19.77933594 -4.35791016 19.81054688 C-6.97685281 19.82921935 -6.97685281 19.82921935 -9 21 C-9.99 20.01 -10.98 19.02 -12 18 C-8.15717678 11.87584657 -4.27631922 5.83134439 0 0 Z " fill="#EEB730" transform="translate(290,245)"/>
<path d="M0 0 C1.73540039 0.01450195 1.73540039 0.01450195 3.50585938 0.02929688 C4.70404297 0.05443359 5.90222656 0.07957031 7.13671875 0.10546875 C8.96299805 0.12577148 8.96299805 0.12577148 10.82617188 0.14648438 C13.8259722 0.18177614 16.8248685 0.23108394 19.82421875 0.29296875 C20.31921875 1.77796875 20.31921875 1.77796875 20.82421875 3.29296875 C19.83421875 4.28296875 18.84421875 5.27296875 17.82421875 6.29296875 C17.49421875 4.97296875 17.16421875 3.65296875 16.82421875 2.29296875 C9.56421875 2.62296875 2.30421875 2.95296875 -5.17578125 3.29296875 C-5.50578125 3.95296875 -5.83578125 4.61296875 -6.17578125 5.29296875 C-7.49578125 5.29296875 -8.81578125 5.29296875 -10.17578125 5.29296875 C-10.17578125 8.92296875 -10.17578125 12.55296875 -10.17578125 16.29296875 C-10.83578125 16.29296875 -11.49578125 16.29296875 -12.17578125 16.29296875 C-12.06068464 17.71047438 -11.93324467 19.12698044 -11.80078125 20.54296875 C-11.73117188 21.331875 -11.6615625 22.12078125 -11.58984375 22.93359375 C-11.30408842 25.30565232 -11.30408842 25.30565232 -10.11328125 27.23046875 C-8.84376226 30.02341054 -9.19105125 32.02123673 -9.55078125 35.04296875 C-9.66164063 36.0278125 -9.7725 37.01265625 -9.88671875 38.02734375 C-9.98210937 38.775 -10.0775 39.52265625 -10.17578125 40.29296875 C-13.05529016 37.66385192 -14.08430998 35.73502714 -14.33691406 31.75268555 C-14.3823518 28.49516967 -14.41104838 25.23827502 -14.42578125 21.98046875 C-14.44640625 20.85189453 -14.46703125 19.72332031 -14.48828125 18.56054688 C-14.53906705 7.77491265 -14.53906705 7.77491265 -11.17578125 3.29296875 C-7.3522121 0.49122633 -4.7026956 -0.06949796 0 0 Z " fill="#E8B041" transform="translate(131.17578125,221.70703125)"/>
<path d="M0 0 C0 0.33 0 0.66 0 1 C-1.65 1.33 -3.3 1.66 -5 2 C-4.99476318 2.75506836 -4.98952637 3.51013672 -4.98413086 4.28808594 C-4.96308775 7.77538184 -4.9502541 11.26266431 -4.9375 14.75 C-4.92912109 15.93722656 -4.92074219 17.12445313 -4.91210938 18.34765625 C-4.89132968 25.95302522 -5.22855624 33.43341525 -6 41 C-4.02 41 -2.04 41 0 41 C-0.01160156 39.92621094 -0.02320313 38.85242188 -0.03515625 37.74609375 C-0.04454315 36.30989759 -0.05364238 34.87369952 -0.0625 33.4375 C-0.07087891 32.73302734 -0.07925781 32.02855469 -0.08789062 31.30273438 C-0.10882603 26.75975202 0.25199318 22.48215108 1 18 C2.875 18.3125 2.875 18.3125 5 19 C5.66 19.99 6.32 20.98 7 22 C5.68 21.34 4.36 20.68 3 20 C2.97494385 20.62567871 2.9498877 21.25135742 2.92407227 21.89599609 C2.80824727 24.72254619 2.68546015 27.54875169 2.5625 30.375 C2.50352539 31.85226563 2.50352539 31.85226563 2.44335938 33.359375 C2.40146484 34.30039062 2.35957031 35.24140625 2.31640625 36.2109375 C2.26141968 37.51490479 2.26141968 37.51490479 2.20532227 38.84521484 C2 41 2 41 1 43 C-5.15234375 43.09765625 -5.15234375 43.09765625 -7 43 C-8 42 -8 42 -8.11352539 38.12280273 C-8.11336621 36.39305833 -8.10766849 34.66330919 -8.09765625 32.93359375 C-8.0962413 32.02497086 -8.09482635 31.11634796 -8.09336853 30.18019104 C-8.08775193 27.26592779 -8.07519665 24.35174019 -8.0625 21.4375 C-8.05748714 19.46679798 -8.05292386 17.49609476 -8.04882812 15.52539062 C-8.03777711 10.68356441 -8.02050138 5.84179505 -8 1 C-5.29120665 -0.35439668 -2.99066732 -0.06501451 0 0 Z " fill="#D9AA45" transform="translate(241,222)"/>
<path d="M0 0 C0.66 0.99 1.32 1.98 2 3 C0.948125 2.938125 -0.10375 2.87625 -1.1875 2.8125 C-5.28220457 3.01387891 -7.02140684 3.1966182 -10 6 C-10.72745737 8.73200658 -10.85964768 11.14616944 -11 14 C-5.72 14.33 -0.44 14.66 5 15 C4.855625 13.576875 4.71125 12.15375 4.5625 10.6875 C4.48128906 9.88699219 4.40007812 9.08648437 4.31640625 8.26171875 C4.04734307 5.83912821 4.04734307 5.83912821 3 3 C6.875 4.875 6.875 4.875 8 6 C8.07226502 7.85287502 8.0838122 9.70833878 8.0625 11.5625 C8.05347656 12.57441406 8.04445313 13.58632812 8.03515625 14.62890625 C8.02355469 15.41136719 8.01195312 16.19382813 8 17 C3.375 19.125 3.375 19.125 0 18 C-3.11155923 18.20914458 -6.18818927 18.57727801 -9.28515625 18.94140625 C-10.62900391 18.97041016 -10.62900391 18.97041016 -12 19 C-14.57399511 16.42600489 -14.32659936 15.26430716 -14.375 11.6875 C-14.30968851 7.85421794 -14.14852209 6.25607257 -12.1875 2.875 C-8.38425386 -0.38492526 -4.85839956 -0.35333815 0 0 Z " fill="#A492E3" transform="translate(392,229)"/>
<path d="M0 0 C2.93804996 -0.08086376 5.87388075 -0.1404283 8.8125 -0.1875 C9.64587891 -0.21263672 10.47925781 -0.23777344 11.33789062 -0.26367188 C12.54155273 -0.27817383 12.54155273 -0.27817383 13.76953125 -0.29296875 C14.87711792 -0.31653442 14.87711792 -0.31653442 16.00708008 -0.34057617 C18.59888054 0.10234453 19.48742178 0.87036517 21 3 C20.6875 6.6875 20.6875 6.6875 20 10 C16.94080612 11.01973129 14.87581975 11.11533602 11.67578125 11.09765625 C10.64775391 11.09443359 9.61972656 11.09121094 8.56054688 11.08789062 C7.48869141 11.07951172 6.41683594 11.07113281 5.3125 11.0625 C4.22904297 11.05798828 3.14558594 11.05347656 2.02929688 11.04882812 C-0.64719085 11.03703743 -3.32356777 11.02058063 -6 11 C-6.33 11.99 -6.66 12.98 -7 14 C-7.99 14 -8.98 14 -10 14 C-10 15.32 -10 16.64 -10 18 C-10.66 18 -11.32 18 -12 18 C-11.4854467 13.49765867 -10.45691311 10.98551587 -7 8 C-2.76082211 7.21377587 1.44745134 7.20903667 5.75 7.1875 C7.51150391 7.14979492 7.51150391 7.14979492 9.30859375 7.11132812 C12.20606565 7.05243642 15.10202605 7.01617031 18 7 C17.67 5.68 17.34 4.36 17 3 C11.06 2.67 5.12 2.34 -1 2 C-0.67 1.34 -0.34 0.68 0 0 Z " fill="#E4A93A" transform="translate(85,247)"/>
<path d="M0 0 C-0.50603992 2.16874252 -0.99983813 3.99967627 -2 6 C-8.6 6.33 -15.2 6.66 -22 7 C-22.33 8.32 -22.66 9.64 -23 11 C-24.32 11 -25.64 11 -27 11 C-28.25 4.375 -28.25 4.375 -26 1 C-24.03222656 0.56762695 -24.03222656 0.56762695 -21.640625 0.48828125 C-20.77179688 0.45283203 -19.90296875 0.41738281 -19.0078125 0.38085938 C-18.09773437 0.35830078 -17.18765625 0.33574219 -16.25 0.3125 C-15.35539063 0.27833984 -14.46078125 0.24417969 -13.5390625 0.20898438 C-9.02504598 0.04586726 -4.51730737 -0.03739493 0 0 Z " fill="#FABF27" transform="translate(227,225)"/>
<path d="M0 0 C0.99 0.66 1.98 1.32 3 2 C2.34 2 1.68 2 1 2 C0.67 2.99 0.34 3.98 0 5 C-7.59 5.33 -15.18 5.66 -23 6 C-23.66 8.31 -24.32 10.62 -25 13 C-25.99 13 -26.98 13 -28 13 C-28.33 10.69 -28.66 8.38 -29 6 C-28.34 6 -27.68 6 -27 6 C-26.67 5.01 -26.34 4.02 -26 3 C-22.69384127 0.79589418 -21.75887584 0.76817078 -17.9296875 0.83984375 C-16.95128906 0.85080078 -15.97289063 0.86175781 -14.96484375 0.87304688 C-13.94519531 0.89431641 -12.92554687 0.91558594 -11.875 0.9375 C-9.85163113 0.97177287 -7.82818728 1.00194976 -5.8046875 1.02734375 C-4.45866455 1.05429321 -4.45866455 1.05429321 -3.08544922 1.08178711 C-1.01044027 1.23672481 -1.01044027 1.23672481 0 0 Z " fill="#FDC029" transform="translate(108,225)"/>
<path d="M0 0 C3.5635178 3.44856561 5.1513739 5.26357124 5.3125 10.25 C5.25272495 14.89750989 4.1258769 17.4517073 1 21 C-2.83463691 23.79421548 -5.4639263 24.36260207 -10.17578125 24.29296875 C-11.91118164 24.2784668 -11.91118164 24.2784668 -13.68164062 24.26367188 C-15.47891602 24.2259668 -15.47891602 24.2259668 -17.3125 24.1875 C-19.1387793 24.16719727 -19.1387793 24.16719727 -21.00195312 24.14648438 C-24.00175345 24.11119261 -27.00064975 24.06188481 -30 24 C-30 23.34 -30 22.68 -30 22 C-29.31373535 21.98018066 -28.6274707 21.96036133 -27.92041016 21.93994141 C-24.82154221 21.84489055 -21.72336706 21.73513153 -18.625 21.625 C-17.54476562 21.5940625 -16.46453125 21.563125 -15.3515625 21.53125 C-14.3203125 21.49257813 -13.2890625 21.45390625 -12.2265625 21.4140625 C-11.27346191 21.3826416 -10.32036133 21.3512207 -9.33837891 21.31884766 C-6.81104824 21.21444204 -6.81104824 21.21444204 -5 19 C-4.01 19 -3.02 19 -2 19 C-1.67 18.01 -1.34 17.02 -1 16 C-0.01 16 0.98 16 2 16 C2.32089648 10.65172536 1.45522189 7.69694622 -1 3 C-0.67 2.01 -0.34 1.02 0 0 Z " fill="#DEA84B" transform="translate(108,241)"/>
<path d="M0 0 C1.13308594 -0.02449219 2.26617187 -0.04898438 3.43359375 -0.07421875 C9.82138204 -0.09668459 13.90651721 0.02960586 18.75 4.375 C17.76 4.705 16.77 5.035 15.75 5.375 C15.75 4.715 15.75 4.055 15.75 3.375 C14.1 3.375 12.45 3.375 10.75 3.375 C10.75 2.715 10.75 2.055 10.75 1.375 C-0.14 1.87 -0.14 1.87 -11.25 2.375 C-11.58 15.575 -11.91 28.775 -12.25 42.375 C-4 42.375 4.25 42.375 12.75 42.375 C12.75 42.705 12.75 43.035 12.75 43.375 C4.17 43.375 -4.41 43.375 -13.25 43.375 C-13.43848833 37.57261589 -13.62081318 31.77073725 -13.78710938 25.96777344 C-13.84560041 23.99272602 -13.90776216 22.01778382 -13.97363281 20.04296875 C-14.067545 17.20852819 -14.14835955 14.37397447 -14.2265625 11.5390625 C-14.25875885 10.65256012 -14.2909552 9.76605774 -14.3241272 8.85269165 C-14.37718594 6.69397169 -14.32314362 4.53313279 -14.25 2.375 C-10.62876702 -1.24623298 -4.89543142 0.00549431 0 0 Z " fill="#D7A961" transform="translate(168.25,221.625)"/>
<path d="M0 0 C3.57647878 0.70460519 4.78089546 1.59975815 6.875 4.56640625 C7.265625 7.36328125 7.265625 7.36328125 7.125 10.31640625 C7.08890625 11.30125 7.0528125 12.28609375 7.015625 13.30078125 C6.94601562 14.42226562 6.94601562 14.42226562 6.875 15.56640625 C3.65791819 17.17494716 0.33255455 16.15684629 -3.125 15.69140625 C-3.86234375 15.59988281 -4.5996875 15.50835937 -5.359375 15.4140625 C-10.85329433 14.70225908 -10.85329433 14.70225908 -13.125 13.56640625 C-13.41404211 9.30303511 -13.52324436 6.52219272 -11.875 2.56640625 C-7.98632738 -0.26171929 -4.70685108 0.00588356 0 0 Z M-10.125 4.56640625 C-11.64674919 7.23722664 -11.64674919 7.23722664 -11.125 13.56640625 C-6.175 13.56640625 -1.225 13.56640625 3.875 13.56640625 C4.37443407 7.18277131 4.37443407 7.18277131 2.75 4.19140625 C-1.6922815 0.34142895 -5.7280939 1.17450726 -10.125 4.56640625 Z " fill="#D6AB42" transform="translate(342.125,230.43359375)"/>
<path d="M0 0 C0.66 0.33 1.32 0.66 2 1 C-0.97 5.95 -0.97 5.95 -4 11 C-2.71222656 10.98839844 -1.42445313 10.97679687 -0.09765625 10.96484375 C1.58072772 10.9554673 3.25911326 10.94636695 4.9375 10.9375 C6.21270508 10.92493164 6.21270508 10.92493164 7.51367188 10.91210938 C8.32255859 10.90888672 9.13144531 10.90566406 9.96484375 10.90234375 C10.7137085 10.89710693 11.46257324 10.89187012 12.23413086 10.88647461 C14 11 14 11 15 12 C15.1875 15.4375 15.1875 15.4375 15 19 C13 21 13 21 9.92724609 21.22705078 C8.63898926 21.21657715 7.35073242 21.20610352 6.0234375 21.1953125 C5.33819 21.1924826 4.6529425 21.18965271 3.94692993 21.18673706 C1.75610973 21.17553281 -0.43430316 21.15042859 -2.625 21.125 C-4.1093691 21.11497048 -5.5937446 21.10584458 -7.078125 21.09765625 C-10.71888261 21.07559294 -14.35940156 21.04106176 -18 21 C-18 20.67 -18 20.34 -18 20 C-2.655 19.505 -2.655 19.505 13 19 C13.33 17.02 13.66 15.04 14 13 C12.80761719 13.01160156 11.61523438 13.02320313 10.38671875 13.03515625 C8.82031406 13.04453592 7.25390769 13.05363593 5.6875 13.0625 C4.50897461 13.07506836 4.50897461 13.07506836 3.30664062 13.08789062 C2.54931641 13.09111328 1.79199219 13.09433594 1.01171875 13.09765625 C-0.03302612 13.10551147 -0.03302612 13.10551147 -1.09887695 13.11352539 C-3 13 -3 13 -6 12 C-5.67 9.69 -5.34 7.38 -5 5 C-4.34 5 -3.68 5 -3 5 C-2.690625 4.360625 -2.38125 3.72125 -2.0625 3.0625 C-1 1 -1 1 0 0 Z " fill="#D6A94C" transform="translate(301,244)"/>
<path d="M0 0 C1.65 0 3.3 0 5 0 C5.33 0.66 5.66 1.32 6 2 C4.68 2 3.36 2 2 2 C2 3.98 2 5.96 2 8 C6.62 7.67 11.24 7.34 16 7 C16 5.68 16 4.36 16 3 C11.545 2.01 11.545 2.01 7 1 C7 0.67 7 0.34 7 0 C8.60407328 -0.02708567 10.2082785 -0.04643483 11.8125 -0.0625 C12.70582031 -0.07410156 13.59914062 -0.08570313 14.51953125 -0.09765625 C17 0 17 0 20 1 C21.03039555 5.53374042 21.17766075 6.64467851 19 11 C12.73 10.67 6.46 10.34 0 10 C0 6.7 0 3.4 0 0 Z " fill="#E6B54E" transform="translate(163,247)"/>
<path d="M0 0 C12.21 0 24.42 0 37 0 C36.15071984 4.24640078 35.67656891 5.92519063 33.4375 9.3125 C32.98246094 10.00988281 32.52742188 10.70726562 32.05859375 11.42578125 C31.70925781 11.94527344 31.35992187 12.46476563 31 13 C30.67 11.68 30.34 10.36 30 9 C30.66 8.67 31.32 8.34 32 8 C32.144375 7.38125 32.28875 6.7625 32.4375 6.125 C33 4 33 4 36 1 C19.665 1.495 19.665 1.495 3 2 C3.66 3.98 4.32 5.96 5 8 C10.94 8.99 10.94 8.99 17 10 C17 10.33 17 10.66 17 11 C14.91846065 11.13536022 12.83438794 11.23215465 10.75 11.3125 C9.58984375 11.37050781 8.4296875 11.42851562 7.234375 11.48828125 C4 11 4 11 1.62890625 8.6171875 C0.17487858 6.28097997 -0.71901021 4.71623462 -1 2 C-0.67 1.34 -0.34 0.68 0 0 Z " fill="#DBAE55" transform="translate(279,222)"/>
<path d="M0 0 C1.32 0 2.64 0 4 0 C4 0.66 4 1.32 4 2 C5.65 2.33 7.3 2.66 9 3 C9.7282448 7.99367864 10.38487182 12.99109914 11 18 C9.68 17.67 8.36 17.34 7 17 C7 13.7 7 10.4 7 7 C4.03 7 1.06 7 -2 7 C-2.33 7.66 -2.66 8.32 -3 9 C-3 6.69 -3 4.38 -3 2 C-2.01 2 -1.02 2 0 2 C0 1.34 0 0.68 0 0 Z " fill="#B7A4F0" transform="translate(390,248)"/>
<path d="M0 0 C0 0.99 0 1.98 0 3 C-3.84258664 5.56172443 -6.93769313 5.18617494 -11.375 5.0625 C-18.23961902 4.88841231 -18.23961902 4.88841231 -25 6 C-25.33 7.65 -25.66 9.3 -26 11 C-26.66 10.67 -27.32 10.34 -28 10 C-28.125 7.125 -28.125 7.125 -28 4 C-25.45223801 1.45223801 -24.41636646 1.71599154 -20.87890625 1.62109375 C-19.86119141 1.58693359 -18.84347656 1.55277344 -17.79492188 1.51757812 C-16.72822266 1.49115234 -15.66152344 1.46472656 -14.5625 1.4375 C-12.45952177 1.37756066 -10.35664475 1.31392402 -8.25390625 1.24609375 C-6.85120483 1.21020142 -6.85120483 1.21020142 -5.42016602 1.17358398 C-2.85794902 1.09017661 -2.85794902 1.09017661 0 0 Z " fill="#E8AC27" transform="translate(111,228)"/>
<path d="M0 0 C3 2 3 2 3.546875 4.09375 C3.61390625 4.8878125 3.6809375 5.681875 3.75 6.5 C3.86601562 7.69109375 3.86601562 7.69109375 3.984375 8.90625 C4 11 4 11 3 13 C2.75212983 17.14503661 2.75212983 17.14503661 4 21 C4.50852273 28.88210227 4.50852273 28.88210227 1 33 C0.93941406 32.13117188 0.87882813 31.26234375 0.81640625 30.3671875 C0.73261719 29.21476562 0.64882812 28.06234375 0.5625 26.875 C0.48128906 25.73804688 0.40007812 24.60109375 0.31640625 23.4296875 C0.04839585 20.01924877 0.04839585 20.01924877 -0.56640625 16.7578125 C-1.06475569 13.58813046 -0.52498752 11.14992514 0 8 C-0.30830925 5.99598989 -0.63729412 3.99488234 -1 2 C-0.67 1.34 -0.34 0.68 0 0 Z " fill="#DDAC3D" transform="translate(187,227)"/>
<path d="M0 0 C4 4.75 4 4.75 4 7 C12.91 7.66 21.82 8.32 31 9 C30.67 9.66 30.34 10.32 30 11 C26.27098186 11.08736736 22.54222835 11.14051482 18.8125 11.1875 C17.22985352 11.22520508 17.22985352 11.22520508 15.61523438 11.26367188 C14.08286133 11.27817383 14.08286133 11.27817383 12.51953125 11.29296875 C11.58214111 11.3086792 10.64475098 11.32438965 9.67895508 11.34057617 C6.44212712 10.92907749 4.6203905 9.9183649 2 8 C-0.1519437 4.77208445 -0.20086443 3.71599191 0 0 Z " fill="#E0AF40" transform="translate(196,254)"/>
<path d="M0 0 C0.80566406 0.00322266 1.61132812 0.00644531 2.44140625 0.00976562 C3.70404297 0.02233398 3.70404297 0.02233398 4.9921875 0.03515625 C5.84167969 0.03966797 6.69117188 0.04417969 7.56640625 0.04882812 C9.66669659 0.06062751 11.7669508 0.07856319 13.8671875 0.09765625 C13.8671875 0.42765625 13.8671875 0.75765625 13.8671875 1.09765625 C7.9271875 1.42765625 1.9871875 1.75765625 -4.1328125 2.09765625 C-3.8028125 3.74765625 -3.4728125 5.39765625 -3.1328125 7.09765625 C-2.50189697 7.1227124 -1.87098145 7.14776855 -1.22094727 7.17358398 C1.62115575 7.28919762 4.46289833 7.41207941 7.3046875 7.53515625 C8.79452148 7.59413086 8.79452148 7.59413086 10.31445312 7.65429688 C11.25869141 7.69619141 12.20292969 7.73808594 13.17578125 7.78125 C14.48760376 7.83623657 14.48760376 7.83623657 15.82592773 7.89233398 C17.8671875 8.09765625 17.8671875 8.09765625 18.8671875 9.09765625 C18.90811687 11.43063058 18.90960473 13.7647085 18.8671875 16.09765625 C18.5371875 16.09765625 18.2071875 16.09765625 17.8671875 16.09765625 C17.8671875 14.11765625 17.8671875 12.13765625 17.8671875 10.09765625 C17.24674561 10.10812988 16.62630371 10.11860352 15.98706055 10.12939453 C13.17631073 10.17096511 10.3656256 10.19698558 7.5546875 10.22265625 C6.57822266 10.23941406 5.60175781 10.25617188 4.59570312 10.2734375 C3.65791016 10.27988281 2.72011719 10.28632813 1.75390625 10.29296875 C0.88983154 10.30344238 0.02575684 10.31391602 -0.86450195 10.32470703 C-3.1328125 10.09765625 -3.1328125 10.09765625 -6.1328125 8.09765625 C-6.3203125 4.47265625 -6.3203125 4.47265625 -6.1328125 1.09765625 C-3.8362755 -0.05061225 -2.54968083 -0.0179555 0 0 Z " fill="#E5B555" transform="translate(131.1328125,246.90234375)"/>
<path d="M0 0 C6.27 0 12.54 0 19 0 C19 0.33 19 0.66 19 1 C10.585 1.495 10.585 1.495 2 2 C2 3.65 2 5.3 2 7 C8.93 7.33 15.86 7.66 23 8 C23.66 9.32 24.32 10.64 25 12 C24.125 14.25 24.125 14.25 23 16 C23 14.02 23 12.04 23 10 C15.41 10 7.82 10 0 10 C0 6.7 0 3.4 0 0 Z " fill="#DAAE4B" transform="translate(204,247)"/>
<path d="M0 0 C0.33 0 0.66 0 1 0 C1.02464705 5.67830078 1.04283462 11.35657069 1.05493164 17.03491211 C1.05997256 18.96818585 1.06680519 20.90145576 1.07543945 22.8347168 C1.08751565 25.60726872 1.09323057 28.37977041 1.09765625 31.15234375 C1.10281754 32.02213364 1.10797882 32.89192352 1.11329651 33.78807068 C1.11349185 35.85905814 1.06208168 37.92994324 1 40 C0 41 0 41 -3.22265625 41.40625 C-7.29236415 40.96855649 -8.53226373 40.14397423 -11.16992188 37.08984375 C-11.58822266 36.56519531 -12.00652344 36.04054688 -12.4375 35.5 C-12.88287109 34.97535156 -13.32824219 34.45070313 -13.78710938 33.91015625 C-14.876252 32.62192304 -15.94072585 31.31290317 -17 30 C-16.34 29.67 -15.68 29.34 -15 29 C-14.34 29.33 -13.68 29.66 -13 30 C-13 30.66 -13 31.32 -13 32 C-12.34 32 -11.68 32 -11 32 C-10.443125 32.969375 -9.88625 33.93875 -9.3125 34.9375 C-6.9229845 38.85004955 -6.9229845 38.85004955 0 39 C0 26.13 0 13.26 0 0 Z " fill="#D2A752" transform="translate(272,224)"/>
<path d="M0 0 C2.64590014 -0.02684679 5.29153096 -0.04676357 7.9375 -0.0625 C8.69224609 -0.07087891 9.44699219 -0.07925781 10.22460938 -0.08789062 C12.14994313 -0.09652441 14.07535581 -0.05224333 16 0 C17 1 17 1 17.0625 3.5625 C17.041875 4.366875 17.02125 5.17125 17 6 C16.46890625 5.50886719 15.9378125 5.01773438 15.390625 4.51171875 C12.31984538 2.56990223 10.35078604 2.69508306 6.75 2.8125 C5.67234375 2.83957031 4.5946875 2.86664063 3.484375 2.89453125 C2.66453125 2.92933594 1.8446875 2.96414062 1 3 C1 4.98 1 6.96 1 9 C5.62 8.67 10.24 8.34 15 8 C14 10 14 10 12.265625 10.62109375 C9.71855716 11.04706889 7.33143831 11.09646629 4.75 11.0625 C2.39875 11.0315625 2.39875 11.0315625 0 11 C0 7.37 0 3.74 0 0 Z " fill="#E2B43E" transform="translate(164,230)"/>
<path d="M0 0 C0.99 0 1.98 0 3 0 C3.1946838 2.77050026 3.38102792 5.54113002 3.5625 8.3125 C3.61857422 9.09818359 3.67464844 9.88386719 3.73242188 10.69335938 C3.78076172 11.45068359 3.82910156 12.20800781 3.87890625 12.98828125 C3.9260376 13.68477783 3.97316895 14.38127441 4.02172852 15.09887695 C4 17 4 17 3 20 C2.01 20 1.02 20 0 20 C-1.09848394 16.4517225 -1.13341955 13.13789215 -1.125 9.4375 C-1.12757813 8.30183594 -1.13015625 7.16617188 -1.1328125 5.99609375 C-1 3 -1 3 0 0 Z " fill="#EBB434" transform="translate(196,228)"/>
<path d="M0 0 C0.33 0.66 0.66 1.32 1 2 C0.67 2.99 0.34 3.98 0 5 C6.6 5.33 13.2 5.66 20 6 C19.67 7.98 19.34 9.96 19 12 C9.43 12 -0.14 12 -10 12 C-10 11.67 -10 11.34 -10 11 C-0.76 11 8.48 11 18 11 C18 9.68 18 8.36 18 7 C11.4 7 4.8 7 -2 7 C-2 2 -2 2 0 0 Z " fill="#EDB125" transform="translate(295,251)"/>
<path d="M0 0 C1.02891839 2.6751878 1.07446081 3.7989558 0.0625 6.53125 C-1.30717891 11.00284879 -1.45689777 15.22417176 -1.625 19.875 C-1.66367187 20.75414062 -1.70234375 21.63328125 -1.7421875 22.5390625 C-1.83581034 24.69238793 -1.91896459 26.84616414 -2 29 C-2.33 28.01 -2.66 27.02 -3 26 C-3.66 26 -4.32 26 -5 26 C-5.33649817 8.0908198 -5.33649817 8.0908198 0 0 Z " fill="#A397D8" transform="translate(375,225)"/>
<path d="M0 0 C2.19629783 3.54143525 2.23275752 6.39667247 2.1953125 10.515625 C2.18564453 12.39121094 2.18564453 12.39121094 2.17578125 14.3046875 C2.15902344 15.60664063 2.14226562 16.90859375 2.125 18.25 C2.11597656 19.56742188 2.10695313 20.88484375 2.09765625 22.2421875 C2.07408533 25.49497462 2.04118022 28.74739589 2 32 C-1.3125 33.125 -1.3125 33.125 -5 34 C-8 32 -8 32 -8.51171875 29.6171875 C-8.56972656 28.71226562 -8.62773437 27.80734375 -8.6875 26.875 C-8.75324219 25.96492188 -8.81898438 25.05484375 -8.88671875 24.1171875 C-8.92410156 23.41851562 -8.96148437 22.71984375 -9 22 C-8.34 22 -7.68 22 -7 22 C-7 24.97 -7 27.94 -7 31 C-4.36 31 -1.72 31 1 31 C1 22.42 1 13.84 1 5 C0.34 5 -0.32 5 -1 5 C-0.67 3.35 -0.34 1.7 0 0 Z " fill="#D6A94F" transform="translate(354,232)"/>
<path d="M0 0 C1.18613892 0.00785522 1.18613892 0.00785522 2.39624023 0.01586914 C3.67724609 0.02070313 3.67724609 0.02070313 4.98413086 0.02563477 C5.88196289 0.03401367 6.77979492 0.04239258 7.70483398 0.05102539 C8.6065332 0.05553711 9.50823242 0.06004883 10.43725586 0.06469727 C12.67234712 0.07652315 14.90730835 0.09300319 17.14233398 0.11352539 C17.14233398 0.44352539 17.14233398 0.77352539 17.14233398 1.11352539 C11.53233398 1.11352539 5.92233398 1.11352539 0.14233398 1.11352539 C-0.18766602 2.76352539 -0.51766602 4.41352539 -0.85766602 6.11352539 C6.07233398 6.44352539 13.00233398 6.77352539 20.14233398 7.11352539 C19.81233398 8.43352539 19.48233398 9.75352539 19.14233398 11.11352539 C19.14233398 10.12352539 19.14233398 9.13352539 19.14233398 8.11352539 C8.74733398 8.60852539 8.74733398 8.60852539 -1.85766602 9.11352539 C-3.22390276 6.38105191 -2.98609201 4.13153637 -2.85766602 1.11352539 C-1.85766602 0.11352539 -1.85766602 0.11352539 0 0 Z " fill="#E1B250" transform="translate(127.857666015625,231.886474609375)"/>
<path d="M0 0 C1.03125 0.02255859 2.0625 0.04511719 3.125 0.06835938 C5.66814065 0.12722837 8.20833113 0.20939935 10.75 0.3125 C10.42 0.9725 10.09 1.6325 9.75 2.3125 C2.82 2.3125 -4.11 2.3125 -11.25 2.3125 C-11.25 3.6325 -11.25 4.9525 -11.25 6.3125 C-12.24 6.3125 -13.23 6.3125 -14.25 6.3125 C-14.25 7.6325 -14.25 8.9525 -14.25 10.3125 C-14.91 10.3125 -15.57 10.3125 -16.25 10.3125 C-15.055176 -0.14220998 -8.99894171 -0.37114925 0 0 Z " fill="#DAAE50" transform="translate(89.25,254.6875)"/>
<path d="M0 0 C1.134375 0.020625 2.26875 0.04125 3.4375 0.0625 C3.4375 0.3925 3.4375 0.7225 3.4375 1.0625 C1.7875 1.0625 0.1375 1.0625 -1.5625 1.0625 C-1.5625 6.6725 -1.5625 12.2825 -1.5625 18.0625 C-2.2225 18.0625 -2.8825 18.0625 -3.5625 18.0625 C-3.8925 19.0525 -4.2225 20.0425 -4.5625 21.0625 C-4.59138146 17.75001813 -4.60925799 14.43756833 -4.625 11.125 C-4.63337891 10.17947266 -4.64175781 9.23394531 -4.65039062 8.25976562 C-4.65361328 7.36064453 -4.65683594 6.46152344 -4.66015625 5.53515625 C-4.66539307 4.70250244 -4.67062988 3.86984863 -4.67602539 3.01196289 C-4.47194876 -0.49244982 -3.63458994 0.06376474 0 0 Z " fill="#DCAB46" transform="translate(267.5625,221.9375)"/>
<path d="M0 0 C1.65 0 3.3 0 5 0 C4.67 2.31 4.34 4.62 4 7 C-2.6 7.33 -9.2 7.66 -16 8 C-16 7.01 -16 6.02 -16 5 C-10.06 5 -4.12 5 2 5 C1.34 3.35 0.68 1.7 0 0 Z " fill="#EBAE29" transform="translate(142,240)"/>
<path d="M0 0 C1.98 0.66 3.96 1.32 6 2 C2.375 5 2.375 5 -1 5 C-1.19335938 5.68707031 -1.38671875 6.37414062 -1.5859375 7.08203125 C-1.84632812 7.98308594 -2.10671875 8.88414062 -2.375 9.8125 C-2.63023438 10.70582031 -2.88546875 11.59914062 -3.1484375 12.51953125 C-4 15 -4 15 -6 18 C-6.125 11.375 -6.125 11.375 -5 8 C-5.66 7.67 -6.32 7.34 -7 7 C-4.66666667 4.66666667 -2.33333333 2.33333333 0 0 Z " fill="#AB8435" transform="translate(81,222)"/>
<path d="M0 0 C6.27 0 12.54 0 19 0 C18.34 1.65 17.68 3.3 17 5 C11.06 5 5.12 5 -1 5 C-1 7.64 -1 10.28 -1 13 C-1.33 13 -1.66 13 -2 13 C-2 10.03 -2 7.06 -2 4 C2.95 3.67 7.9 3.34 13 3 C13 2.34 13 1.68 13 1 C8.71 1 4.42 1 0 1 C0 0.67 0 0.34 0 0 Z " fill="#F2B826" transform="translate(205,241)"/>
<path d="M0 0 C4.29 0 8.58 0 13 0 C12.10474026 4.47629868 11.71577949 5.87296405 9.125 9.25 C8.61195313 9.93578125 8.09890625 10.6215625 7.5703125 11.328125 C6 13 6 13 3 14 C4.02022872 11.25323037 5.10505344 8.82625778 6.625 6.3125 C8.17035846 4.16188894 8.17035846 4.16188894 8 2 C5.36 1.67 2.72 1.34 0 1 C0 0.67 0 0.34 0 0 Z " fill="#E4B039" transform="translate(288,231)"/>
<path d="M0 0 C1.32 0 2.64 0 4 0 C4 0.99 4 1.98 4 3 C2.68 2.67 1.36 2.34 0 2 C0 16.19 0 30.38 0 45 C-0.33 45 -0.66 45 -1 45 C-1.02527124 38.75204325 -1.04283344 32.50409959 -1.05493164 26.25610352 C-1.05997298 24.12881986 -1.06680591 22.00153969 -1.07543945 19.87426758 C-1.08751379 16.82372174 -1.09323014 13.77322155 -1.09765625 10.72265625 C-1.10281754 9.76537125 -1.10797882 8.80808624 -1.11329651 7.8217926 C-1.11337204 6.94095505 -1.11344757 6.06011749 -1.11352539 5.15258789 C-1.115746 4.37315323 -1.11796661 3.59371857 -1.12025452 2.79066467 C-1 1 -1 1 0 0 Z " fill="#9890CF" transform="translate(416,220)"/>
<path d="M0 0 C2.64 0 5.28 0 8 0 C8.35858439 3.85478218 8.2754818 5.57759458 6.125 8.875 C5.42375 9.57625 4.7225 10.2775 4 11 C3.34 11 2.68 11 2 11 C2.66 9.68 3.32 8.36 4 7 C3.34 6.5875 2.68 6.175 2 5.75 C1.34 5.1725 0.68 4.595 0 4 C0 2.68 0 1.36 0 0 Z " fill="#9884D9" transform="translate(379,253)"/>
<path d="M0 0 C2 0 2 0 3.55078125 1.50390625 C7.27959797 5.86108233 10.75044549 10.27337526 14 15 C13.01 15.495 13.01 15.495 12 16 C9.375 14.8125 9.375 14.8125 7 13 C7 11.68 7 10.36 7 9 C6.34 9 5.68 9 5 9 C5 8.34 5 7.68 5 7 C4.34 7 3.68 7 3 7 C3 6.34 3 5.68 3 5 C2.34 5 1.68 5 1 5 C0.67 3.35 0.34 1.7 0 0 Z " fill="#DEAA3C" transform="translate(241,223)"/>
<path d="M0 0 C10.89 0 21.78 0 33 0 C32.67 0.99 32.34 1.98 32 3 C31.34 3 30.68 3 30 3 C29.67 4.65 29.34 6.3 29 8 C28.34 8 27.68 8 27 8 C27 7.34 27 6.68 27 6 C27.66 6 28.32 6 29 6 C28.67 4.68 28.34 3.36 28 2 C14.14 1.505 14.14 1.505 0 1 C0 0.67 0 0.34 0 0 Z " fill="#EEB030" transform="translate(282,223)"/>
<path d="M0 0 C1.60407328 -0.02708567 3.2082785 -0.04643483 4.8125 -0.0625 C5.70582031 -0.07410156 6.59914062 -0.08570313 7.51953125 -0.09765625 C10 0 10 0 13 1 C14.23076923 6.41538462 14.23076923 6.41538462 13.0625 9.375 C12.711875 9.91125 12.36125 10.4475 12 11 C10.68 11 9.36 11 8 11 C8 10.34 8 9.68 8 9 C8.66 9 9.32 9 10 9 C10 7.35 10 5.7 10 4 C6.73454239 2.11608215 3.71888239 1.50712033 0 1 C0 0.67 0 0.34 0 0 Z " fill="#EBB824" transform="translate(170,247)"/>
<path d="M0 0 C0.99 0.33 1.98 0.66 3 1 C3 4.63 3 8.26 3 12 C-0.24567617 13.62283808 -3.63839624 12.54725234 -7.125 12.0625 C-7.87910156 11.96259766 -8.63320313 11.86269531 -9.41015625 11.75976562 C-11.27417753 11.51201596 -13.13719288 11.25671943 -15 11 C-15 10.67 -15 10.34 -15 10 C-9.72 10 -4.44 10 1 10 C0.67 6.7 0.34 3.4 0 0 Z " fill="#E5B032" transform="translate(346,234)"/>
<path d="M0 0 C1.13308594 -0.02449219 2.26617187 -0.04898438 3.43359375 -0.07421875 C9.82138204 -0.09668459 13.90651721 0.02960586 18.75 4.375 C17.76 4.705 16.77 5.035 15.75 5.375 C15.75 4.715 15.75 4.055 15.75 3.375 C14.1 3.375 12.45 3.375 10.75 3.375 C10.75 2.715 10.75 2.055 10.75 1.375 C-0.14 1.87 -0.14 1.87 -11.25 2.375 C-11.91 3.695 -12.57 5.015 -13.25 6.375 C-13.875 4.5 -13.875 4.5 -14.25 2.375 C-10.62876702 -1.24623298 -4.89543142 0.00549431 0 0 Z " fill="#E4B24D" transform="translate(168.25,221.625)"/>
<path d="M0 0 C0.33 0 0.66 0 1 0 C0.56682609 5.4146739 -0.48982738 8.80729382 -4 13 C-6.75 14.375 -6.75 14.375 -9 15 C-8.39262151 11.01407866 -6.36780019 8.44653025 -4 5.25 C-3.278125 4.26515625 -2.55625 3.2803125 -1.8125 2.265625 C-1.214375 1.51796875 -0.61625 0.7703125 0 0 Z " fill="#E2AD30" transform="translate(308,231)"/>
<path d="M0 0 C2.10827055 3.16240582 2.33817465 4.50657469 2.625 8.1875 C2.69976562 9.08855469 2.77453125 9.98960937 2.8515625 10.91796875 C2.90054687 11.60503906 2.94953125 12.29210937 3 13 C4.32 12.67 5.64 12.34 7 12 C6.3125 13.9375 6.3125 13.9375 5 16 C3.35 16.33 1.7 16.66 0 17 C0 11.39 0 5.78 0 0 Z " fill="#9185C7" transform="translate(371,255)"/>
<path d="M0 0 C0.99 0.33 1.98 0.66 3 1 C3 10.24 3 19.48 3 29 C4.32 29.33 5.64 29.66 7 30 C5.02 30.99 5.02 30.99 3 32 C0.17120714 29.17120714 0.6857334 27.20075802 0.5859375 23.2421875 C0.56657135 22.57913605 0.5472052 21.91608459 0.5272522 21.23294067 C0.46744046 19.11375823 0.42106612 16.9945215 0.375 14.875 C0.33682155 13.43877831 0.29776989 12.00257955 0.2578125 10.56640625 C0.16173875 7.04448064 0.07771358 3.52238392 0 0 Z " fill="#E4A824" transform="translate(322,234)"/>
<path d="M0 0 C0.99 0 1.98 0 3 0 C3.33 1.32 3.66 2.64 4 4 C3.34 4 2.68 4 2 4 C2 14.23 2 24.46 2 35 C1.67 35 1.34 35 1 35 C0.505 17.675 0.505 17.675 0 0 Z " fill="#AF9BE7" transform="translate(421,221)"/>
<path d="M0 0 C-0.33 1.32 -0.66 2.64 -1 4 C-6.94 3.67 -12.88 3.34 -19 3 C-19 2.34 -19 1.68 -19 1 C-16.20837429 0.83262201 -13.41670379 0.66606598 -10.625 0.5 C-9.8309375 0.45230469 -9.036875 0.40460938 -8.21875 0.35546875 C-2.2265625 0 -2.2265625 0 0 0 Z " fill="#EEAD2C" transform="translate(147,229)"/>
<path d="M0 0 C0.66 0.33 1.32 0.66 2 1 C4.17674783 1.15469367 6.3578348 1.25002106 8.5390625 1.31640625 C9.84101563 1.35830078 11.14296875 1.40019531 12.484375 1.44335938 C13.86458045 1.48317299 15.24478883 1.52288522 16.625 1.5625 C18.01303415 1.60569407 19.40105528 1.64930865 20.7890625 1.69335938 C24.19260256 1.79972 27.59621778 1.90174714 31 2 C31 2.33 31 2.66 31 3 C29.78884521 3.03758423 29.78884521 3.03758423 28.55322266 3.07592773 C24.91031083 3.19165487 21.26767274 3.31448635 17.625 3.4375 C15.71847656 3.49647461 15.71847656 3.49647461 13.7734375 3.55664062 C12.56171875 3.59853516 11.35 3.64042969 10.1015625 3.68359375 C8.42054443 3.73858032 8.42054443 3.73858032 6.70556641 3.79467773 C4.03287229 3.82596013 4.03287229 3.82596013 2 5 C1.01 4.01 0.02 3.02 -1 2 C-0.67 1.34 -0.34 0.68 0 0 Z " fill="#DDAB35" transform="translate(279,261)"/>
<path d="M0 0 C0 0.66 0 1.32 0 2 C6.6 2 13.2 2 20 2 C20 2.33 20 2.66 20 3 C12.74 3 5.48 3 -2 3 C-2.33 3.99 -2.66 4.98 -3 6 C-3.66 6 -4.32 6 -5 6 C-5 4.35 -5 2.7 -5 1 C-2 0 -2 0 0 0 Z " fill="#F1B424" transform="translate(80,260)"/>
<path d="M0 0 C1.485 0.99 1.485 0.99 3 2 C3.51171875 4.8203125 3.51171875 4.8203125 3.6875 8.125 C3.75324219 9.22070312 3.81898438 10.31640625 3.88671875 11.4453125 C3.92410156 12.28835938 3.96148437 13.13140625 4 14 C2.68 13.67 1.36 13.34 0 13 C0 8.71 0 4.42 0 0 Z " fill="#A594E8" transform="translate(397,252)"/>
<path d="M0 0 C0.33 0 0.66 0 1 0 C1.35789474 5.36842105 1.35789474 5.36842105 -0.0625 7.875 C-3.00227124 9.58196395 -5.67870803 9.18799766 -9 9 C-8.34 8.01 -7.68 7.02 -7 6 C-6.01 6 -5.02 6 -4 6 C-3.67 5.01 -3.34 4.02 -3 3 C-2.01 3 -1.02 3 0 3 C0 2.01 0 1.02 0 0 Z " fill="#F1B133" transform="translate(110,254)"/>
<path d="M0 0 C1.15435547 -0.00386719 2.30871094 -0.00773438 3.49804688 -0.01171875 C5.30692383 0.00568359 5.30692383 0.00568359 7.15234375 0.0234375 C8.36212891 0.01183594 9.57191406 0.00023437 10.81835938 -0.01171875 C11.97142578 -0.00785156 13.12449219 -0.00398437 14.3125 0 C15.37218994 0.00338379 16.43187988 0.00676758 17.52368164 0.01025391 C18.37051514 0.13835449 19.21734863 0.26645508 20.08984375 0.3984375 C20.74984375 1.3884375 21.40984375 2.3784375 22.08984375 3.3984375 C21.09984375 3.0684375 20.10984375 2.7384375 19.08984375 2.3984375 C17.3756744 2.30495018 15.65812171 2.26773881 13.94140625 2.265625 C12.43320313 2.26369141 12.43320313 2.26369141 10.89453125 2.26171875 C9.84523437 2.26558594 8.7959375 2.26945313 7.71484375 2.2734375 C6.1525 2.26763672 6.1525 2.26763672 4.55859375 2.26171875 C3.04652344 2.26365234 3.04652344 2.26365234 1.50390625 2.265625 C0.58561035 2.26675293 -0.33268555 2.26788086 -1.27880859 2.26904297 C-3.91439399 2.39864589 -6.34044033 2.81390984 -8.91015625 3.3984375 C-6.30059284 -0.00622285 -4.16098385 0.01327268 0 0 Z " fill="#DEAD53" transform="translate(208.91015625,221.6015625)"/>
<path d="M0 0 C0.80566406 0.00322266 1.61132812 0.00644531 2.44140625 0.00976562 C3.70404297 0.02233398 3.70404297 0.02233398 4.9921875 0.03515625 C5.84167969 0.03966797 6.69117188 0.04417969 7.56640625 0.04882812 C9.66669659 0.06062751 11.7669508 0.07856319 13.8671875 0.09765625 C13.8671875 0.42765625 13.8671875 0.75765625 13.8671875 1.09765625 C7.9271875 1.42765625 1.9871875 1.75765625 -4.1328125 2.09765625 C-3.8028125 4.40765625 -3.4728125 6.71765625 -3.1328125 9.09765625 C-4.1228125 8.76765625 -5.1128125 8.43765625 -6.1328125 8.09765625 C-6.1328125 5.78765625 -6.1328125 3.47765625 -6.1328125 1.09765625 C-3.8362755 -0.05061225 -2.54968083 -0.0179555 0 0 Z " fill="#CFA249" transform="translate(131.1328125,246.90234375)"/>
<path d="M0 0 C0.66 0 1.32 0 2 0 C2 3.3 2 6.6 2 10 C-2 9 -2 9 -4 6 C-3.34 5.01 -2.68 4.02 -2 3 C-1.34 3 -0.68 3 0 3 C0 2.01 0 1.02 0 0 Z " fill="#E9B01D" transform="translate(264,240)"/>
<path d="M0 0 C3.875 1.75 3.875 1.75 5 4 C4.91348369 5.54613014 4.75997364 7.08909387 4.5625 8.625 C4.46066406 9.44226563 4.35882813 10.25953125 4.25390625 11.1015625 C4.17011719 11.72804687 4.08632813 12.35453125 4 13 C2.125 13.625 2.125 13.625 0 14 C-0.66 13.34 -1.32 12.68 -2 12 C-0.68 12 0.64 12 2 12 C1.85831863 10.56208484 1.71148957 9.1246763 1.5625 7.6875 C1.48128906 6.88699219 1.40007812 6.08648437 1.31640625 5.26171875 C1.04734307 2.83912821 1.04734307 2.83912821 0 0 Z " fill="#9887D1" transform="translate(395,232)"/>
<path d="M0 0 C0.66 0.33 1.32 0.66 2 1 C2.33 2.32 2.66 3.64 3 5 C8.94 5.99 8.94 5.99 15 7 C15 7.33 15 7.66 15 8 C12.91846065 8.13536022 10.83438794 8.23215465 8.75 8.3125 C7.58984375 8.37050781 6.4296875 8.42851562 5.234375 8.48828125 C2 8 2 8 -0.421875 5.60546875 C-2 3 -2 3 -2 1 C-1.34 0.67 -0.68 0.34 0 0 Z " fill="#DEB25A" transform="translate(281,225)"/>
<path d="M0 0 C1.98 0.495 1.98 0.495 4 1 C3.95875 2.051875 3.9175 3.10375 3.875 4.1875 C3.99147875 7.74010173 4.47208068 9.84866641 6 13 C5.34 13 4.68 13 4 13 C1.1598467 9.62365257 -1.09225154 6.47602466 -0.8125 2 C-0.544375 1.34 -0.27625 0.68 0 0 Z " fill="#F3BD22" transform="translate(196,248)"/>
<path d="M0 0 C0.33 0 0.66 0 1 0 C1.09796875 0.67546875 1.1959375 1.3509375 1.296875 2.046875 C2.37079086 8.95967405 2.37079086 8.95967405 7 14 C3 14 3 14 0.6875 12.0625 C-1.65571292 7.81000248 -0.92854959 4.63265503 0 0 Z " fill="#D2A235" transform="translate(77,233)"/>
<path d="M0 0 C0 0.99 0 1.98 0 3 C-3.63195496 5.42130331 -5.38349348 5.21022785 -9.6875 5.125 C-10.86699219 5.10695312 -12.04648438 5.08890625 -13.26171875 5.0703125 C-14.16535156 5.04710937 -15.06898437 5.02390625 -16 5 C-12.96811042 2.97874028 -12.02056575 2.73325907 -8.5625 2.5 C-5.21714292 2.27357989 -2.92906798 1.65468989 0 0 Z " fill="#D8A94F" transform="translate(111,228)"/>
<path d="M0 0 C1.32 0.33 2.64 0.66 4 1 C4.33 1.99 4.66 2.98 5 4 C5.66 4 6.32 4 7 4 C7.33 5.32 7.66 6.64 8 8 C4.535 6.02 4.535 6.02 1 4 C1 5.98 1 7.96 1 10 C0.67 10 0.34 10 0 10 C0 6.7 0 3.4 0 0 Z " fill="#E7B31F" transform="translate(241,236)"/>
<path d="M0 0 C5.75 3.625 5.75 3.625 8 7 C8.125 9.6875 8.125 9.6875 8 12 C4.72257902 8.89973691 2.06895163 6.02901106 0 2 C0 1.34 0 0.68 0 0 Z " fill="#E1A945" transform="translate(346,223)"/>
<path d="M0 0 C1.77074917 -0.02705729 3.54161711 -0.04642195 5.3125 -0.0625 C6.29863281 -0.07410156 7.28476562 -0.08570313 8.30078125 -0.09765625 C11 0 11 0 14 1 C13.67 1.99 13.34 2.98 13 4 C8.71 3.34 4.42 2.68 0 2 C0 1.34 0 0.68 0 0 Z " fill="#9C8CE2" transform="translate(383,220)"/>
<path d="M0 0 C0.66 0 1.32 0 2 0 C2 2.97 2 5.94 2 9 C4.64 9 7.28 9 10 9 C10 9.66 10 10.32 10 11 C7.1875 11.625 7.1875 11.625 4 12 C1 10 1 10 0.48828125 7.6171875 C0.40126953 6.25980469 0.40126953 6.25980469 0.3125 4.875 C0.24675781 3.96492188 0.18101562 3.05484375 0.11328125 2.1171875 C0.07589844 1.41851562 0.03851563 0.71984375 0 0 Z " fill="#D2A343" transform="translate(345,254)"/>
<path d="M0 0 C0.33 0.66 0.66 1.32 1 2 C3.64 1.67 6.28 1.34 9 1 C9 1.66 9 2.32 9 3 C6.36 3.33 3.72 3.66 1 4 C0.67 6.97 0.34 9.94 0 13 C-0.99 12.67 -1.98 12.34 -3 12 C-2.34 12 -1.68 12 -1 12 C-1.01160156 11.21753906 -1.02320313 10.43507813 -1.03515625 9.62890625 C-1.04417969 8.61699219 -1.05320312 7.60507812 -1.0625 6.5625 C-1.07410156 5.55316406 -1.08570313 4.54382813 -1.09765625 3.50390625 C-1 1 -1 1 0 0 Z " fill="#F4B520" transform="translate(329,250)"/>
<path d="M0 0 C1 4 1 4 -0.125 7.1875 C-0.74375 8.115625 -1.3625 9.04375 -2 10 C-3.65 10.33 -5.3 10.66 -7 11 C-4.69 7.37 -2.38 3.74 0 0 Z " fill="#E2B445" transform="translate(290,245)"/>
<path d="M0 0 C0.33 0 0.66 0 1 0 C1 4.95 1 9.9 1 15 C0.67 14.01 0.34 13.02 0 12 C-0.66 12 -1.32 12 -2 12 C-2 9.69 -2 7.38 -2 5 C-1.34 5 -0.68 5 0 5 C0 3.35 0 1.7 0 0 Z " fill="#958BC8" transform="translate(372,239)"/>
<path d="M0 0 C2.86724686 0.57344937 3.8614515 0.8614515 6 3 C5.625 5.625 5.625 5.625 5 8 C3.35 8.33 1.7 8.66 0 9 C0.33 8.34 0.66 7.68 1 7 C1.66 7 2.32 7 3 7 C1.60240095 3.45481116 1.60240095 3.45481116 0 0 Z " fill="#DFA931" transform="translate(100,247)"/>
<path d="M0 0 C1.670625 0.2475 1.670625 0.2475 3.375 0.5 C4.035 1.49 4.695 2.48 5.375 3.5 C4.34375 3.45875 3.3125 3.4175 2.25 3.375 C-1.49329627 3.49575149 -4.16234547 4.14872018 -7.625 5.5 C-5.30816103 1.79305766 -4.43809983 0.6121517 0 0 Z " fill="#9685CC" transform="translate(388.625,228.5)"/>
<path d="M0 0 C4.95 0.33 9.9 0.66 15 1 C15 1.33 15 1.66 15 2 C14.24074219 2.03738281 13.48148437 2.07476562 12.69921875 2.11328125 C11.70535156 2.17902344 10.71148437 2.24476563 9.6875 2.3125 C8.70136719 2.37050781 7.71523438 2.42851562 6.69921875 2.48828125 C3.75615543 3.04622813 2.81817001 3.68540132 1 6 C0.67 5.67 0.34 5.34 0 5 C0 3.35 0 1.7 0 0 Z " fill="#F2BA23" transform="translate(329,229)"/>
<path d="M0 0 C2 0 2 0 4.0625 1.6875 C6.17875625 4.21335423 6.64119018 5.77071161 7 9 C6.34 9 5.68 9 5 9 C5 8.34 5 7.68 5 7 C4.34 7 3.68 7 3 7 C3 6.34 3 5.68 3 5 C2.34 5 1.68 5 1 5 C0.67 3.35 0.34 1.7 0 0 Z " fill="#E3AF33" transform="translate(241,223)"/>
<path d="M0 0 C1.65 0 3.3 0 5 0 C5.33 0.66 5.66 1.32 6 2 C4.68 2 3.36 2 2 2 C1.67 4.31 1.34 6.62 1 9 C0.67 9 0.34 9 0 9 C0 6.03 0 3.06 0 0 Z " fill="#DFAB3E" transform="translate(163,247)"/>
<path d="M0 0 C1.62463842 -0.05395478 3.24978541 -0.09277195 4.875 -0.125 C5.77992188 -0.14820313 6.68484375 -0.17140625 7.6171875 -0.1953125 C10 0 10 0 12 2 C12.125 4.625 12.125 4.625 12 7 C11.690625 6.38125 11.38125 5.7625 11.0625 5.125 C7.95482812 1.92315624 4.29596194 1.68447192 0 1 C0 0.67 0 0.34 0 0 Z " fill="#E0AC3C" transform="translate(170,247)"/>
<path d="M0 0 C2.04119788 1.61594832 4.04072937 3.2856382 6 5 C6 5.66 6 6.32 6 7 C4.68 7 3.36 7 2 7 C2 6.34 2 5.68 2 5 C0.68 4.34 -0.64 3.68 -2 3 C-1.34 2.67 -0.68 2.34 0 2 C0 1.34 0 0.68 0 0 Z " fill="#E5B433" transform="translate(255,239)"/>
<path d="M0 0 C0.66 0.66 1.32 1.32 2 2 C-3.14285714 7.57142857 -3.14285714 7.57142857 -7 8 C-5.50902342 4.2047869 -3.24299151 2.38957269 0 0 Z " fill="#2B1808" transform="translate(81,222)"/>
<path d="M0 0 C4.62 0 9.24 0 14 0 C14 0.33 14 0.66 14 1 C13.21753906 1.04898438 12.43507813 1.09796875 11.62890625 1.1484375 C10.61699219 1.22320312 9.60507812 1.29796875 8.5625 1.375 C7.55316406 1.44460937 6.54382813 1.51421875 5.50390625 1.5859375 C4.26447266 1.79089844 4.26447266 1.79089844 3 2 C2.67 2.66 2.34 3.32 2 4 C1.01 3.67 0.02 3.34 -1 3 C-0.67 2.01 -0.34 1.02 0 0 Z " fill="#CB9E4F" transform="translate(279,222)"/>
<path d="M0 0 C0.99 0.99 1.98 1.98 3 3 C2.01 5.31 1.02 7.62 0 10 C-1.74627478 7.38058783 -2.38722388 5.96175123 -3 3 C-2.34 3 -1.68 3 -1 3 C-0.67 2.01 -0.34 1.02 0 0 Z " fill="#AB9EEA" transform="translate(373,248)"/>
<path d="M0 0 C-2.46115371 2.27183419 -3.73620199 2.9736202 -7.125 3.3125 C-10 3 -10 3 -12 1 C-7.95858806 0.36605303 -4.0934693 -0.12404452 0 0 Z " fill="#9C8AE1" transform="translate(392,244)"/>
<path d="M0 0 C1.485 0.99 1.485 0.99 3 2 C3.1875 5.625 3.1875 5.625 3 9 C0.11749016 6.61879622 -0.61038985 4.70129644 -1 1 C-0.67 0.67 -0.34 0.34 0 0 Z " fill="#E7AE32" transform="translate(108,241)"/>
<path d="M0 0 C0.66 0.99 1.32 1.98 2 3 C1.34 3 0.68 3 0 3 C-0.33 3.66 -0.66 4.32 -1 5 C-1.99 6.485 -1.99 6.485 -3 8 C-3.66 7.67 -4.32 7.34 -5 7 C-3.75023244 3.34683329 -3.32901247 2.21934164 0 0 Z " fill="#F1B827" transform="translate(295,242)"/>
<path d="M0 0 C0 1.65 0 3.3 0 5 C-0.53625 4.525625 -1.0725 4.05125 -1.625 3.5625 C-4.42842836 1.71813924 -6.69620258 1.37543153 -10 1 C-10 0.67 -10 0.34 -10 0 C-3.375 -1.125 -3.375 -1.125 0 0 Z " fill="#E3AF42" transform="translate(181,231)"/>
<path d="M0 0 C1.65 0 3.3 0 5 0 C5 0.99 5 1.98 5 3 C5.66 3.33 6.32 3.66 7 4 C6.34 4.66 5.68 5.32 5 6 C3.35 4.02 1.7 2.04 0 0 Z " fill="#E9AE3A" transform="translate(248,245)"/>
<path d="M0 0 C2.31 0 4.62 0 7 0 C6.360625 0.226875 5.72125 0.45375 5.0625 0.6875 C2.72806339 1.85250896 2.72806339 1.85250896 2.25 4.625 C2.1675 5.40875 2.085 6.1925 2 7 C1.34 6.67 0.68 6.34 0 6 C0 4.02 0 2.04 0 0 Z " fill="#DBA23F" transform="translate(83,232)"/>
<path d="M0 0 C2.0625 2.25 2.0625 2.25 4 5 C3.75 7.3125 3.75 7.3125 3 9 C0.90250005 6.64031256 0.03094296 5.45383006 -0.1875 2.25 C-0.125625 1.5075 -0.06375 0.765 0 0 Z " fill="#E0B946" transform="translate(196,254)"/>
<path d="M0 0 C0.66 0 1.32 0 2 0 C2.33 2.64 2.66 5.28 3 8 C2.01 7.67 1.02 7.34 0 7 C0 4.69 0 2.38 0 0 Z " fill="#D7A838" transform="translate(125,248)"/>
<path d="M0 0 C1.32 0.66 2.64 1.32 4 2 C2.68 4.31 1.36 6.62 0 9 C-1.1023021 5.6930937 -0.78325422 4.30707339 0 1 C0 0.67 0 0.34 0 0 Z " fill="#D5AD41" transform="translate(226,223)"/>
</svg>
