<?xml version="1.0" encoding="UTF-8"?>
<svg version="1.1" xmlns="http://www.w3.org/2000/svg" width="500" height="500">
<path d="M0 0 C2.69006353 0.90541435 3.9468381 1.91952271 5.90734863 3.95332336 C6.52287598 4.58174133 7.13840332 5.2101593 7.77258301 5.85762024 C8.39842285 6.51697571 9.0242627 7.17633118 9.66906738 7.85566711 C10.31424316 8.51888977 10.95941895 9.18211243 11.62414551 9.86543274 C13.21103756 11.49934382 14.78783066 13.14184858 16.35656738 14.79316711 C14.73500714 18.89425598 11.77979708 21.62464878 8.69250488 24.65254211 C8.14043365 25.20178345 7.58836243 25.75102478 7.01956177 26.31690979 C5.26154923 28.06376004 3.49669848 29.80351313 1.73156738 31.54316711 C0.53579658 32.72890303 -0.65952127 33.91509591 -1.85437012 35.10176086 C-4.77883515 38.00421797 -7.70945135 40.90033122 -10.64343262 43.79316711 C-9.85968262 44.76254211 -9.07593262 45.73191711 -8.26843262 46.73066711 C-7.82757324 47.27594055 -7.38671387 47.82121399 -6.93249512 48.38301086 C-5.67679352 49.92583149 -5.67679352 49.92583149 -3.64343262 50.79316711 C-3.64343262 51.45316711 -3.64343262 52.11316711 -3.64343262 52.79316711 C-2.98343262 52.79316711 -2.32343262 52.79316711 -1.64343262 52.79316711 C-0.27032554 54.08550318 1.06691562 55.41753857 2.35656738 56.79316711 C1.08174649 59.63699834 -0.09480339 61.9307073 -2.64343262 63.79316711 C-8.05024979 63.17662517 -11.24770053 58.70178165 -14.89343262 55.04316711 C-15.63851074 54.32644836 -16.38358887 53.60972961 -17.15124512 52.87129211 C-17.85507324 52.17004211 -18.55890137 51.46879211 -19.28405762 50.74629211 C-19.92891113 50.10852844 -20.57376465 49.47076477 -21.23815918 48.81367493 C-22.97928706 46.31027424 -22.92171881 44.77924271 -22.64343262 41.79316711 C-22.02468262 41.54566711 -21.40593262 41.29816711 -20.76843262 41.04316711 C-18.53396914 39.99522808 -18.53396914 39.99522808 -17.78259277 37.99263 C-16.35267178 35.23177311 -14.53087756 33.50648977 -12.29187012 31.35176086 C-11.44108887 30.52096008 -10.59030762 29.6901593 -9.71374512 28.83418274 C-7.91087563 27.09271533 -6.10617413 25.3531426 -4.29968262 23.61543274 C-3.45147949 22.78592102 -2.60327637 21.9564093 -1.72937012 21.10176086 C-0.94610352 20.3469342 -0.16283691 19.59210754 0.64416504 18.81440735 C2.67977186 16.85318831 2.67977186 16.85318831 2.35656738 13.79316711 C0.14973539 13.27174413 0.14973539 13.27174413 -2.64343262 13.79316711 C-5.20622797 15.56397067 -7.32528364 17.75084704 -9.51062012 19.96113586 C-10.14960236 20.5929628 -10.78858459 21.22478973 -11.44692993 21.87576294 C-12.79275718 23.21381221 -14.1322196 24.55828955 -15.46569824 25.90864563 C-17.51295891 27.97514198 -19.58785719 30.01062948 -21.66687012 32.04512024 C-22.97072722 33.34868702 -24.27287124 34.65397 -25.57312012 35.96113586 C-26.19693573 36.56966904 -26.82075134 37.17820221 -27.46347046 37.80517578 C-29.02675317 39.41189308 -30.42914432 40.90888727 -31.64343262 42.79316711 C-31.75232404 45.51916879 -31.75232404 45.51916879 -30.64343262 47.79316711 C-30.31343262 48.78316711 -29.98343262 49.77316711 -29.64343262 50.79316711 C-28.98343262 50.79316711 -28.32343262 50.79316711 -27.64343262 50.79316711 C-27.64343262 51.45316711 -27.64343262 52.11316711 -27.64343262 52.79316711 C-26.75033134 53.20320229 -26.75033134 53.20320229 -25.83918762 53.621521 C-23.71350275 54.75577797 -22.24994122 55.88871637 -20.51135254 57.539505 C-19.92782516 58.09090652 -19.34429779 58.64230804 -18.74308777 59.2104187 C-16.11902519 61.74494111 -13.49927051 64.28328155 -10.89660645 66.83979797 C-9.5211267 68.18211404 -8.1349963 69.51360341 -6.73840332 70.8339386 C-4.71703838 72.74561522 -2.73074846 74.68830464 -0.74890137 76.64082336 C-0.1219487 77.22243729 0.50500397 77.80405121 1.1509552 78.40328979 C5.28134334 82.57514482 5.28134334 82.57514482 5.50778198 86.24162292 C5.26561968 88.4857151 4.90847935 90.60625261 4.35656738 92.79316711 C3.69656738 92.79316711 3.03656738 92.79316711 2.35656738 92.79316711 C2.35656738 93.45316711 2.35656738 94.11316711 2.35656738 94.79316711 C0.48156738 96.91816711 0.48156738 96.91816711 -1.64343262 98.79316711 C-2.30343262 98.79316711 -2.96343262 98.79316711 -3.64343262 98.79316711 C-3.64343262 99.45316711 -3.64343262 100.11316711 -3.64343262 100.79316711 C-4.30343262 100.79316711 -4.96343262 100.79316711 -5.64343262 100.79316711 C-5.89093262 101.37066711 -6.13843262 101.94816711 -6.39343262 102.54316711 C-7.8264325 105.12256691 -9.42767938 106.85438303 -11.64343262 108.79316711 C-12.30343262 108.79316711 -12.96343262 108.79316711 -13.64343262 108.79316711 C-13.64343262 109.45316711 -13.64343262 110.11316711 -13.64343262 110.79316711 C-14.30343262 110.79316711 -14.96343262 110.79316711 -15.64343262 110.79316711 C-15.64343262 111.45316711 -15.64343262 112.11316711 -15.64343262 112.79316711 C-16.30343262 112.79316711 -16.96343262 112.79316711 -17.64343262 112.79316711 C-17.64343262 113.45316711 -17.64343262 114.11316711 -17.64343262 114.79316711 C-18.30343262 114.79316711 -18.96343262 114.79316711 -19.64343262 114.79316711 C-19.3011569 117.76382221 -19.3011569 117.76382221 -18.64343262 120.79316711 C-17.98343262 121.12316711 -17.32343262 121.45316711 -16.64343262 121.79316711 C-16.18968262 121.29816711 -15.73593262 120.80316711 -15.26843262 120.29316711 C-13.64343262 118.79316711 -13.64343262 118.79316711 -11.64343262 118.79316711 C-11.64343262 118.13316711 -11.64343262 117.47316711 -11.64343262 116.79316711 C-10.98343262 116.79316711 -10.32343262 116.79316711 -9.64343262 116.79316711 C-9.64343262 116.13316711 -9.64343262 115.47316711 -9.64343262 114.79316711 C-8.98343262 114.79316711 -8.32343262 114.79316711 -7.64343262 114.79316711 C-7.64343262 114.13316711 -7.64343262 113.47316711 -7.64343262 112.79316711 C-6.98343262 112.79316711 -6.32343262 112.79316711 -5.64343262 112.79316711 C-5.64343262 112.13316711 -5.64343262 111.47316711 -5.64343262 110.79316711 C-4.98343262 110.79316711 -4.32343262 110.79316711 -3.64343262 110.79316711 C-3.64343262 110.13316711 -3.64343262 109.47316711 -3.64343262 108.79316711 C-2.98343262 108.79316711 -2.32343262 108.79316711 -1.64343262 108.79316711 C-1.64343262 108.13316711 -1.64343262 107.47316711 -1.64343262 106.79316711 C-0.98343262 106.79316711 -0.32343262 106.79316711 0.35656738 106.79316711 C0.35656738 106.13316711 0.35656738 105.47316711 0.35656738 104.79316711 C1.01656738 104.79316711 1.67656738 104.79316711 2.35656738 104.79316711 C2.35656738 104.13316711 2.35656738 103.47316711 2.35656738 102.79316711 C3.01656738 102.79316711 3.67656738 102.79316711 4.35656738 102.79316711 C4.35656738 102.13316711 4.35656738 101.47316711 4.35656738 100.79316711 C5.01656738 100.79316711 5.67656738 100.79316711 6.35656738 100.79316711 C6.35656738 100.13316711 6.35656738 99.47316711 6.35656738 98.79316711 C7.01656738 98.79316711 7.67656738 98.79316711 8.35656738 98.79316711 C8.35656738 98.13316711 8.35656738 97.47316711 8.35656738 96.79316711 C9.85266113 95.46113586 9.85266113 95.46113586 11.79406738 93.98066711 C14.1021386 92.04789203 15.26212065 90.99697323 16.54406738 88.23066711 C16.27688169 84.75725314 14.74043867 83.24514901 12.35656738 80.79316711 C11.36656738 80.29816711 11.36656738 80.29816711 10.35656738 79.79316711 C10.35656738 79.13316711 10.35656738 78.47316711 10.35656738 77.79316711 C9.69656738 77.79316711 9.03656738 77.79316711 8.35656738 77.79316711 C8.35656738 77.13316711 8.35656738 76.47316711 8.35656738 75.79316711 C7.69656738 75.79316711 7.03656738 75.79316711 6.35656738 75.79316711 C6.35656738 75.13316711 6.35656738 74.47316711 6.35656738 73.79316711 C5.69656738 73.79316711 5.03656738 73.79316711 4.35656738 73.79316711 C4.35656738 73.13316711 4.35656738 72.47316711 4.35656738 71.79316711 C3.69656738 71.79316711 3.03656738 71.79316711 2.35656738 71.79316711 C1.60656738 70.04316711 1.60656738 70.04316711 1.35656738 67.79316711 C2.98156738 65.48066711 2.98156738 65.48066711 5.35656738 63.79316711 C8.35458344 63.86628946 9.82310979 64.37008006 12.16906738 66.23066711 C13.35656738 67.79316711 13.35656738 67.79316711 13.35656738 69.79316711 C13.90828613 70.03164368 14.46000488 70.27012024 15.02844238 70.51582336 C20.02023395 73.25460834 24.03736301 77.19973634 27.35656738 81.79316711 C28.15609005 85.62220641 28.01381027 88.95194758 27.35656738 92.79316711 C25.37656738 93.78316711 25.37656738 93.78316711 23.35656738 94.79316711 C23.35656738 95.45316711 23.35656738 96.11316711 23.35656738 96.79316711 C22.69656738 96.79316711 22.03656738 96.79316711 21.35656738 96.79316711 C21.35656738 97.45316711 21.35656738 98.11316711 21.35656738 98.79316711 C20.69656738 98.79316711 20.03656738 98.79316711 19.35656738 98.79316711 C19.35656738 99.45316711 19.35656738 100.11316711 19.35656738 100.79316711 C18.69656738 100.79316711 18.03656738 100.79316711 17.35656738 100.79316711 C17.35656738 101.45316711 17.35656738 102.11316711 17.35656738 102.79316711 C16.69656738 102.79316711 16.03656738 102.79316711 15.35656738 102.79316711 C15.35656738 103.45316711 15.35656738 104.11316711 15.35656738 104.79316711 C14.69656738 104.79316711 14.03656738 104.79316711 13.35656738 104.79316711 C13.09682129 105.37743469 12.8370752 105.96170227 12.56945801 106.56367493 C11.27191138 108.94877876 9.86315616 110.54507348 7.95031738 112.46504211 C7.28902832 113.1289093 6.62773926 113.79277649 5.94641113 114.47676086 C5.2567627 115.15867493 4.56711426 115.84058899 3.85656738 116.54316711 C3.16691895 117.24054993 2.47727051 117.93793274 1.76672363 118.65644836 C1.10543457 119.3151593 0.44414551 119.97387024 -0.23718262 120.65254211 C-0.84239746 121.2555011 -1.4476123 121.85846008 -2.07116699 122.47969055 C-3.64343262 123.79316711 -3.64343262 123.79316711 -5.64343262 123.79316711 C-5.64343262 124.45316711 -5.64343262 125.11316711 -5.64343262 125.79316711 C-6.30343262 125.79316711 -6.96343262 125.79316711 -7.64343262 125.79316711 C-7.84968262 126.32941711 -8.05593262 126.86566711 -8.26843262 127.41816711 C-10.16924964 130.70139653 -12.61984451 133.48508459 -15.64343262 135.79316711 C-16.63343262 135.79316711 -17.62343262 135.79316711 -18.64343262 135.79316711 C-18.64343262 135.13316711 -18.64343262 134.47316711 -18.64343262 133.79316711 C-19.30343262 133.79316711 -19.96343262 133.79316711 -20.64343262 133.79316711 C-20.64343262 133.13316711 -20.64343262 132.47316711 -20.64343262 131.79316711 C-21.30343262 131.79316711 -21.96343262 131.79316711 -22.64343262 131.79316711 C-22.64343262 131.13316711 -22.64343262 130.47316711 -22.64343262 129.79316711 C-23.30343262 129.79316711 -23.96343262 129.79316711 -24.64343262 129.79316711 C-24.64343262 129.13316711 -24.64343262 128.47316711 -24.64343262 127.79316711 C-25.30343262 127.79316711 -25.96343262 127.79316711 -26.64343262 127.79316711 C-28.40515137 126.18379211 -28.40515137 126.18379211 -30.33093262 124.04316711 C-31.2957959 122.99902649 -31.2957959 122.99902649 -32.28015137 121.93379211 C-33.64343262 119.79316711 -33.64343262 119.79316711 -33.63171387 117.81660461 C-32.27014112 115.0288786 -30.39170087 113.29548423 -28.14343262 111.16816711 C-24.97650099 108.29039687 -24.97650099 108.29039687 -22.64343262 104.79316711 C-21.98343262 104.79316711 -21.32343262 104.79316711 -20.64343262 104.79316711 C-20.64343262 104.13316711 -20.64343262 103.47316711 -20.64343262 102.79316711 C-19.98343262 102.79316711 -19.32343262 102.79316711 -18.64343262 102.79316711 C-18.64343262 102.13316711 -18.64343262 101.47316711 -18.64343262 100.79316711 C-17.98343262 100.79316711 -17.32343262 100.79316711 -16.64343262 100.79316711 C-16.64343262 100.13316711 -16.64343262 99.47316711 -16.64343262 98.79316711 C-15.98343262 98.79316711 -15.32343262 98.79316711 -14.64343262 98.79316711 C-14.14843262 97.30816711 -14.14843262 97.30816711 -13.64343262 95.79316711 C-12.98343262 95.79316711 -12.32343262 95.79316711 -11.64343262 95.79316711 C-11.64343262 95.13316711 -11.64343262 94.47316711 -11.64343262 93.79316711 C-10.98343262 93.79316711 -10.32343262 93.79316711 -9.64343262 93.79316711 C-9.64343262 93.13316711 -9.64343262 92.47316711 -9.64343262 91.79316711 C-8.98343262 91.79316711 -8.32343262 91.79316711 -7.64343262 91.79316711 C-7.64343262 91.13316711 -7.64343262 90.47316711 -7.64343262 89.79316711 C-6.98343262 89.79316711 -6.32343262 89.79316711 -5.64343262 89.79316711 C-5.64343262 88.14316711 -5.64343262 86.49316711 -5.64343262 84.79316711 C-6.30343262 84.79316711 -6.96343262 84.79316711 -7.64343262 84.79316711 C-7.64343262 84.13316711 -7.64343262 83.47316711 -7.64343262 82.79316711 C-8.20030762 82.56629211 -8.75718262 82.33941711 -9.33093262 82.10566711 C-12.30502849 80.41766675 -14.36352127 78.32640195 -16.64343262 75.79316711 C-16.64343262 75.13316711 -16.64343262 74.47316711 -16.64343262 73.79316711 C-17.30343262 73.79316711 -17.96343262 73.79316711 -18.64343262 73.79316711 C-18.64343262 73.13316711 -18.64343262 72.47316711 -18.64343262 71.79316711 C-19.30343262 71.79316711 -19.96343262 71.79316711 -20.64343262 71.79316711 C-20.64343262 71.13316711 -20.64343262 70.47316711 -20.64343262 69.79316711 C-21.30343262 69.79316711 -21.96343262 69.79316711 -22.64343262 69.79316711 C-22.64343262 69.13316711 -22.64343262 68.47316711 -22.64343262 67.79316711 C-23.23293701 67.5289093 -23.82244141 67.26465149 -24.42980957 66.99238586 C-26.72377196 65.74964369 -28.22906653 64.45146529 -30.06140137 62.60566711 C-30.67563965 61.98949524 -31.28987793 61.37332336 -31.92272949 60.73847961 C-32.86729004 59.77554993 -32.86729004 59.77554993 -33.83093262 58.79316711 C-34.79289551 57.83023743 -34.79289551 57.83023743 -35.77429199 56.84785461 C-39.78061693 52.80345479 -41.81871384 50.61598148 -42.22814941 44.77070618 C-42.15250033 38.6401993 -40.01288959 35.86396257 -35.82551575 31.5750885 C-34.98812363 30.77564819 -34.15073151 29.97620789 -33.28796387 29.15254211 C-32.43417648 28.30008911 -31.5803891 27.44763611 -30.70072937 26.5693512 C-28.89864527 24.78164037 -27.08321799 23.00729157 -25.25549316 21.24580383 C-22.45224051 18.53960283 -19.69746517 15.79035427 -16.94616699 13.03144836 C-15.18776459 11.29827135 -13.42678265 9.56770668 -11.66296387 7.84004211 C-10.8356929 7.01631104 -10.00842194 6.19257996 -9.15608215 5.34388733 C-7.98543465 4.22581696 -7.98543465 4.22581696 -6.7911377 3.0851593 C-6.10940994 2.42328613 -5.42768219 1.76141296 -4.72529602 1.07948303 C-2.64343262 -0.20683289 -2.64343262 -0.20683289 0 0 Z " fill="#EA8C1C" transform="translate(126.6434326171875,182.2068328857422)"/>
<path d="M0 0 C3.63 0 7.26 0 11 0 C11.77923828 1.97419922 11.77923828 1.97419922 12.57421875 3.98828125 C16.97349905 15.18102128 16.97349905 15.18102128 21.8125 26.1875 C27 37.29856419 27 37.29856419 27 42 C23.7 42 20.4 42 17 42 C14 36.375 14 36.375 14 33 C5.585 33.495 5.585 33.495 -3 34 C-3.99 36.64 -4.98 39.28 -6 42 C-9.3 42 -12.6 42 -16 42 C-15.28464343 37.58863447 -13.83399065 33.53408711 -12.25 29.375 C-11.98268066 28.66714355 -11.71536133 27.95928711 -11.43994141 27.22998047 C-9.53408297 22.24534063 -7.43393171 17.38336893 -5.16796875 12.55078125 C-3.28144889 8.43072283 -1.65097997 4.21917105 0 0 Z M5 11 C4.16235732 12.95649397 3.33000941 14.91525556 2.5 16.875 C2.0359375 17.96554687 1.571875 19.05609375 1.09375 20.1796875 C-0.12052456 22.80661929 -0.12052456 22.80661929 0 25 C3.3 25 6.6 25 10 25 C9.36843005 19.94744036 7.86540627 15.70406799 6 11 C5.67 11 5.34 11 5 11 Z " fill="#EB8F20" transform="translate(193,266)"/>
<path d="M0 0 C0 3.63 0 7.26 0 11 C-2.2275 10.01 -2.2275 10.01 -4.5 9 C-9.30479385 7.05618027 -12.86231075 6.61943043 -18 7 C-18.41780879 9.37305578 -18.41780879 9.37305578 -18 12 C-15.03401339 14.47165551 -11.57346753 15.53628306 -8 16.875 C-3.63984463 18.63207754 -0.57293234 19.88330825 2 24 C2.80407278 28.7641312 3.13424654 33.57873085 1.04296875 38.04296875 C-1.48571745 41.29413672 -4.17336741 42.75230611 -8 44 C-16.03317111 44.96487809 -21.90920041 43.78175978 -29 40 C-29 36.7 -29 33.4 -29 30 C-26.15749084 31.11977634 -23.46706786 32.27671476 -20.75 33.6875 C-16.11000165 35.31149942 -12.74735757 34.8934936 -8 34 C-7.87802553 31.10070799 -7.87802553 31.10070799 -9 28 C-11.67484685 26.5250562 -13.96610615 25.49113277 -16.8125 24.5 C-22.70828483 22.41420234 -26.04410968 20.89658327 -29 15 C-30.07107567 10.71569733 -29.29624686 7.58152162 -27.3125 3.6875 C-19.89158401 -4.93680777 -9.8231895 -3.77814981 0 0 Z " fill="#1B3366" transform="translate(209,210)"/>
<path d="M0 0 C2.97 0 5.94 0 9 0 C9.33 4.29 9.66 8.58 10 13 C11.32 12.34 12.64 11.68 14 11 C19.55185216 10.55226999 23.30074042 10.68915802 28 14 C32.61230654 19.46194195 32.6057727 24.73771153 32.3828125 31.74609375 C31.71376128 37.43302915 29.41997823 39.80090727 25.1875 43.375 C20.30830999 45.8624302 16.73746956 45.50544569 11.5625 44 C10.716875 43.67 9.87125 43.34 9 43 C8.505 43.495 8.505 43.495 8 44 C5.36 44 2.72 44 0 44 C0 29.48 0 14.96 0 0 Z M10.5625 21 C8.55751215 24.84957667 8.1699714 27.74717303 9 32 C10.34978302 35.16821233 10.34978302 35.16821233 13 37 C16.60030189 37.3309316 16.60030189 37.3309316 20 36 C22.2415942 34.13007417 22.2415942 34.13007417 23 31 C22.93277509 27.61806972 22.53782188 24.3370876 22 21 C21.34 21 20.68 21 20 21 C20 20.34 20 19.68 20 19 C14.86180471 18.47308488 14.86180471 18.47308488 10.5625 21 Z " fill="#1C3568" transform="translate(250,209)"/>
<path d="M0 0 C3.36400329 2.59308587 3.8692968 3.32147912 5 7.3125 C5.40053596 10.84932912 5.55428067 14.38175504 5.6875 17.9375 C5.73455078 18.89140625 5.78160156 19.8453125 5.83007812 20.828125 C6.13428435 27.90964695 6.13428435 27.90964695 5 31.3125 C1 31.3125 -3 31.3125 -7 31.3125 C-7.99 31.8075 -7.99 31.8075 -9 32.3125 C-14.69941954 32.86052111 -17.56532643 31.92211802 -22 28.3125 C-24.50031654 24.56202518 -24.53603554 22.75393734 -24 18.3125 C-20.67250275 13.77500375 -17.45959771 12.3303911 -12 11.3125 C-9.30724139 11.1755 -6.69980958 11.21776984 -4 11.3125 C-4.66 9.9925 -5.32 8.6725 -6 7.3125 C-11.59243959 6.98353297 -15.30005591 6.89435884 -20 10.3125 C-20.66 10.3125 -21.32 10.3125 -22 10.3125 C-22 7.3425 -22 4.3725 -22 1.3125 C-14.80650064 -1.88461083 -7.3797777 -3.774273 0 0 Z M-14 19.3125 C-13.67 20.9625 -13.34 22.6125 -13 24.3125 C-10.12586875 24.64647787 -10.12586875 24.64647787 -7 24.3125 C-5.02901574 22.6015789 -5.02901574 22.6015789 -4 20.3125 C-4 19.3225 -4 18.3325 -4 17.3125 C-9.32170494 17.01687633 -9.32170494 17.01687633 -14 19.3125 Z " fill="#1D376C" transform="translate(410,221.6875)"/>
<path d="M0 0 C3.91607846 2.73214776 6.17874598 5.47829159 7.1875 10.23046875 C7.47188919 12.46647879 7.71122849 14.62079315 7.6875 16.875 C6.6875 17.875 6.6875 17.875 4.64624023 17.98852539 C3.77169189 17.98328857 2.89714355 17.97805176 1.99609375 17.97265625 C1.05185547 17.96943359 0.10761719 17.96621094 -0.86523438 17.96289062 C-1.85845703 17.95451172 -2.85167969 17.94613281 -3.875 17.9375 C-4.87208984 17.93298828 -5.86917969 17.92847656 -6.89648438 17.92382812 C-9.36854849 17.91200007 -11.84049518 17.89551849 -14.3125 17.875 C-12.55795615 21.05734105 -12.55795615 21.05734105 -10.3125 23.875 C-4.9470337 24.3607159 -0.33739144 23.93649392 4.6875 21.875 C4.6875 24.845 4.6875 27.815 4.6875 30.875 C-0.86990734 33.27820317 -6.36403244 33.79647769 -12.3125 32.875 C-17.26297261 30.85621657 -21.19918181 28.08559707 -23.4375 23.125 C-25.07737001 17.35221436 -24.43559586 11.45812049 -22.0625 6 C-16.10271565 -1.23688099 -8.7644252 -2.97659724 0 0 Z M-12.3125 6.875 C-12.3125 7.535 -12.3125 8.195 -12.3125 8.875 C-12.9725 8.875 -13.6325 8.875 -14.3125 8.875 C-14.3125 9.865 -14.3125 10.855 -14.3125 11.875 C-10.3525 11.875 -6.3925 11.875 -2.3125 11.875 C-2.6425 10.225 -2.9725 8.575 -3.3125 6.875 C-7.84390653 5.94119039 -7.84390653 5.94119039 -12.3125 6.875 Z " fill="#1D386F" transform="translate(238.3125,221.125)"/>
<path d="M0 0 C0.78375 0.495 1.5675 0.99 2.375 1.5 C2.375 2.16 2.375 2.82 2.375 3.5 C3.035 3.5 3.695 3.5 4.375 3.5 C7.0102739 8.60584319 6.375 10.96743966 6.375 17.5 C-0.555 17.5 -7.485 17.5 -14.625 17.5 C-13.28936384 22.44463635 -13.28936384 22.44463635 -10.625 23.5 C-5.24776143 23.96244252 -0.66600465 23.56810447 4.375 21.5 C4.375 24.47 4.375 27.44 4.375 30.5 C-2.14713179 33.32038132 -9.27931683 33.61522772 -16 31.375 C-20.07166495 28.46666789 -23.01178079 25.33965762 -24.625 20.5 C-25.3773319 13.84723649 -25.14394033 8.59399131 -21.09765625 3.09375 C-15.52396453 -2.93825589 -7.18597027 -2.97350494 0 0 Z M-13 6.75 C-14.96522555 8.46837647 -14.96522555 8.46837647 -14.625 11.5 C-10.665 11.5 -6.705 11.5 -2.625 11.5 C-3.285 9.85 -3.945 8.2 -4.625 6.5 C-8.06726376 5.30269086 -9.74197072 5.03524775 -13 6.75 Z " fill="#1C3467" transform="translate(309.625,221.5)"/>
<path d="M0 0 C3.4100428 1.7050214 5.4220788 2.85309958 7.15185547 6.28588867 C8.08112541 9.259606 8.22857795 11.62796191 8.1953125 14.73828125 C8.18886719 15.80498047 8.18242187 16.87167969 8.17578125 17.97070312 C8.15902344 19.07349609 8.14226562 20.17628906 8.125 21.3125 C8.11597656 22.43462891 8.10695313 23.55675781 8.09765625 24.71289062 C8.07414486 27.47547909 8.04128155 30.23762932 8 33 C5.03 33 2.06 33 -1 33 C-1.02505615 32.34926514 -1.0501123 31.69853027 -1.07592773 31.02807617 C-1.19193702 28.08101954 -1.31464115 25.1342787 -1.4375 22.1875 C-1.47681641 21.16333984 -1.51613281 20.13917969 -1.55664062 19.08398438 C-1.59853516 18.10107422 -1.64042969 17.11816406 -1.68359375 16.10546875 C-1.72025146 15.19949951 -1.75690918 14.29353027 -1.79467773 13.36010742 C-1.9208205 10.84951218 -1.9208205 10.84951218 -3 8 C-7.77037054 8.79299209 -7.77037054 8.79299209 -11.20068359 11.79394531 C-12.05499482 14.15178167 -12.31265329 16.04544773 -12.4140625 18.546875 C-12.47207031 19.81337891 -12.47207031 19.81337891 -12.53125 21.10546875 C-12.57765625 22.41451172 -12.57765625 22.41451172 -12.625 23.75 C-12.68300781 25.08224609 -12.68300781 25.08224609 -12.7421875 26.44140625 C-12.83620322 28.62727167 -12.91918002 30.81360692 -13 33 C-15.97 33 -18.94 33 -22 33 C-22 22.44 -22 11.88 -22 1 C-18 1 -14 1 -10 1 C-6.78268449 -0.60865775 -3.4892388 -0.46696133 0 0 Z " fill="#182C53" transform="translate(342,220)"/>
<path d="M0 0 C8.91 0 17.82 0 27 0 C25.87527124 7.87310131 25.87527124 7.87310131 23.3125 10.89453125 C22.77882813 11.53970703 22.24515625 12.18488281 21.6953125 12.84960938 C21.13585937 13.49736328 20.57640625 14.14511719 20 14.8125 C18.8946482 16.13051741 17.79042605 17.44948328 16.6875 18.76953125 C16.19636719 19.34292236 15.70523437 19.91631348 15.19921875 20.50708008 C13.90934096 22.00508842 13.90934096 22.00508842 13 24 C13.99902344 23.98839844 14.99804688 23.97679687 16.02734375 23.96484375 C17.31769531 23.95582031 18.60804688 23.94679687 19.9375 23.9375 C21.22527344 23.92589844 22.51304687 23.91429687 23.83984375 23.90234375 C27 24 27 24 28 25 C28 27.31 28 29.62 28 32 C18.76 32 9.52 32 0 32 C0 24.12014787 0 24.12014787 3.6875 19.4375 C4.41324219 18.50164062 5.13898438 17.56578125 5.88671875 16.6015625 C6.58410156 15.74304688 7.28148437 14.88453125 8 14 C8.54269531 13.32710937 9.08539063 12.65421875 9.64453125 11.9609375 C10.74355226 10.62437592 11.86806308 9.30880207 13 8 C8.71 7.67 4.42 7.34 0 7 C0 4.69 0 2.38 0 0 Z " fill="#1B3366" transform="translate(355,221)"/>
<path d="M0 0 C2.64 0.33 5.28 0.66 8 1 C8 3.64 8 6.28 8 9 C7.34 9 6.68 9 6 9 C6.226875 9.5775 6.45375 10.155 6.6875 10.75 C7 13 7 13 5.6875 15.25 C5.130625 15.8275 4.57375 16.405 4 17 C3.34 17 2.68 17 2 17 C2 17.66 2 18.32 2 19 C1.34 19 0.68 19 0 19 C-0.2475 19.5775 -0.495 20.155 -0.75 20.75 C-2.18299988 23.32939979 -3.78424676 25.06121592 -6 27 C-6.66 27 -7.32 27 -8 27 C-8 27.66 -8 28.32 -8 29 C-8.66 29 -9.32 29 -10 29 C-10 29.66 -10 30.32 -10 31 C-10.66 31 -11.32 31 -12 31 C-12 31.66 -12 32.32 -12 33 C-12.66 33 -13.32 33 -14 33 C-13.67 36.3 -13.34 39.6 -13 43 C-11.02 42.34 -9.04 41.68 -7 41 C-6 42 -6 42 -5.6875 44.3125 C-6.08919519 47.76707866 -7.39899673 48.80540349 -10 51 C-11.98 50.34 -13.96 49.68 -16 49 C-16 48.34 -16 47.68 -16 47 C-16.66 47 -17.32 47 -18 47 C-18 46.34 -18 45.68 -18 45 C-18.66 45 -19.32 45 -20 45 C-20 44.34 -20 43.68 -20 43 C-20.5775 42.9175 -21.155 42.835 -21.75 42.75 C-24.71388479 41.7620384 -26.10091302 40.46177942 -28 38 C-27.75211701 33.95694291 -25.32575981 32.04874109 -22.5 29.375 C-19.33306837 26.49722976 -19.33306837 26.49722976 -17 23 C-16.34 23 -15.68 23 -15 23 C-15 22.34 -15 21.68 -15 21 C-13.35 20.67 -11.7 20.34 -10 20 C-10 19.34 -10 18.68 -10 18 C-8.68 17.67 -7.36 17.34 -6 17 C-6 16.34 -6 15.68 -6 15 C-5.34 15 -4.68 15 -4 15 C-3.67 14.01 -3.34 13.02 -3 12 C-1.35 11.67 0.3 11.34 2 11 C2.33 8.03 2.66 5.06 3 2 C2.01 1.67 1.02 1.34 0 1 C0 0.67 0 0.34 0 0 Z " fill="#F99217" transform="translate(121,264)"/>
<path d="M0 0 C0.33 1.32 0.66 2.64 1 4 C-2.75 7 -2.75 7 -5 7 C-5 7.99 -5 8.98 -5 10 C-5.66 10 -6.32 10 -7 10 C-6.67 10.99 -6.34 11.98 -6 13 C-6.33 13.66 -6.66 14.32 -7 15 C-6.34 15 -5.68 15 -5 15 C-4.67 15.99 -4.34 16.98 -4 18 C-6.31 20.31 -8.62 22.62 -11 25 C-9.824375 26.4540625 -9.824375 26.4540625 -8.625 27.9375 C-8.18414062 28.48277344 -7.74328125 29.02804688 -7.2890625 29.58984375 C-6.0333609 31.13266437 -6.0333609 31.13266437 -4 32 C-4 32.66 -4 33.32 -4 34 C-3.34 34 -2.68 34 -2 34 C-0.62689293 35.29233607 0.71034824 36.62437146 2 38 C0.7251791 40.84383123 -0.45137078 43.13754018 -3 45 C-8.40681717 44.38345805 -11.60426791 39.90861454 -15.25 36.25 C-15.99507813 35.53328125 -16.74015625 34.8165625 -17.5078125 34.078125 C-18.56355469 33.02625 -18.56355469 33.02625 -19.640625 31.953125 C-20.28547852 31.31536133 -20.93033203 30.67759766 -21.59472656 30.02050781 C-23.33585445 27.51710712 -23.2782862 25.9860756 -23 23 C-22.38125 22.7525 -21.7625 22.505 -21.125 22.25 C-18.88901412 21.19809109 -18.88901412 21.19809109 -18.11181641 19.17871094 C-16.78442037 16.57755102 -15.16470237 14.93836353 -13.0859375 12.890625 C-12.32539062 12.13652344 -11.56484375 11.38242188 -10.78125 10.60546875 C-9.9871875 9.82816406 -9.193125 9.05085937 -8.375 8.25 C-7.17230469 7.06083984 -7.17230469 7.06083984 -5.9453125 5.84765625 C-3.96797154 3.89385507 -1.98611091 1.94487897 0 0 Z " fill="#F89119" transform="translate(127,201)"/>
<path d="M0 0 C2.97 0 5.94 0 9 0 C9 13.86 9 27.72 9 42 C6.03 42 3.06 42 0 42 C0 28.14 0 14.28 0 0 Z " fill="#E38A21" transform="translate(223,266)"/>
<path d="M0 0 C2.64 0 5.28 0 8 0 C8 4.62 8 9.24 8 14 C8.66 14 9.32 14 10 14 C9.67 14.99 9.34 15.98 9 17 C8.90476082 19.12327356 8.87013638 21.24959711 8.875 23.375 C8.87242187 24.49648437 8.86984375 25.61796875 8.8671875 26.7734375 C8.9005144 29.95138005 8.9005144 29.95138005 9.6328125 32.7890625 C9.75398438 33.51867187 9.87515625 34.24828125 10 35 C9.34 35.66 8.68 36.32 8 37 C8 38.32 8 39.64 8 41 C6.00045254 41.04254356 3.99958364 41.04080783 2 41 C-1.64919122 37.35080878 -0.07247601 25.57646978 -0.09765625 20.703125 C-0.09111837 18.21873096 -0.07935621 15.73434545 -0.0625 13.25 C-0.05798828 11.96867188 -0.05347656 10.68734375 -0.04882812 9.3671875 C-0.0371772 6.24474069 -0.02082025 3.12239682 0 0 Z " fill="#1C3972" transform="translate(250,210)"/>
<path d="M0 0 C0.99 0 1.98 0 3 0 C4.36639342 1.6396721 5.6949419 3.31110128 7 5 C7.9075 5.721875 8.815 6.44375 9.75 7.1875 C10.4925 7.785625 11.235 8.38375 12 9 C12 9.66 12 10.32 12 11 C12.66 11 13.32 11 14 11 C14 11.66 14 12.32 14 13 C14.66 13 15.32 13 16 13 C16 13.66 16 14.32 16 15 C16.66 15 17.32 15 18 15 C18 15.66 18 16.32 18 17 C18.66 17 19.32 17 20 17 C20 17.66 20 18.32 20 19 C20.66 19 21.32 19 22 19 C22 19.66 22 20.32 22 21 C22.66 21 23.32 21 24 21 C24 21.66 24 22.32 24 23 C24.66 23 25.32 23 26 23 C25.01 25.475 25.01 25.475 24 28 C23.34 28 22.68 28 22 28 C22 28.66 22 29.32 22 30 C16.25191543 29.09608043 12.76000137 24.51595445 8.75 20.625 C7.90953125 19.86316406 7.0690625 19.10132813 6.203125 18.31640625 C0.27711692 12.55394061 0.27711692 12.55394061 -0.54492188 7.94433594 C-0.54665812 5.23665711 -0.39809018 2.67605064 0 0 Z " fill="#E08E25" transform="translate(85,245)"/>
<path d="M0 0 C1.670625 0.061875 1.670625 0.061875 3.375 0.125 C3.705 1.115 4.035 2.105 4.375 3.125 C5.035 3.125 5.695 3.125 6.375 3.125 C6.375 4.775 6.375 6.425 6.375 8.125 C7.365 8.125 8.355 8.125 9.375 8.125 C9.42916188 9.72879341 9.46786638 11.33311406 9.5 12.9375 C9.52320313 13.83082031 9.54640625 14.72414063 9.5703125 15.64453125 C9.375 18.125 9.375 18.125 7.375 21.125 C7.375 21.785 7.375 22.445 7.375 23.125 C8.035 23.125 8.695 23.125 9.375 23.125 C9.375 25.105 9.375 27.085 9.375 29.125 C6.47859882 29.20620751 3.58449088 29.26559421 0.6875 29.3125 C-0.12912109 29.33763672 -0.94574219 29.36277344 -1.78710938 29.38867188 C-6.52936819 29.44627016 -9.822949 29.3230592 -13.625 26.125 C-13.625 24.125 -13.625 24.125 -11.625 22.125 C-11.46 21.444375 -11.295 20.76375 -11.125 20.0625 C-10.96 19.423125 -10.795 18.78375 -10.625 18.125 C-9.965 17.795 -9.305 17.465 -8.625 17.125 C-7.965 17.455 -7.305 17.785 -6.625 18.125 C-6.955 20.435 -7.285 22.745 -7.625 25.125 C-3.005 25.125 1.615 25.125 6.375 25.125 C6.045 23.92875 5.715 22.7325 5.375 21.5 C4.48234177 17.96708503 4.19203955 14.78420891 4.375 11.125 C4.045 11.785 3.715 12.445 3.375 13.125 C2.715 13.125 2.055 13.125 1.375 13.125 C1.045 10.815 0.715 8.505 0.375 6.125 C-1.605 6.455 -3.585 6.785 -5.625 7.125 C-5.75 4.75 -5.75 4.75 -5.625 2.125 C-3.625 0.125 -3.625 0.125 0 0 Z " fill="#FB9115" transform="translate(198.625,267.875)"/>
<path d="M0 0 C0 9.9 0 19.8 0 30 C-4 28 -4 28 -5.25 25.375 C-5.4975 24.59125 -5.745 23.8075 -6 23 C-6.66 23 -7.32 23 -8 23 C-8.5775 22.175 -9.155 21.35 -9.75 20.5 C-11.80603302 17.64917869 -11.80603302 17.64917869 -15.25 17.6875 C-16.1575 17.790625 -17.065 17.89375 -18 18 C-17.67 16.68 -17.34 15.36 -17 14 C-16.34 14 -15.68 14 -15 14 C-15 13.34 -15 12.68 -15 12 C-13.42578125 10.44921875 -13.42578125 10.44921875 -11.3125 8.6875 C-8.80197706 6.56355316 -6.39176579 4.44498656 -4.125 2.0625 C-2 0 -2 0 0 0 Z " fill="#C5802A" transform="translate(147,213)"/>
<path d="M0 0 C0.66 0 1.32 0 2 0 C2.12375 0.721875 2.2475 1.44375 2.375 2.1875 C2.99113189 4.96009349 3.91731029 7.38129929 5 10 C3.54782324 11.50596108 2.08807139 13.00462104 0.625 14.5 C-0.18710938 15.3353125 -0.99921875 16.170625 -1.8359375 17.03125 C-4 19 -4 19 -6 19 C-6 19.66 -6 20.32 -6 21 C-6.66 21 -7.32 21 -8 21 C-8.20625 21.53625 -8.4125 22.0725 -8.625 22.625 C-10.52581703 25.90822941 -12.97641189 28.69191747 -16 31 C-16.99 31 -17.98 31 -19 31 C-19 30.34 -19 29.68 -19 29 C-19.66 29 -20.32 29 -21 29 C-21 28.34 -21 27.68 -21 27 C-21.66 27 -22.32 27 -23 27 C-23 26.34 -23 25.68 -23 25 C-23.66 25 -24.32 25 -25 25 C-25 24.34 -25 23.68 -25 23 C-25.66 23 -26.32 23 -27 23 C-27.33 22.01 -27.66 21.02 -28 20 C-27.34 20 -26.68 20 -26 20 C-26 20.66 -26 21.32 -26 22 C-25.34 22 -24.68 22 -24 22 C-24 22.66 -24 23.32 -24 24 C-23.34 24 -22.68 24 -22 24 C-22 24.66 -22 25.32 -22 26 C-17.92920792 27.1508314 -17.92920792 27.1508314 -14.125 25.875 C-12.67766492 23.46277487 -12.77582164 21.7648665 -13 19 C-14.98 19.33 -16.96 19.66 -19 20 C-18.67 19.01 -18.34 18.02 -18 17 C-17.01 16.67 -16.02 16.34 -15 16 C-14.67 15.34 -14.34 14.68 -14 14 C-13.34 14 -12.68 14 -12 14 C-12 13.34 -12 12.68 -12 12 C-11.34 12 -10.68 12 -10 12 C-10 11.34 -10 10.68 -10 10 C-9.34 10 -8.68 10 -8 10 C-8 9.34 -8 8.68 -8 8 C-7.34 8 -6.68 8 -6 8 C-6 7.34 -6 6.68 -6 6 C-5.34 6 -4.68 6 -4 6 C-4 5.34 -4 4.68 -4 4 C-3.34 4 -2.68 4 -2 4 C-2 3.34 -2 2.68 -2 2 C-1.34 2 -0.68 2 0 2 C0 1.34 0 0.68 0 0 Z " fill="#E5891E" transform="translate(127,287)"/>
<path d="M0 0 C2.31 0 4.62 0 7 0 C7 0.99 7 1.98 7 3 C7.99 3.33 8.98 3.66 10 4 C9.84660156 5.11375 9.69320313 6.2275 9.53515625 7.375 C8.92693771 12.24074836 8.66688586 17.10392803 8.4375 22 C8.39431641 22.87011719 8.35113281 23.74023438 8.30664062 24.63671875 C8.20175782 26.75768219 8.10049925 28.87882433 8 31 C5.36 31 2.72 31 0 31 C0 20.77 0 10.54 0 0 Z " fill="#1F376A" transform="translate(321,222)"/>
<path d="M0 0 C1.64501355 3.2900271 0.58010343 6.69958244 0.15625 10.2734375 C0.00916744 12.84002816 0.35323501 14.55307244 1 17 C0.67 17.66 0.34 18.32 0 19 C0.66 19 1.32 19 2 19 C2 19.66 2 20.32 2 21 C2.99 21 3.98 21 5 21 C5.33 18.36 5.66 15.72 6 13 C6.639375 13.804375 7.27875 14.60875 7.9375 15.4375 C9.40603502 17.2750504 9.40603502 17.2750504 11 19 C16.3654663 19.4857159 20.97510856 19.06149392 26 17 C26 19.97 26 22.94 26 26 C20.44259266 28.40320317 14.94846756 28.92147769 9 28 C4.04952739 25.98121657 0.11331819 23.21059707 -2.125 18.25 C-3.67381739 12.84473124 -3.28811506 6.81565671 -0.94921875 1.703125 C-0.47935547 0.86007813 -0.47935547 0.86007813 0 0 Z " fill="#1C3362" transform="translate(217,226)"/>
<path d="M0 0 C2.39317827 1.9479358 4.69773598 3.94612839 7 6 C7.8036499 6.70044434 7.8036499 6.70044434 8.62353516 7.41503906 C10.44322486 9.01949665 12.22243614 10.66157947 14 12.3125 C14.60030029 12.83287842 15.20060059 13.35325684 15.8190918 13.8894043 C18.37071775 16.31650646 19.92703479 17.80879493 20.1484375 21.42333984 C19.90199663 23.67167269 19.54378378 25.80601783 19 28 C18.34 28 17.68 28 17 28 C16.67 28.66 16.34 29.32 16 30 C15.67 28.68 15.34 27.36 15 26 C15.66 26 16.32 26 17 26 C17 23.36 17 20.72 17 18 C14.69 18 12.38 18 10 18 C10.66 18.33 11.32 18.66 12 19 C12.125 25.75 12.125 25.75 11 28 C9.33333333 28.66666667 7.66666667 29.33333333 6 30 C5.67 30.66 5.34 31.32 5 32 C4.34 32 3.68 32 3 32 C3 32.66 3 33.32 3 34 C1.02 34.495 1.02 34.495 -1 35 C-1 35.66 -1 36.32 -1 37 C-1.99 36.67 -2.98 36.34 -4 36 C-3.34 36 -2.68 36 -2 36 C-2 35.34 -2 34.68 -2 34 C-1.34 34 -0.68 34 0 34 C0.33 33.01 0.66 32.02 1 31 C1.66 31 2.32 31 3 31 C3 30.34 3 29.68 3 29 C3.66 29 4.32 29 5 29 C5 28.34 5 27.68 5 27 C5.66 27 6.32 27 7 27 C7 26.34 7 25.68 7 25 C7.66 25 8.32 25 9 25 C9 23.35 9 21.7 9 20 C8.34 20 7.68 20 7 20 C7 19.34 7 18.68 7 18 C6.1646875 17.690625 6.1646875 17.690625 5.3125 17.375 C2.07498698 15.44999226 0.31768859 12.96149098 -2 10 C-0.68 10 0.64 10 2 10 C1.01 7.03 0.02 4.06 -1 1 C-0.67 0.67 -0.34 0.34 0 0 Z " fill="#D18020" transform="translate(112,247)"/>
<path d="M0 0 C3.63 0 7.26 0 11 0 C14 6.625 14 6.625 14 10 C13.34 10 12.68 10 12 10 C12 8.35 12 6.7 12 5 C11.34 5 10.68 5 10 5 C9.67 4.34 9.34 3.68 9 3 C6.69 3 4.38 3 2 3 C1.67 4.65 1.34 6.3 1 8 C2.65 7.67 4.3 7.34 6 7 C7.04449911 10.13349732 6.93423645 10.98968256 6 14 C5.67 13.67 5.34 13.34 5 13 C3.35 16.96 1.7 20.92 0 25 C3.3 25 6.6 25 10 25 C9.77183594 24.30132812 9.54367188 23.60265625 9.30859375 22.8828125 C9.02113281 21.97273438 8.73367187 21.06265625 8.4375 20.125 C8.14746094 19.22007812 7.85742188 18.31515625 7.55859375 17.3828125 C7 15 7 15 8 13 C8.66 13 9.32 13 10 13 C10.66 17.62 11.32 22.24 12 27 C7.38 27 2.76 27 -2 27 C-1.67 24.69 -1.34 22.38 -1 20 C-3.38564077 20.57584432 -5.66682784 21.22227595 -8 22 C-8.33 22.99 -8.66 23.98 -9 25 C-8.29272908 20.84281869 -7.04627721 17.0291555 -5.625 13.0625 C-5.20476562 11.87785156 -4.78453125 10.69320313 -4.3515625 9.47265625 C-3.07676959 6.19724904 -1.62577116 3.11368452 0 0 Z " fill="#D3801D" transform="translate(193,266)"/>
<path d="M0 0 C0.33 0.66 0.66 1.32 1 2 C1.66 2 2.32 2 3 2 C3.28875 2.969375 3.5775 3.93875 3.875 4.9375 C4.64214682 8.10664203 4.64214682 8.10664203 7 9 C7 10.32 7 11.64 7 13 C8.98 12.34 10.96 11.68 13 11 C14 12 14 12 14.3125 14.3125 C13.91080481 17.76707866 12.60100327 18.80540349 10 21 C8.02 20.34 6.04 19.68 4 19 C4 18.34 4 17.68 4 17 C3.34 17 2.68 17 2 17 C2 16.34 2 15.68 2 15 C1.34 15 0.68 15 0 15 C0 14.34 0 13.68 0 13 C-0.86625 12.87625 -0.86625 12.87625 -1.75 12.75 C-4.71388479 11.7620384 -6.10091302 10.46177942 -8 8 C-7.82246387 4.98188578 -7.16264785 4.16264785 -5 2 C-2.375 1.875 -2.375 1.875 0 2 C0 1.34 0 0.68 0 0 Z " fill="#F3941C" transform="translate(101,294)"/>
<path d="M0 0 C2.64 0 5.28 0 8 0 C7.67 2.97 7.34 5.94 7 9 C5.68 9.33 4.36 9.66 3 10 C3.33 11.32 3.66 12.64 4 14 C0.72708382 15.95294291 -1.71340798 16.24471499 -5.5 16.1875 C-6.4384375 16.18105469 -7.376875 16.17460937 -8.34375 16.16796875 C-12.60765977 15.89833916 -16.07126239 14.63697401 -20 13 C-20 11.02 -20 9.04 -20 7 C-12.25 7.875 -12.25 7.875 -10 9 C-10 9.66 -10 10.32 -10 11 C-4.555 10.505 -4.555 10.505 1 10 C0.979375 9.05125 0.95875 8.1025 0.9375 7.125 C1 4 1 4 2 2 C1.34 2 0.68 2 0 2 C0 1.34 0 0.68 0 0 Z " fill="#1C3870" transform="translate(202,236)"/>
<path d="M0 0 C4.87384699 0.45338112 7.60413282 1.42057244 11 5 C13.16655843 9.14245971 14.57202847 13.28076511 14 18 C13 19 13 19 10.95874023 19.11352539 C10.08419189 19.10828857 9.20964355 19.10305176 8.30859375 19.09765625 C7.36435547 19.09443359 6.42011719 19.09121094 5.44726562 19.08789062 C3.95743164 19.07532227 3.95743164 19.07532227 2.4375 19.0625 C1.44041016 19.05798828 0.44332031 19.05347656 -0.58398438 19.04882812 C-3.05604849 19.03700007 -5.52799518 19.02051849 -8 19 C-8 18.67 -8 18.34 -8 18 C-2.72 18 2.56 18 8 18 C8 17.34 8 16.68 8 16 C5.0384304 14.5192152 2.16493705 14.64685963 -1.125 14.4375 C-2.40632812 14.35371094 -3.68765625 14.26992187 -5.0078125 14.18359375 C-5.99523437 14.12300781 -6.98265625 14.06242188 -8 14 C-8 13.67 -8 13.34 -8 13 C-4.04 13 -0.08 13 4 13 C3.67 11.35 3.34 9.7 3 8 C0.03 8 -2.94 8 -6 8 C-6 8.66 -6 9.32 -6 10 C-6.99 9.67 -7.98 9.34 -9 9 C-8.67 8.01 -8.34 7.02 -8 6 C-6.741875 5.896875 -5.48375 5.79375 -4.1875 5.6875 C-1.39500343 5.35141192 -0.25566879 5.19974124 2 3.4375 C2.33 2.963125 2.66 2.48875 3 2 C2.01 2 1.02 2 0 2 C0 1.34 0 0.68 0 0 Z " fill="#1E3669" transform="translate(232,220)"/>
<path d="M0 0 C1.32 0.33 2.64 0.66 4 1 C6.67782978 10.42022262 7.98218116 18.33686682 6 28 C3.69 28 1.38 28 -1 28 C-1.33 19.42 -1.66 10.84 -2 2 C-1.34 2 -0.68 2 0 2 C0 1.34 0 0.68 0 0 Z " fill="#1E3970" transform="translate(343,224)"/>
<path d="M0 0 C2.1519437 3.22791555 2.20086443 4.28400809 2 8 C0.68 8 -0.64 8 -2 8 C-2 9.32 -2 10.64 -2 12 C-2.99 12 -3.98 12 -5 12 C-4.74605469 12.56203125 -4.49210938 13.1240625 -4.23046875 13.703125 C-4 16 -4 16 -5.80078125 18.359375 C-7.04408203 19.54273438 -7.04408203 19.54273438 -8.3125 20.75 C-9.13363281 21.54921875 -9.95476562 22.3484375 -10.80078125 23.171875 C-13 25 -13 25 -15 25 C-15 24.34 -15 23.68 -15 23 C-15.66 23 -16.32 23 -17 23 C-17 21.35 -17 19.7 -17 18 C-16.34 18 -15.68 18 -15 18 C-15 17.01 -15 16.02 -15 15 C-14.195625 14.525625 -13.39125 14.05125 -12.5625 13.5625 C-9.8421105 12.26644144 -9.8421105 12.26644144 -9.1875 9.8125 C-9.125625 9.214375 -9.06375 8.61625 -9 8 C-8.01 8 -7.02 8 -6 8 C-6.33 5.69 -6.66 3.38 -7 1 C-4 0 -4 0 0 0 Z " fill="#EB8E1C" transform="translate(137,193)"/>
<path d="M0 0 C0 2.97 0 5.94 0 9 C-7.59 9 -15.18 9 -23 9 C-23 8.01 -23 7.02 -23 6 C-25.33075929 6.95865509 -25.33075929 6.95865509 -27 10 C-29 7 -29 7 -28.625 4.3125 C-28.41875 3.549375 -28.2125 2.78625 -28 2 C-26.1875 1.375 -26.1875 1.375 -24 1 C-23.01 1.66 -22.02 2.32 -21 3 C-17.93505994 3.35636578 -17.93505994 3.35636578 -14.5625 3.3125 C-12.86287109 3.33763672 -12.86287109 3.33763672 -11.12890625 3.36328125 C-6.36860449 2.81058704 -4.96002904 0 0 0 Z " fill="#20386D" transform="translate(316,230)"/>
<path d="M0 0 C1.17219543 0.78345715 2.33763668 1.57702836 3.5 2.375 C4.1496875 2.81585938 4.799375 3.25671875 5.46875 3.7109375 C6.22671875 4.34902344 6.22671875 4.34902344 7 5 C7 5.66 7 6.32 7 7 C7.66 7 8.32 7 9 7 C10.37310707 8.29233607 11.71034824 9.62437146 13 11 C11.7251791 13.84383123 10.54862922 16.13754018 8 18 C3.58263112 17.80191171 1.10379019 14.43735031 -1.75 11.4375 C-2.25660156 10.91736328 -2.76320313 10.39722656 -3.28515625 9.86132812 C-4.53034405 8.58089916 -5.76611502 7.29132446 -7 6 C-5 5 -5 5 -2 5 C-1.34 4.67 -0.68 4.34 0 4 C0 2.68 0 1.36 0 0 Z " fill="#F8931A" transform="translate(116,228)"/>
<path d="M0 0 C0.99 0.33 1.98 0.66 3 1 C2.67 3.64 2.34 6.28 2 9 C1.34 9 0.68 9 0 9 C0 9.66 0 10.32 0 11 C-0.66 11 -1.32 11 -2 11 C-2.226875 11.556875 -2.45375 12.11375 -2.6875 12.6875 C-4.35896766 15.63246684 -6.55276352 17.68156544 -9 20 C-9.99 19.67 -10.98 19.34 -12 19 C-13.3125 16.125 -13.3125 16.125 -14 13 C-13.34 12.01 -12.68 11.02 -12 10 C-10.68 10 -9.36 10 -8 10 C-8 9.01 -8 8.02 -8 7 C-7.34 6.67 -6.68 6.34 -6 6 C-6 5.34 -6 4.68 -6 4 C-4.35 3.67 -2.7 3.34 -1 3 C-0.67 2.01 -0.34 1.02 0 0 Z " fill="#EC8E1D" transform="translate(142,276)"/>
<path d="M0 0 C3.80635497 3.20760251 7.54563567 6.40746109 11 10 C9.60249952 13.15835107 7.94801766 15.32272825 5.5 17.75 C4.58734375 18.67039063 4.58734375 18.67039063 3.65625 19.609375 C2 21 2 21 0 21 C0 20.01 0 19.02 0 18 C0.99 18 1.98 18 3 18 C2.505 15.525 2.505 15.525 2 13 C4.475 13.495 4.475 13.495 7 14 C6.34 11.36 5.68 8.72 5 6 C3.02 6.66 1.04 7.32 -1 8 C-0.7215625 8.928125 -0.7215625 8.928125 -0.4375 9.875 C0 12 0 12 -1 14 C-1.99 13.67 -2.98 13.34 -4 13 C-3.67 11.68 -3.34 10.36 -3 9 C-5.19914497 8.40802387 -5.19914497 8.40802387 -8 9 C-10.02017741 10.69694902 -11.76899016 12.52080661 -13.546875 14.46875 C-14.02640625 14.9740625 -14.5059375 15.479375 -15 16 C-15.33 16 -15.66 16 -16 16 C-16.3125 13.6875 -16.3125 13.6875 -16 11 C-13.5625 9.3125 -13.5625 9.3125 -11 8 C-10.67 7.34 -10.34 6.68 -10 6 C-7.71484375 5.3671875 -7.71484375 5.3671875 -4.9375 4.875 C-4.01839844 4.70742187 -3.09929687 4.53984375 -2.15234375 4.3671875 C-1.44207031 4.24601563 -0.73179687 4.12484375 0 4 C0 2.68 0 1.36 0 0 Z " fill="#DE8A22" transform="translate(132,187)"/>
<path d="M0 0 C1.93359375 1.09765625 1.93359375 1.09765625 4.80859375 3.09765625 C2.10748973 4.44820826 -0.19929631 4.09765625 -3.19140625 4.09765625 C-3.19140625 3.10765625 -3.19140625 2.11765625 -3.19140625 1.09765625 C-5.17140625 1.42765625 -7.15140625 1.75765625 -9.19140625 2.09765625 C-8.20140625 2.42765625 -7.21140625 2.75765625 -6.19140625 3.09765625 C-6.19140625 3.75765625 -6.19140625 4.41765625 -6.19140625 5.09765625 C-5.20140625 5.42765625 -4.21140625 5.75765625 -3.19140625 6.09765625 C-3.52140625 6.75765625 -3.85140625 7.41765625 -4.19140625 8.09765625 C-4.78308594 8.06285156 -5.37476563 8.02804688 -5.984375 7.9921875 C-11.02397947 7.819542 -13.98156037 8.03595016 -18.19140625 11.09765625 C-18.85140625 11.09765625 -19.51140625 11.09765625 -20.19140625 11.09765625 C-20.19140625 8.12765625 -20.19140625 5.15765625 -20.19140625 2.09765625 C-13.70311426 -0.78602908 -6.89279306 -2.83820891 0 0 Z " fill="#182E5C" transform="translate(408.19140625,220.90234375)"/>
<path d="M0 0 C0.66 0 1.32 0 2 0 C2.33 0.99 2.66 1.98 3 3 C2.01 3.33 1.02 3.66 0 4 C0 4.66 0 5.32 0 6 C0.99 6.33 1.98 6.66 3 7 C3.66 7.66 4.32 8.32 5 9 C4.34 9.66 3.68 10.32 3 11 C2.53993654 13.20250992 2.53993654 13.20250992 2.375 15.625 C2.25125 17.06875 2.1275 18.5125 2 20 C-1.3 20 -4.6 20 -8 20 C-7.34496718 15.94180817 -6.05440879 12.46028718 -4.4375 8.6875 C-3.75494141 7.08455078 -3.75494141 7.08455078 -3.05859375 5.44921875 C-2.53458984 4.23685547 -2.53458984 4.23685547 -2 3 C-1.34 3 -0.68 3 0 3 C0 2.01 0 1.02 0 0 Z " fill="#F09422" transform="translate(185,288)"/>
<path d="M0 0 C3 1 3 1 5 4 C5.63792797 8.65351665 6.05817332 13.70437607 4.0546875 18.05078125 C0.86265678 22.09602773 -2.78590842 23.73406163 -7.796875 24.3359375 C-14.95385857 24.43060659 -19.67566585 23.37297821 -26 20 C-26 16.7 -26 13.4 -26 10 C-23.525 10.99 -23.525 10.99 -21 12 C-21.99 12.33 -22.98 12.66 -24 13 C-23.67 14.98 -23.34 16.96 -23 19 C-20.03 19.33 -17.06 19.66 -14 20 C-14 20.33 -14 20.66 -14 21 C-12.56344146 21.08131463 -11.1255517 21.13933559 -9.6875 21.1875 C-8.88699219 21.22230469 -8.08648437 21.25710937 -7.26171875 21.29296875 C-4.48372541 20.93312505 -3.70572785 20.16758647 -2 18 C-1.67 17.34 -1.34 16.68 -1 16 C-0.01 15.67 0.98 15.34 2 15 C2.80563638 12.89415562 2.80563638 12.89415562 3.1875 10.4375 C3.34605469 9.61121094 3.50460938 8.78492188 3.66796875 7.93359375 C3.83232422 6.97646484 3.83232422 6.97646484 4 6 C3.01 6 2.02 6 1 6 C1.33 4.68 1.66 3.36 2 2 C1.34 2 0.68 2 0 2 C0 1.34 0 0.68 0 0 Z " fill="#1A2C56" transform="translate(206,230)"/>
<path d="M0 0 C0 0.66 0 1.32 0 2 C0.66 2 1.32 2 2 2 C1.88140625 2.59167969 1.7628125 3.18335938 1.640625 3.79296875 C0.68827643 9.13713927 0.68827643 9.13713927 2.9375 13.9375 C3.618125 14.618125 4.29875 15.29875 5 16 C5 16.66 5 17.32 5 18 C5.99 18.33 6.98 18.66 8 19 C8 20.65 8 22.3 8 24 C7.34 23.67 6.68 23.34 6 23 C6 22.34 6 21.68 6 21 C5.030625 20.7525 4.06125 20.505 3.0625 20.25 C2.051875 19.8375 1.04125 19.425 0 19 C-0.875 16.875 -0.875 16.875 -1 15 C-1.99 15 -2.98 15 -4 15 C-5.73219928 13.26780072 -5.21291761 10.97973192 -5.25 8.625 C-5.28867188 7.15933594 -5.28867188 7.15933594 -5.328125 5.6640625 C-5 3 -5 3 -3.609375 1.1484375 C-2 0 -2 0 0 0 Z " fill="#F99214" transform="translate(92,218)"/>
<path d="M0 0 C2.97 0 5.94 0 9 0 C9.33 4.29 9.66 8.58 10 13 C11.32 12.34 12.64 11.68 14 11 C19.71276096 10.53929347 22.97067506 10.98240504 28 14 C27.67 14.66 27.34 15.32 27 16 C26.43796875 15.83628906 25.8759375 15.67257813 25.296875 15.50390625 C22.86940944 14.97135003 20.73110319 14.90101319 18.25 14.9375 C17.05117188 14.95103516 17.05117188 14.95103516 15.828125 14.96484375 C15.22484375 14.97644531 14.6215625 14.98804688 14 15 C13.67 15.99 13.34 16.98 13 18 C14.65 18 16.3 18 18 18 C18 18.33 18 18.66 18 19 C17.05125 19.268125 16.1025 19.53625 15.125 19.8125 C11.74732727 20.74986588 11.74732727 20.74986588 10 24 C9.60612212 26.32387947 9.26513915 28.65793749 9 31 C8.67 31 8.34 31 8 31 C7.94597726 28.89611431 7.90719744 26.79183286 7.875 24.6875 C7.85179687 23.51574219 7.82859375 22.34398437 7.8046875 21.13671875 C8 18 8 18 10 15 C9.34 15 8.68 15 8 15 C8 10.38 8 5.76 8 1 C5.36 1 2.72 1 0 1 C0 0.67 0 0.34 0 0 Z " fill="#172B54" transform="translate(250,209)"/>
<path d="M0 0 C0.33 0.66 0.66 1.32 1 2 C0.67 2.66 0.34 3.32 0 4 C-0.66 4 -1.32 4 -2 4 C-2.33 5.32 -2.66 6.64 -3 8 C0.89459074 8.21081851 0.89459074 8.21081851 4 7 C3.67 5.68 3.34 4.36 3 3 C3.99 3.33 4.98 3.66 6 4 C6.33 4.99 6.66 5.98 7 7 C3.37 10.63 -0.26 14.26 -4 18 C-5 15 -5 15 -5 13 C-6.65 12.67 -8.3 12.34 -10 12 C-10.226875 12.804375 -10.45375 13.60875 -10.6875 14.4375 C-11.3371875 15.7059375 -11.3371875 15.7059375 -12 17 C-14.625 17.8125 -14.625 17.8125 -17 18 C-11.72898586 11.58930713 -5.90871848 5.81409488 0 0 Z " fill="#C67B24" transform="translate(109,197)"/>
<path d="M0 0 C0.33 0 0.66 0 1 0 C1 5.94 1 11.88 1 18 C0.34 18 -0.32 18 -1 18 C-1.66 16.35 -2.32 14.7 -3 13 C-3.66 13 -4.32 13 -5 13 C-8 9.53846154 -8 9.53846154 -8 7 C-8.66 7 -9.32 7 -10 7 C-9.67 6.01 -9.34 5.02 -9 4 C-8.34 3.67 -7.68 3.34 -7 3 C-7 2.34 -7 1.68 -7 1 C-5.35 1 -3.7 1 -2 1 C-2 1.66 -2 2.32 -2 3 C-1.34 3 -0.68 3 0 3 C0 2.01 0 1.02 0 0 Z " fill="#F1901C" transform="translate(144,223)"/>
<path d="M0 0 C1.64501355 3.2900271 0.58010343 6.69958244 0.15625 10.2734375 C0.00916744 12.84002816 0.35323501 14.55307244 1 17 C0.67 17.66 0.34 18.32 0 19 C0.66 19 1.32 19 2 19 C2 19.66 2 20.32 2 21 C2.99 21 3.98 21 5 21 C5.33 18.36 5.66 15.72 6 13 C6.639375 13.804375 7.27875 14.60875 7.9375 15.4375 C10.57702485 18.71690966 10.9883514 19.10981682 15.0625 19.5625 C16.361875 19.706875 17.66125 19.85125 19 20 C19 20.33 19 20.66 19 21 C15.37 21 11.74 21 8 21 C7.67 22.65 7.34 24.3 7 26 C3.66098159 25.07249489 2.0911505 24.10127833 -0.25 21.5 C-2.82821098 16.34357805 -3.82818383 11.24983526 -2.3828125 5.578125 C-1.67729071 3.68329505 -0.84945428 1.83482124 0 0 Z " fill="#1C3464" transform="translate(217,226)"/>
<path d="M0 0 C2.57966596 2.57966596 3.33609844 5.09307892 4.625 8.5 C5.07101563 9.6653125 5.51703125 10.830625 5.9765625 12.03125 C7 15 7 15 7 17 C3.7 17 0.4 17 -3 17 C-6 11.375 -6 11.375 -6 8 C-7.32 7.67 -8.64 7.34 -10 7 C-7.6875 6.8125 -7.6875 6.8125 -5 7 C-3.97980427 7.9793879 -2.97850195 8.97895449 -2 10 C-0.68 10 0.64 10 2 10 C1.01 7.03 0.02 4.06 -1 1 C-0.67 0.67 -0.34 0.34 0 0 Z " fill="#D88B26" transform="translate(213,291)"/>
<path d="M0 0 C1.051875 -0.02126953 1.051875 -0.02126953 2.125 -0.04296875 C4 0.1875 4 0.1875 6 2.1875 C3.36 2.1875 0.72 2.1875 -2 2.1875 C-2.66 3.5075 -3.32 4.8275 -4 6.1875 C-1.03 6.6825 -1.03 6.6825 2 7.1875 C2.33 8.5075 2.66 9.8275 3 11.1875 C2.34 10.8575 1.68 10.5275 1 10.1875 C1 9.5275 1 8.8675 1 8.1875 C-3.60742865 9.39794132 -3.60742865 9.39794132 -8 11.1875 C-8 9.5375 -8 7.8875 -8 6.1875 C-8.66 5.8575 -9.32 5.5275 -10 5.1875 C-10 4.1975 -10 3.2075 -10 2.1875 C-12.31 2.1875 -14.62 2.1875 -17 2.1875 C-17 12.4175 -17 22.6475 -17 33.1875 C-17.33 33.1875 -17.66 33.1875 -18 33.1875 C-18 22.6275 -18 12.0675 -18 1.1875 C-14 1.1875 -10 1.1875 -6 1.1875 C-3.77109005 0.07304502 -2.46944894 0.02269714 0 0 Z " fill="#112344" transform="translate(338,219.8125)"/>
<path d="M0 0 C0.5534764 2.07553648 1 3.84365964 1 6 C8.59 6 16.18 6 24 6 C23.67 5.01 23.34 4.02 23 3 C16.07 2.505 16.07 2.505 9 2 C9 1.67 9 1.34 9 1 C14.61 1 20.22 1 26 1 C26 3.31 26 5.62 26 8 C16.76 8 7.52 8 -2 8 C-2 5.69 -2 3.38 -2 1 C-1.34 0.67 -0.68 0.34 0 0 Z " fill="#1D325B" transform="translate(357,245)"/>
<path d="M0 0 C0.66 0.33 1.32 0.66 2 1 C1.67 1.66 1.34 2.32 1 3 C0.34 3 -0.32 3 -1 3 C-1.33 4.98 -1.66 6.96 -2 9 C-1.38125 8.649375 -0.7625 8.29875 -0.125 7.9375 C0.57625 7.628125 1.2775 7.31875 2 7 C2.66 7.33 3.32 7.66 4 8 C3.67 7.01 3.34 6.02 3 5 C4.32 4.34 5.64 3.68 7 3 C7 3.66 7 4.32 7 5 C7.66 5.33 8.32 5.66 9 6 C8.34 6 7.68 6 7 6 C7 6.66 7 7.32 7 8 C6.34 8 5.68 8 5 8 C5 8.66 5 9.32 5 10 C4.34 10 3.68 10 3 10 C3 10.66 3 11.32 3 12 C2.34 12 1.68 12 1 12 C1 13.98 1 15.96 1 18 C0.34 17.67 -0.32 17.34 -1 17 C-1.625 13.9375 -1.625 13.9375 -2 11 C-4.31 11 -6.62 11 -9 11 C-8.57847656 10.51789063 -8.15695313 10.03578125 -7.72265625 9.5390625 C-7.17480469 8.90742188 -6.62695312 8.27578125 -6.0625 7.625 C-5.51722656 6.99851562 -4.97195312 6.37203125 -4.41015625 5.7265625 C-2.93041376 4.04367666 -2.93041376 4.04367666 -2 2 C-1.34 2 -0.68 2 0 2 C0 1.34 0 0.68 0 0 Z " fill="#C27B20" transform="translate(106,285)"/>
<path d="M0 0 C2.1519437 3.22791555 2.20086443 4.28400809 2 8 C0.68 8 -0.64 8 -2 8 C-2 9.32 -2 10.64 -2 12 C-3.98 12.33 -5.96 12.66 -8 13 C-8.66 12.01 -9.32 11.02 -10 10 C-9.67 9.34 -9.34 8.68 -9 8 C-8.01 8 -7.02 8 -6 8 C-6.33 5.69 -6.66 3.38 -7 1 C-4 0 -4 0 0 0 Z " fill="#FA9215" transform="translate(137,193)"/>
<path d="M0 0 C1.98 0.495 1.98 0.495 4 1 C4 1.99 4 2.98 4 4 C5.98 3.34 7.96 2.68 10 2 C11 3 11 3 11.3125 5.3125 C10.91080481 8.76707866 9.60100327 9.80540349 7 12 C4.125 11.5 4.125 11.5 1 10 C-0.23119845 7.41721926 -0.80401535 4.85068583 -1 2 C-0.67 1.34 -0.34 0.68 0 0 Z " fill="#FB9215" transform="translate(104,303)"/>
<path d="M0 0 C1.32 0 2.64 0 4 0 C4 0.66 4 1.32 4 2 C4.66 2 5.32 2 6 2 C6 2.66 6 3.32 6 4 C6.66 4 7.32 4 8 4 C8 4.66 8 5.32 8 6 C8.66 6 9.32 6 10 6 C10.33 7.32 10.66 8.64 11 10 C11.66 10 12.32 10 13 10 C13 11.32 13 12.64 13 14 C10.69 13.67 8.38 13.34 6 13 C5.67 11.35 5.34 9.7 5 8 C4.01 7.67 3.02 7.34 2 7 C0 4 0 4 0 0 Z " fill="#F8931B" transform="translate(94,257)"/>
<path d="M0 0 C0.33 1.32 0.66 2.64 1 4 C-2.75 7 -2.75 7 -5 7 C-5 7.99 -5 8.98 -5 10 C-5.66 10 -6.32 10 -7 10 C-6.67 10.99 -6.34 11.98 -6 13 C-6.33 13.66 -6.66 14.32 -7 15 C-6.34 15 -5.68 15 -5 15 C-4.67 15.99 -4.34 16.98 -4 18 C-4.75796875 18.72316406 -4.75796875 18.72316406 -5.53125 19.4609375 C-6.50578125 20.40839844 -6.50578125 20.40839844 -7.5 21.375 C-8.1496875 22.00148437 -8.799375 22.62796875 -9.46875 23.2734375 C-11.22117431 24.86475907 -11.22117431 24.86475907 -11 27 C-11.66 27 -12.32 27 -13 27 C-13 25.68 -13 24.36 -13 23 C-12.34 23 -11.68 23 -11 23 C-11 22.34 -11 21.68 -11 21 C-11.66 20.67 -12.32 20.34 -13 20 C-12.01 19.1028125 -12.01 19.1028125 -11 18.1875 C-8.6626154 16.12498166 -8.6626154 16.12498166 -9 13 C-9.66 12.34 -10.32 11.68 -11 11 C-7.37 7.37 -3.74 3.74 0 0 Z " fill="#DA8624" transform="translate(127,201)"/>
<path d="M0 0 C0.99 0 1.98 0 3 0 C3.33 1.65 3.66 3.3 4 5 C4.66 5 5.32 5 6 5 C6.33 6.32 6.66 7.64 7 9 C6.34 9 5.68 9 5 9 C5 9.66 5 10.32 5 11 C4.34 11 3.68 11 3 11 C3 11.66 3 12.32 3 13 C2.34 13 1.68 13 1 13 C1 11.02 1 9.04 1 7 C0.34 7 -0.32 7 -1 7 C-1.33 7.66 -1.66 8.32 -2 9 C-4.5625 9.625 -4.5625 9.625 -7 10 C-6.67 11.65 -6.34 13.3 -6 15 C-6.33 14.34 -6.66 13.68 -7 13 C-7.66 13 -8.32 13 -9 13 C-9 13.99 -9 14.98 -9 16 C-10.65 16.33 -12.3 16.66 -14 17 C-14 16.34 -14 15.68 -14 15 C-13.34 15 -12.68 15 -12 15 C-12 14.34 -12 13.68 -12 13 C-11.34 13 -10.68 13 -10 13 C-10 12.34 -10 11.68 -10 11 C-9.34 11 -8.68 11 -8 11 C-8 10.34 -8 9.68 -8 9 C-6.29059971 7.39771617 -4.46698472 5.98705258 -2.62890625 4.53515625 C-0.73441742 2.99243114 -0.73441742 2.99243114 0 0 Z " fill="#D58523" transform="translate(143,270)"/>
<path d="M0 0 C0.66 0.33 1.32 0.66 2 1 C1.95875 1.9075 1.9175 2.815 1.875 3.75 C1.99531556 6.8782046 2.3914708 8.38614006 4 11 C4.66 11 5.32 11 6 11 C6 11.66 6 12.32 6 13 C6.56203125 13.23460937 7.1240625 13.46921875 7.703125 13.7109375 C10.54635891 15.30663 12.48098127 17.28924543 14.75 19.625 C15.54921875 20.44226563 16.3484375 21.25953125 17.171875 22.1015625 C17.77515625 22.72804687 18.3784375 23.35453125 19 24 C16.50907189 25.24546405 15.58919267 24.7767578 13 24 C13 23.01 13 22.02 13 21 C12.38125 21.20625 11.7625 21.4125 11.125 21.625 C10.42375 21.74875 9.7225 21.8725 9 22 C7 20 7 20 6.625 17.625 C5.8420533 14.33662384 4.46811092 13.25033642 2 11 C0.1875 9.1875 0.1875 9.1875 -1 7 C-0.6875 3.25 -0.6875 3.25 0 0 Z " fill="#CA822A" transform="translate(93,222)"/>
<path d="M0 0 C5.53846154 0.61538462 5.53846154 0.61538462 7.875 2.5625 C8.431875 3.2740625 8.431875 3.2740625 9 4 C7.68 3.67 6.36 3.34 5 3 C5.165 3.886875 5.33 4.77375 5.5 5.6875 C6 9 6 9 6 14 C1.38 14 -3.24 14 -8 14 C-8 13.67 -8 13.34 -8 13 C-4.04 13 -0.08 13 4 13 C3.67 11.35 3.34 9.7 3 8 C0.03 8 -2.94 8 -6 8 C-6 8.66 -6 9.32 -6 10 C-6.99 9.67 -7.98 9.34 -9 9 C-8.67 8.01 -8.34 7.02 -8 6 C-6.741875 5.896875 -5.48375 5.79375 -4.1875 5.6875 C-1.39500343 5.35141192 -0.25566879 5.19974124 2 3.4375 C2.33 2.963125 2.66 2.48875 3 2 C2.01 2 1.02 2 0 2 C0 1.34 0 0.68 0 0 Z " fill="#162A55" transform="translate(232,220)"/>
<path d="M0 0 C1.9375 0.6875 1.9375 0.6875 4 2 C4.75 4.625 4.75 4.625 5 7 C5.99 7 6.98 7 8 7 C8 7.66 8 8.32 8 9 C9.32 8.67 10.64 8.34 12 8 C12.33 9.32 12.66 10.64 13 12 C11.3973218 12.10824843 9.79254252 12.18570645 8.1875 12.25 C7.29417969 12.29640625 6.40085937 12.3428125 5.48046875 12.390625 C3 12 3 12 1.1875 10.25 C-0.68391993 6.70415171 -0.19806715 3.961343 0 0 Z " fill="#1D3873" transform="translate(389,240)"/>
<path d="M0 0 C1.17219543 0.78345715 2.33763668 1.57702836 3.5 2.375 C4.1496875 2.81585938 4.799375 3.25671875 5.46875 3.7109375 C6.22671875 4.34902344 6.22671875 4.34902344 7 5 C7 5.66 7 6.32 7 7 C7.66 7 8.32 7 9 7 C10.37310707 8.29233607 11.71034824 9.62437146 13 11 C12.34 12.32 11.68 13.64 11 15 C8.22017379 13.6100869 8.12536659 11.81341647 7 9 C6.34 8.67 5.68 8.34 5 8 C5 7.34 5 6.68 5 6 C3.68 6.33 2.36 6.66 1 7 C0.67 8.32 0.34 9.64 0 11 C0.99 11.33 1.98 11.66 3 12 C2.34 12.66 1.68 13.32 1 14 C-1.64 11.36 -4.28 8.72 -7 6 C-5 5 -5 5 -2 5 C-1.34 4.67 -0.68 4.34 0 4 C0 2.68 0 1.36 0 0 Z " fill="#CE872D" transform="translate(116,228)"/>
<path d="M0 0 C2.97 0.495 2.97 0.495 6 1 C6 1.99 6 2.98 6 4 C8.97 4.495 8.97 4.495 12 5 C12.88935377 8.303314 13.46274105 11.62294375 14 15 C10.17647894 13.4422692 7.70794407 11.08404742 5 8 C5 7.01 5 6.02 5 5 C3.68 4.67 2.36 4.34 1 4 C0.67 2.68 0.34 1.36 0 0 Z " fill="#F99215" transform="translate(100,242)"/>
<path d="M0 0 C0.66 0 1.32 0 2 0 C2.12375 0.721875 2.2475 1.44375 2.375 2.1875 C2.9904931 4.95721894 3.88444374 7.3970354 5 10 C2.69 12.31 0.38 14.62 -2 17 C-2.33 16.34 -2.66 15.68 -3 15 C-2.67 14.01 -2.34 13.02 -2 12 C-1.34 11.67 -0.68 11.34 0 11 C-0.33 10.01 -0.66 9.02 -1 8 C-3.31 8.66 -5.62 9.32 -8 10 C-8 9.34 -8 8.68 -8 8 C-7.34 8 -6.68 8 -6 8 C-6 7.34 -6 6.68 -6 6 C-5.34 6 -4.68 6 -4 6 C-4 5.34 -4 4.68 -4 4 C-3.34 4 -2.68 4 -2 4 C-2 3.34 -2 2.68 -2 2 C-1.34 2 -0.68 2 0 2 C0 1.34 0 0.68 0 0 Z " fill="#B66E1A" transform="translate(127,287)"/>
<path d="M0 0 C0.66 0.99 1.32 1.98 2 3 C4.05925139 3.72382467 4.05925139 3.72382467 6 4 C6.66 2.68 7.32 1.36 8 0 C8.99 0.66 9.98 1.32 11 2 C10.01 2.66 9.02 3.32 8 4 C7.01 5.485 7.01 5.485 6 7 C5.34 7 4.68 7 4 7 C4 6.34 4 5.68 4 5 C2.02 5.99 2.02 5.99 0 7 C-0.09038099 12.15171623 0.15318867 16.91913204 1 22 C-1.87269236 19.37710698 -2.88432071 17.43709274 -3.203125 13.4765625 C-3.35795836 4.05753302 -3.35795836 4.05753302 0 0 Z " fill="#1B3361" transform="translate(288,226)"/>
<path d="M0 0 C0.66 0.33 1.32 0.66 2 1 C1.57316368 2.27445454 1.13302798 3.54445882 0.6875 4.8125 C0.44386719 5.52019531 0.20023438 6.22789062 -0.05078125 6.95703125 C-1.08178003 9.17601216 -2.10889989 10.45892356 -4 12 C-4.66 12 -5.32 12 -6 12 C-6.33 10.68 -6.66 9.36 -7 8 C-7.99 8 -8.98 8 -10 8 C-10.33 8.66 -10.66 9.32 -11 10 C-11 9.01 -11 8.02 -11 7 C-10.01 6.67 -9.02 6.34 -8 6 C-6.30117552 3.50240018 -6.30117552 3.50240018 -5 1 C-3.35 1.33 -1.7 1.66 0 2 C0 1.34 0 0.68 0 0 Z " fill="#EC8F1C" transform="translate(104,208)"/>
<path d="M0 0 C0.99 0 1.98 0 3 0 C3.73080266 1.97746603 4.39421747 3.98072489 5 6 C4.67 6.66 4.34 7.32 4 8 C3.01 7.67 2.02 7.34 1 7 C0.34 7.66 -0.32 8.32 -1 9 C-1 9.66 -1 10.32 -1 11 C-2.98 11.33 -4.96 11.66 -7 12 C-6.67 10.02 -6.34 8.04 -6 6 C-5.34 6 -4.68 6 -4 6 C-3.67 4.68 -3.34 3.36 -3 2 C-2.01 2 -1.02 2 0 2 C0 1.34 0 0.68 0 0 Z " fill="#F39322" transform="translate(111,282)"/>
<path d="M0 0 C0.99 0.495 0.99 0.495 2 1 C2 1.66 2 2.32 2 3 C2.66 3 3.32 3 4 3 C4 3.66 4 4.32 4 5 C4.66 5 5.32 5 6 5 C6 5.66 6 6.32 6 7 C6.66 7 7.32 7 8 7 C8 7.66 8 8.32 8 9 C8.66 9 9.32 9 10 9 C10 9.66 10 10.32 10 11 C10.66 11 11.32 11 12 11 C12 11.66 12 12.32 12 13 C12.66 13 13.32 13 14 13 C14 13.66 14 14.32 14 15 C14.66 15 15.32 15 16 15 C15.01 17.475 15.01 17.475 14 20 C13.34 20 12.68 20 12 20 C12 20.66 12 21.32 12 22 C9.11424181 21.60196439 8.17810487 21.20990931 6.25 18.9375 C5.8375 18.298125 5.425 17.65875 5 17 C7.31 17.33 9.62 17.66 12 18 C12 16.68 12 15.36 12 14 C11.34 14 10.68 14 10 14 C9.67 12.68 9.34 11.36 9 10 C8.34 10 7.68 10 7 10 C7 9.34 7 8.68 7 8 C6.34 8 5.68 8 5 8 C5 7.34 5 6.68 5 6 C4.34 6 3.68 6 3 6 C3 5.34 3 4.68 3 4 C2.01 4 1.02 4 0 4 C0 2.68 0 1.36 0 0 Z " fill="#AA762B" transform="translate(95,253)"/>
<path d="M0 0 C2.64 0.33 5.28 0.66 8 1 C8 3.64 8 6.28 8 9 C7.34 9 6.68 9 6 9 C6.33 10.32 6.66 11.64 7 13 C5.35 13 3.7 13 2 13 C0.68374806 10.36749612 1.25186342 9.19820944 1.9375 6.375 C2.13214844 5.55773437 2.32679687 4.74046875 2.52734375 3.8984375 C2.68332031 3.27195312 2.83929688 2.64546875 3 2 C2.01 1.67 1.02 1.34 0 1 C0 0.67 0 0.34 0 0 Z " fill="#FA9110" transform="translate(121,264)"/>
<path d="M0 0 C3.63 0 7.26 0 11 0 C14 6.625 14 6.625 14 10 C13.34 10 12.68 10 12 10 C12 8.35 12 6.7 12 5 C11.34 5 10.68 5 10 5 C9.67 4.34 9.34 3.68 9 3 C6.69 3 4.38 3 2 3 C1.34 5.31 0.68 7.62 0 10 C-0.66 10 -1.32 10 -2 10 C-2 10.66 -2 11.32 -2 12 C-2.66 12 -3.32 12 -4 12 C-2.86254321 7.8564074 -1.60099519 4.00248799 0 0 Z " fill="#B57526" transform="translate(193,266)"/>
<path d="M0 0 C0 0.99 0 1.98 0 3 C-0.66 3 -1.32 3 -2 3 C-2 3.66 -2 4.32 -2 5 C0.64 5 3.28 5 6 5 C5.01 5.33 4.02 5.66 3 6 C3 6.66 3 7.32 3 8 C5.64 8 8.28 8 11 8 C11 8.33 11 8.66 11 9 C7 9 3 9 -1 9 C-1.99 9.495 -1.99 9.495 -3 10 C-6.5 10.1875 -6.5 10.1875 -10 10 C-10.66 9.34 -11.32 8.68 -12 8 C-8.7 8 -5.4 8 -2 8 C-2.33 6.68 -2.66 5.36 -3 4 C-4.32 4.33 -5.64 4.66 -7 5 C-7.33 3.68 -7.66 2.36 -8 1 C-6.865625 1.020625 -5.73125 1.04125 -4.5625 1.0625 C-1.18424326 1.41577477 -1.18424326 1.41577477 0 0 Z " fill="#162A50" transform="translate(404,244)"/>
<path d="M0 0 C0.66 0 1.32 0 2 0 C2.19635974 3.45789054 2.38058252 6.91632197 2.5625 10.375 C2.61857422 11.35984375 2.67464844 12.3446875 2.73242188 13.359375 C2.78076172 14.30039063 2.82910156 15.24140625 2.87890625 16.2109375 C2.9260376 17.08024902 2.97316895 17.94956055 3.02172852 18.84521484 C3 21 3 21 2 23 C-0.64 23 -3.28 23 -6 23 C-6 22.34 -6 21.68 -6 21 C-4.02 21 -2.04 21 0 21 C-0.05329468 20.15236084 -0.05329468 20.15236084 -0.10766602 19.28759766 C-0.26501802 16.73371428 -0.41386008 14.1794046 -0.5625 11.625 C-0.61857422 10.73554688 -0.67464844 9.84609375 -0.73242188 8.9296875 C-0.78076172 8.07890625 -0.82910156 7.228125 -0.87890625 6.3515625 C-0.9260376 5.56604004 -0.97316895 4.78051758 -1.02172852 3.97119141 C-1 2 -1 2 0 0 Z " fill="#1F3360" transform="translate(413,229)"/>
<path d="M0 0 C0.99 0.33 1.98 0.66 3 1 C3.33 1.99 3.66 2.98 4 4 C0.37 7.63 -3.26 11.26 -7 15 C-8 12 -8 12 -8 8 C-7.67 7.34 -7.34 6.68 -7 6 C-5.34608154 5.60828247 -3.67654729 5.27942455 -2 5 C-1.01 4.67 -0.02 4.34 1 4 C0.67 2.68 0.34 1.36 0 0 Z " fill="#CE8728" transform="translate(112,200)"/>
<path d="M0 0 C2.31 1.98 4.62 3.96 7 6 C5.28771067 9.42457867 4.12304686 11.14918235 1.5 13.75 C0.58734375 14.67039063 0.58734375 14.67039063 -0.34375 15.609375 C-2 17 -2 17 -4 17 C-4 16.01 -4 15.02 -4 14 C-3.01 14 -2.02 14 -1 14 C-1.33 12.35 -1.66 10.7 -2 9 C-0.35 9.33 1.3 9.66 3 10 C2.690625 9.0925 2.38125 8.185 2.0625 7.25 C1.28175145 4.86182795 0.60938416 2.43753666 0 0 Z " fill="#D88F2D" transform="translate(136,191)"/>
<path d="M0 0 C0.99 0.33 1.98 0.66 3 1 C2.67 3.31 2.34 5.62 2 8 C1.195625 8.28875 0.39125 8.5775 -0.4375 8.875 C-3.1326468 9.73262568 -3.1326468 9.73262568 -4 12 C-4.66 12 -5.32 12 -6 12 C-6 12.66 -6 13.32 -6 14 C-7.32 14.33 -8.64 14.66 -10 15 C-10 15.66 -10 16.32 -10 17 C-10.99 16.67 -11.98 16.34 -13 16 C-12.34 16 -11.68 16 -11 16 C-11 15.34 -11 14.68 -11 14 C-10.34 14 -9.68 14 -9 14 C-8.67 13.01 -8.34 12.02 -8 11 C-7.34 11 -6.68 11 -6 11 C-6 10.34 -6 9.68 -6 9 C-5.34 9 -4.68 9 -4 9 C-4 8.34 -4 7.68 -4 7 C-3.34 7 -2.68 7 -2 7 C-2 6.34 -2 5.68 -2 5 C-1.34 5 -0.68 5 0 5 C0 3.35 0 1.7 0 0 Z " fill="#B56D22" transform="translate(121,267)"/>
<path d="M0 0 C0.99 0.33 1.98 0.66 3 1 C3.36923077 8.38461538 3.36923077 8.38461538 1.5 11.5 C1.005 11.995 0.51 12.49 0 13 C0 12.01 0 11.02 0 10 C-0.66 10 -1.32 10 -2 10 C-2.33 10.99 -2.66 11.98 -3 13 C-3.28358209 5.62686567 -3.28358209 5.62686567 -1 2 C-0.67 1.34 -0.34 0.68 0 0 Z " fill="#FC9011" transform="translate(149,265)"/>
<path d="M0 0 C1.29977971 2.59955942 0.9002386 4.13130666 0.5625 7 C0.14614978 10.49239766 0.14614978 10.49239766 0 14 C0.66 14 1.32 14 2 14 C2 15.32 2 16.64 2 18 C3.32 18 4.64 18 6 18 C6.33 18.99 6.66 19.98 7 21 C3.15903871 20.12705425 1.29830018 19.3297002 -1.375 16.375 C-3.47722168 12.00884729 -3.53466869 9.81201824 -3 5 C-1.5 2 -1.5 2 0 0 Z " fill="#1B2C5A" transform="translate(183,212)"/>
<path d="M0 0 C0.99 0 1.98 0 3 0 C3 1.65 3 3.3 3 5 C3.99 5 4.98 5 6 5 C6 6.32 6 7.64 6 9 C4.35 8.67 2.7 8.34 1 8 C0.67 8.66 0.34 9.32 0 10 C-0.66 10 -1.32 10 -2 10 C-2.33 8.02 -2.66 6.04 -3 4 C-2.34 4 -1.68 4 -1 4 C-0.67 2.68 -0.34 1.36 0 0 Z " fill="#F19422" transform="translate(202,271)"/>
<path d="M0 0 C1.98 0.99 1.98 0.99 4 2 C4 2.99 4 3.98 4 5 C2.68 4.67 1.36 4.34 0 4 C0 2.68 0 1.36 0 0 Z M-9 2 C-8.01 2 -7.02 2 -6 2 C-6 2.66 -6 3.32 -6 4 C-5.01 4.33 -4.02 4.66 -3 5 C-2.34 4.34 -1.68 3.68 -1 3 C0 4 0 4 0.0625 6.5625 C0.041875 7.366875 0.02125 8.17125 0 9 C-0.99 9.33 -1.98 9.66 -3 10 C-3 9.34 -3 8.68 -3 8 C-3.66 8 -4.32 8 -5 8 C-5 7.34 -5 6.68 -5 6 C-5.66 6 -6.32 6 -7 6 C-7 5.34 -7 4.68 -7 4 C-7.66 4 -8.32 4 -9 4 C-9 3.34 -9 2.68 -9 2 Z " fill="#CB7E26" transform="translate(140,252)"/>
<path d="M0 0 C0.33 0.66 0.66 1.32 1 2 C1.99 2 2.98 2 4 2 C4 2.66 4 3.32 4 4 C4.66 4 5.32 4 6 4 C6.33 5.98 6.66 7.96 7 10 C5.35 10.33 3.7 10.66 2 11 C-0.32590854 7.36576791 -0.16265833 4.22911669 0 0 Z " fill="#F49727" transform="translate(86,248)"/>
<path d="M0 0 C0.33 0 0.66 0 1 0 C1 2.97 1 5.94 1 9 C0.01 9 -0.98 9 -2 9 C-2.33 8.01 -2.66 7.02 -3 6 C-5.31 6 -7.62 6 -10 6 C-9.505 5.54625 -9.01 5.0925 -8.5 4.625 C-6.77390663 3.12364481 -6.77390663 3.12364481 -7 1 C-5.35 1 -3.7 1 -2 1 C-2 1.66 -2 2.32 -2 3 C-1.34 3 -0.68 3 0 3 C0 2.01 0 1.02 0 0 Z " fill="#FB9213" transform="translate(144,223)"/>
<path d="M0 0 C1.94566951 3.47547073 2.07637127 5.12506344 1 9 C1.66 9 2.32 9 3 9 C3 9.99 3 10.98 3 12 C2.01 12 1.02 12 0 12 C0 12.66 0 13.32 0 14 C-1.32 14 -2.64 14 -4 14 C-4.33 14.66 -4.66 15.32 -5 16 C-4.34309381 12.21760329 -3.279869 8.78158474 -1.9375 5.1875 C-1.57527344 4.21167969 -1.21304688 3.23585938 -0.83984375 2.23046875 C-0.42412109 1.12638672 -0.42412109 1.12638672 0 0 Z " fill="#C7791A" transform="translate(182,292)"/>
<path d="M0 0 C2.88310976 1.29242851 5.0400949 2.49314464 7 5 C7.07421875 7.26171875 7.07421875 7.26171875 6.6875 9.6875 C6.50767578 10.89986328 6.50767578 10.89986328 6.32421875 12.13671875 C6.21722656 12.75160156 6.11023438 13.36648438 6 14 C5.34 14 4.68 14 4 14 C3.67 14.66 3.34 15.32 3 16 C2.67 14.68 2.34 13.36 2 12 C2.66 12 3.32 12 4 12 C4 9.36 4 6.72 4 4 C2.68 4 1.36 4 0 4 C0 2.68 0 1.36 0 0 Z " fill="#B5792B" transform="translate(125,261)"/>
<path d="M0 0 C0 0.66 0 1.32 0 2 C0.99 2 1.98 2 3 2 C2 5 2 5 1 6 C-0.51469448 6.23192865 -2.03754562 6.41215238 -3.5625 6.5625 C-4.80193359 6.68818359 -4.80193359 6.68818359 -6.06640625 6.81640625 C-7.02353516 6.90728516 -7.02353516 6.90728516 -8 7 C-6.53112033 2.34854772 -6.53112033 2.34854772 -4 0.6875 C-2 0 -2 0 0 0 Z " fill="#1E3971" transform="translate(232,220)"/>
<path d="M0 0 C1.64501355 3.2900271 0.58010343 6.69958244 0.15625 10.2734375 C0.00916744 12.84002816 0.35323501 14.55307244 1 17 C0.67 17.66 0.34 18.32 0 19 C0.66 19.33 1.32 19.66 2 20 C1.34 20.66 0.68 21.32 0 22 C-2.92543275 15.68106527 -3.54694538 10.83912696 -2 4 C-0.94921875 1.703125 -0.94921875 1.703125 0 0 Z " fill="#16264B" transform="translate(217,226)"/>
<path d="M0 0 C0.66 0.33 1.32 0.66 2 1 C1.67 2.32 1.34 3.64 1 5 C0.34 5 -0.32 5 -1 5 C-1.33 6.65 -1.66 8.3 -2 10 C-4 9 -4 9 -5 8 C-5.04080783 6.00041636 -5.04254356 3.99954746 -5 2 C-2.625 0.9375 -2.625 0.9375 0 0 Z " fill="#F99419" transform="translate(126,294)"/>
<path d="M0 0 C2.85685667 1.17204376 3.84383553 2.3998106 5.4375 5 C2.4675 5 -0.5025 5 -3.5625 5 C-3.5625 5.99 -3.5625 6.98 -3.5625 8 C-4.2225 8 -4.8825 8 -5.5625 8 C-6.3125 6.25 -6.3125 6.25 -6.5625 4 C-4.54825012 1.13356747 -3.57417125 0 0 0 Z " fill="#B57623" transform="translate(134.5625,246)"/>
<path d="M0 0 C0.66 0 1.32 0 2 0 C2 0.66 2 1.32 2 2 C2.66 2 3.32 2 4 2 C4 2.66 4 3.32 4 4 C4.66 4 5.32 4 6 4 C6 4.66 6 5.32 6 6 C8.90073181 6.67801034 8.90073181 6.67801034 12 7 C12.66 6.34 13.32 5.68 14 5 C14.99 5.33 15.98 5.66 17 6 C14.6875 8.5 14.6875 8.5 12 11 C11.01 11 10.02 11 9 11 C9 10.34 9 9.68 9 9 C8.34 9 7.68 9 7 9 C7 8.34 7 7.68 7 7 C6.34 7 5.68 7 5 7 C5 6.34 5 5.68 5 5 C4.34 5 3.68 5 3 5 C3 4.34 3 3.68 3 3 C2.34 3 1.68 3 1 3 C0.67 2.01 0.34 1.02 0 0 Z " fill="#A56E29" transform="translate(99,307)"/>
<path d="M0 0 C0.33 0.99 0.66 1.98 1 3 C0.67 3.66 0.34 4.32 0 5 C-2.5625 5.625 -2.5625 5.625 -5 6 C-4.67 7.65 -4.34 9.3 -4 11 C-4.33 10.34 -4.66 9.68 -5 9 C-5.66 9 -6.32 9 -7 9 C-7 9.99 -7 10.98 -7 12 C-8.65 12.33 -10.3 12.66 -12 13 C-12 12.34 -12 11.68 -12 11 C-11.34 11 -10.68 11 -10 11 C-10 10.34 -10 9.68 -10 9 C-9.34 9 -8.68 9 -8 9 C-8 8.34 -8 7.68 -8 7 C-7.34 7 -6.68 7 -6 7 C-6 6.34 -6 5.68 -6 5 C-4.04072937 3.2856382 -2.04119788 1.61594832 0 0 Z " fill="#A76A25" transform="translate(141,274)"/>
<path d="M0 0 C0.99 0 1.98 0 3 0 C5 2.3125 5 2.3125 7 5 C7.98230498 6.0173873 8.97469597 7.02596117 10 8 C8.35 7.67 6.7 7.34 5 7 C5 6.34 5 5.68 5 5 C4.01 5 3.02 5 2 5 C1.83312552 7.41645782 1.83312552 7.41645782 2 10 C2.66 10.66 3.32 11.32 4 12 C3.01 12 2.02 12 1 12 C0 11 0 11 -0.09765625 8.49609375 C-0.08605469 7.48675781 -0.07445313 6.47742188 -0.0625 5.4375 C-0.05347656 4.42558594 -0.04445313 3.41367188 -0.03515625 2.37109375 C-0.02355469 1.58863281 -0.01195313 0.80617187 0 0 Z " fill="#A36C2D" transform="translate(85,245)"/>
<path d="M0 0 C3.96 0.33 7.92 0.66 12 1 C11.01 2.485 11.01 2.485 10 4 C7.3984375 4.29296875 7.3984375 4.29296875 4.375 4.1875 C2.87066406 4.14689453 2.87066406 4.14689453 1.3359375 4.10546875 C0.17964844 4.05326172 0.17964844 4.05326172 -1 4 C-0.67 2.68 -0.34 1.36 0 0 Z " fill="#1D3974" transform="translate(225,247)"/>
<path d="M0 0 C0.33 0.99 0.66 1.98 1 3 C1.66 3 2.32 3 3 3 C3.33 4.32 3.66 5.64 4 7 C3.01 7.33 2.02 7.66 1 8 C0.67 8.66 0.34 9.32 0 10 C-1.32 9.01 -2.64 8.02 -4 7 C-2.68 4.69 -1.36 2.38 0 0 Z " fill="#F69823" transform="translate(113,225)"/>
<path d="M0 0 C3.24208567 0.35049575 4.61527704 0.56221181 6.8125 3.0625 C7.204375 3.701875 7.59625 4.34125 8 5 C4 5 0 5 -4 5 C-2.68 3.35 -1.36 1.7 0 0 Z " fill="#D58A26" transform="translate(124,182)"/>
<path d="M0 0 C2.97 0.495 2.97 0.495 6 1 C5.67 1.66 5.34 2.32 5 3 C4.09507813 3.21462891 4.09507813 3.21462891 3.171875 3.43359375 C0.53709303 4.12072214 -0.74178529 5.24738285 -2.75 7.0625 C-3.36359375 7.61035156 -3.9771875 8.15820312 -4.609375 8.72265625 C-5.06828125 9.14417969 -5.5271875 9.56570312 -6 10 C-6.3125 7.6875 -6.3125 7.6875 -6 5 C-3.5625 3.3125 -3.5625 3.3125 -1 2 C-0.67 1.34 -0.34 0.68 0 0 Z " fill="#C3842A" transform="translate(122,193)"/>
<path d="M0 0 C2.64 0 5.28 0 8 0 C8.33 1.32 8.66 2.64 9 4 C6.03 4 3.06 4 0 4 C0 2.68 0 1.36 0 0 Z " fill="#1C3876" transform="translate(372,247)"/>
<path d="M0 0 C1.4606285 2.64738916 2 3.89448334 2 7 C-1.3 7 -4.6 7 -8 7 C-5.42215154 4.35247996 -3.08351902 2.05567935 0 0 Z " fill="#1A3A75" transform="translate(312,230)"/>
<path d="M0 0 C0.66 1.32 1.32 2.64 2 4 C1.01 4.66 0.02 5.32 -1 6 C-1 6.99 -1 7.98 -1 9 C-2.98 9 -4.96 9 -7 9 C-6.67 7.68 -6.34 6.36 -6 5 C-5.34 5 -4.68 5 -4 5 C-4 4.34 -4 3.68 -4 3 C-2 1.375 -2 1.375 0 0 Z " fill="#AB7121" transform="translate(136,222)"/>
<path d="M0 0 C3.34373475 0.55728913 6.03312999 1.35173889 9 3 C9 3.66 9 4.32 9 5 C9.66 5 10.32 5 11 5 C11.33 6.65 11.66 8.3 12 10 C10.68 9.67 9.36 9.34 8 9 C8 8.34 8 7.68 8 7 C7.01 6.34 6.02 5.68 5 5 C5 4.34 5 3.68 5 3 C2.525 2.01 2.525 2.01 0 1 C0 0.67 0 0.34 0 0 Z " fill="#192C55" transform="translate(303,220)"/>
<path d="M0 0 C6.98629919 -0.50604984 11.20200116 -0.0333905 17 4 C14.29889598 5.35055201 11.99210994 5 9 5 C9 4.01 9 3.02 9 2 C6.03 1.67 3.06 1.34 0 1 C0 0.67 0 0.34 0 0 Z " fill="#182A52" transform="translate(396,220)"/>
<path d="M0 0 C0.66 0.33 1.32 0.66 2 1 C1.34 1.66 0.68 2.32 0 3 C-0.09827516 5.08369596 -0.09827516 5.08369596 0.25 7.375 C0.33765625 8.14585937 0.4253125 8.91671875 0.515625 9.7109375 C1.01664886 12.0786793 1.82652544 13.89351698 3 16 C-0.16115776 14.63016497 -0.9927092 14.0109362 -3 11 C-3.3468602 7.18453778 -3.53366895 4.86721204 -1.5 1.5625 C-1.005 1.046875 -0.51 0.53125 0 0 Z " fill="#182547" transform="translate(389,236)"/>
<path d="M0 0 C2.64 0 5.28 0 8 0 C8 0.99 8 1.98 8 3 C5.04335481 4.4783226 2.25770263 4.06032783 -1 4 C-0.67 2.68 -0.34 1.36 0 0 Z " fill="#1D3971" transform="translate(264,223)"/>
<path d="M0 0 C0.66 0 1.32 0 2 0 C2 2.31 2 4.62 2 7 C2.66 7.33 3.32 7.66 4 8 C3.67 8.99 3.34 9.98 3 11 C0.5 9.3125 0.5 9.3125 -2 7 C-2.4375 4.375 -2.4375 4.375 -2 2 C-1.34 1.34 -0.68 0.68 0 0 Z " fill="#BC7C22" transform="translate(106,222)"/>
<path d="M0 0 C-0.33 1.32 -0.66 2.64 -1 4 C-3.31 4 -5.62 4 -8 4 C-7.625 2.0625 -7.625 2.0625 -7 0 C-4.3333581 -1.33332095 -2.83319697 -0.67102033 0 0 Z " fill="#1F3870" transform="translate(305,221)"/>
<path d="M0 0 C0.33 0.66 0.66 1.32 1 2 C1.66 2.33 2.32 2.66 3 3 C2.34 3 1.68 3 1 3 C1 3.66 1 4.32 1 5 C0.34 5 -0.32 5 -1 5 C-1 5.66 -1 6.32 -1 7 C-1.66 7 -2.32 7 -3 7 C-3 7.66 -3 8.32 -3 9 C-3.66 9 -4.32 9 -5 9 C-5.33 7.68 -5.66 6.36 -6 5 C-5.34 4.67 -4.68 4.34 -4 4 C-3.34 4.33 -2.68 4.66 -2 5 C-2.33 4.01 -2.66 3.02 -3 2 C-2.01 1.34 -1.02 0.68 0 0 Z " fill="#CD8027" transform="translate(112,288)"/>
<path d="M0 0 C0.33 0 0.66 0 1 0 C1.33 3.96 1.66 7.92 2 12 C4.97 12.495 4.97 12.495 8 13 C8 13.66 8 14.32 8 15 C5.36 15 2.72 15 0 15 C0 10.05 0 5.1 0 0 Z " fill="#233662" transform="translate(250,238)"/>
<path d="M0 0 C0.86008796 2.58026388 1.2384147 4.57809297 1.5 7.25 C1.90577026 11.1853274 2.4172399 15.08718218 3 19 C0.08547448 16.33891148 -0.92895853 14.40620331 -1.1328125 10.37109375 C-1.13023437 9.40300781 -1.12765625 8.43492187 -1.125 7.4375 C-1.12757813 6.46683594 -1.13015625 5.49617187 -1.1328125 4.49609375 C-1 2 -1 2 0 0 Z " fill="#152244" transform="translate(286,229)"/>
<path d="M0 0 C0.33 1.32 0.66 2.64 1 4 C0.01 4 -0.98 4 -2 4 C-1.67 4.99 -1.34 5.98 -1 7 C-1.33 7.66 -1.66 8.32 -2 9 C-4 8 -4 8 -5.125 4.9375 C-5.41375 3.968125 -5.7025 2.99875 -6 2 C-3 0 -3 0 0 0 Z " fill="#F9941A" transform="translate(134,287)"/>
<path d="M0 0 C0.33 1.32 0.66 2.64 1 4 C-2.75 7 -2.75 7 -5 7 C-5 7.99 -5 8.98 -5 10 C-6.32 9.67 -7.64 9.34 -9 9 C-6.03 6.03 -3.06 3.06 0 0 Z " fill="#C07F26" transform="translate(127,201)"/>
<path d="M0 0 C2.31 0.33 4.62 0.66 7 1 C7 2.66666667 7 4.33333333 7 6 C7.99 6.33 8.98 6.66 10 7 C9.34 7.66 8.68 8.32 8 9 C6.66368764 7.6905332 5.33102075 6.37734515 4 5.0625 C3.2575 4.33160156 2.515 3.60070312 1.75 2.84765625 C0 1 0 1 0 0 Z " fill="#C58225" transform="translate(109,233)"/>
<path d="M0 0 C0.75 1.75 0.75 1.75 1 4 C-1.71699158 7.69510854 -4.65638712 8.81537831 -9 10 C-8.06409496 8.8944811 -7.12620142 7.79064547 -6.1875 6.6875 C-5.66542969 6.07261719 -5.14335938 5.45773438 -4.60546875 4.82421875 C-3.12827531 3.14575321 -1.59960869 1.56117966 0 0 Z " fill="#BA7928" transform="translate(119,187)"/>
<path d="M0 0 C2.31 0.33 4.62 0.66 7 1 C5.60667426 4.36720387 4.0210714 5.9859524 1 8 C0.67 5.36 0.34 2.72 0 0 Z " fill="#B16F1A" transform="translate(114,282)"/>
<path d="M0 0 C1.65 0 3.3 0 5 0 C2.10251632 3.02918748 0.84118266 3.95493664 -3.5 4.1875 C-7 4 -7 4 -9 2 C-6.03 2 -3.06 2 0 2 C0 1.34 0 0.68 0 0 Z " fill="#192950" transform="translate(272,250)"/>
<path d="M0 0 C0.66 0 1.32 0 2 0 C1.66410006 3.13506611 0.97334828 4.025249 -1.375 6.25 C-4 8 -4 8 -7 8 C-6.67 7.01 -6.34 6.02 -6 5 C-5.01 4.67 -4.02 4.34 -3 4 C-2.67 3.34 -2.34 2.68 -2 2 C-1.34 2 -0.68 2 0 2 C0 1.34 0 0.68 0 0 Z " fill="#B67225" transform="translate(115,299)"/>
<path d="M0 0 C0.99 0.66 1.98 1.32 3 2 C3 2.99 3 3.98 3 5 C2.34 5 1.68 5 1 5 C1 5.66 1 6.32 1 7 C0.34 7 -0.32 7 -1 7 C-1.33 7.66 -1.66 8.32 -2 9 C-2.25 3.375 -2.25 3.375 0 0 Z " fill="#C97F1D" transform="translate(120,301)"/>
<path d="M0 0 C0.66 0 1.32 0 2 0 C2.33 1.32 2.66 2.64 3 4 C0.03 6.475 0.03 6.475 -3 9 C-2.67 7.68 -2.34 6.36 -2 5 C-2.66 4.67 -3.32 4.34 -4 4 C-3.01 3.67 -2.02 3.34 -1 3 C-0.67 2.01 -0.34 1.02 0 0 Z " fill="#BE781F" transform="translate(135,287)"/>
<path d="M0 0 C0.33 0 0.66 0 1 0 C1 2.64 1 5.28 1 8 C0.360625 8.268125 -0.27875 8.53625 -0.9375 8.8125 C-3.33131686 9.88667752 -3.33131686 9.88667752 -4 13 C-3.27991594 8.39146203 -1.68704061 4.32762591 0 0 Z " fill="#B77521" transform="translate(188,278)"/>
<path d="M0 0 C0.99 0.33 1.98 0.66 3 1 C3 1.66 3 2.32 3 3 C3.99 3.33 4.98 3.66 6 4 C6 4.33 6 4.66 6 5 C3.36 5 0.72 5 -2 5 C-2 2 -2 2 0 0 Z " fill="#FA9113" transform="translate(118,233)"/>
<path d="M0 0 C1.32 0 2.64 0 4 0 C3.125 3.875 3.125 3.875 2 5 C-0.18639453 5.07258946 -2.37500389 5.08373783 -4.5625 5.0625 C-6.35880859 5.04896484 -6.35880859 5.04896484 -8.19140625 5.03515625 C-9.11824219 5.02355469 -10.04507812 5.01195312 -11 5 C-11 4.67 -11 4.34 -11 4 C-7.04 4 -3.08 4 1 4 C0.67 2.68 0.34 1.36 0 0 Z " fill="#152851" transform="translate(306,229)"/>
<path d="M0 0 C0.99 0.33 1.98 0.66 3 1 C3 2.65 3 4.3 3 6 C2.34 6 1.68 6 1 6 C0.67 6.66 0.34 7.32 0 8 C-0.99 8 -1.98 8 -3 8 C-2.5359375 7.13375 -2.5359375 7.13375 -2.0625 6.25 C-1.07416636 4.15705816 -0.4831387 2.25464725 0 0 Z " fill="#FC9212" transform="translate(116,213)"/>
<path d="M0 0 C0.66 0.33 1.32 0.66 2 1 C2.40729228 3.32156597 2.74438677 5.6568787 3 8 C2.401875 7.484375 1.80375 6.96875 1.1875 6.4375 C0.465625 5.963125 -0.25625 5.48875 -1 5 C-1.99 5.33 -2.98 5.66 -4 6 C-3.6875 4.125 -3.6875 4.125 -3 2 C-2.01 1.34 -1.02 0.68 0 0 Z " fill="#F59522" transform="translate(113,195)"/>
<path d="M0 0 C2.31 0.66 4.62 1.32 7 2 C6.67 2.66 6.34 3.32 6 4 C2.08234111 4.81309902 -1.17907588 5.37553268 -5 4 C-5 3.34 -5 2.68 -5 2 C-3.35 2 -1.7 2 0 2 C0 1.34 0 0.68 0 0 Z " fill="#F8961E" transform="translate(125,185)"/>
<path d="M0 0 C0.66 0 1.32 0 2 0 C1.67 1.32 1.34 2.64 1 4 C4.96 4 8.92 4 13 4 C13 4.66 13 5.32 13 6 C8.38 6 3.76 6 -1 6 C-1 1 -1 1 0 0 Z " fill="#D58B29" transform="translate(192,287)"/>
<path d="M0 0 C0.66 0 1.32 0 2 0 C2.2475 0.598125 2.495 1.19625 2.75 1.8125 C4.17002708 4.29754739 5.72705959 5.31362486 8 7 C8.33 7.99 8.66 8.98 9 10 C7.68 9.67 6.36 9.34 5 9 C5 8.34 5 7.68 5 7 C4.34 7 3.68 7 3 7 C3 6.34 3 5.68 3 5 C2.34 5 1.68 5 1 5 C0.67 3.35 0.34 1.7 0 0 Z " fill="#DE8C2C" transform="translate(103,247)"/>
<path d="M0 0 C3 1 3 1 5 4 C5.1953125 6.91796875 5.1953125 6.91796875 5.125 10.1875 C5.10695312 11.27417969 5.08890625 12.36085937 5.0703125 13.48046875 C5.03550781 14.72763672 5.03550781 14.72763672 5 16 C4.67 16 4.34 16 4 16 C4 12.7 4 9.4 4 6 C3.01 6 2.02 6 1 6 C1.33 4.68 1.66 3.36 2 2 C1.34 2 0.68 2 0 2 C0 1.34 0 0.68 0 0 Z " fill="#1B2A52" transform="translate(206,230)"/>
<path d="M0 0 C2.64 0 5.28 0 8 0 C7.67 1.32 7.34 2.64 7 4 C7 3.34 7 2.68 7 2 C6.0409375 2.2784375 6.0409375 2.2784375 5.0625 2.5625 C4.381875 2.706875 3.70125 2.85125 3 3 C2.67 2.67 2.34 2.34 2 2 C1.67 4.31 1.34 6.62 1 9 C0.67 9 0.34 9 0 9 C0 6.03 0 3.06 0 0 Z " fill="#223867" transform="translate(250,210)"/>
<path d="M0 0 C0.33 0.99 0.66 1.98 1 3 C0.67 3.66 0.34 4.32 0 5 C-0.66 5 -1.32 5 -2 5 C-2 5.66 -2 6.32 -2 7 C-3.32 7.33 -4.64 7.66 -6 8 C-6 8.66 -6 9.32 -6 10 C-6.99 9.67 -7.98 9.34 -9 9 C-8.34 9 -7.68 9 -7 9 C-7 8.34 -7 7.68 -7 7 C-6.34 7 -5.68 7 -5 7 C-4.67 6.01 -4.34 5.02 -4 4 C-3.34 4 -2.68 4 -2 4 C-2 3.34 -2 2.68 -2 2 C-1.34 2 -0.68 2 0 2 C0 1.34 0 0.68 0 0 Z " fill="#80521D" transform="translate(117,274)"/>
<path d="M0 0 C0.99 0.33 1.98 0.66 3 1 C2.67 2.65 2.34 4.3 2 6 C0.35 6 -1.3 6 -3 6 C-3 4.68 -3 3.36 -3 2 C-2.01 1.34 -1.02 0.68 0 0 Z " fill="#1E3A72" transform="translate(336,221)"/>
<path d="M0 0 C0.33 0.66 0.66 1.32 1 2 C1.66 2 2.32 2 3 2 C2.6875 3.875 2.6875 3.875 2 6 C1.01 6.66 0.02 7.32 -1 8 C-1.625 5.125 -1.625 5.125 -2 2 C-1.34 1.34 -0.68 0.68 0 0 Z " fill="#DE8A22" transform="translate(124,210)"/>
<path d="M0 0 C2.72869407 0.03287583 5.2966618 0.56397771 8 1 C8 1.33 8 1.66 8 2 C5.69 2.33 3.38 2.66 1 3 C0.34 4.65 -0.32 6.3 -1 8 C-1.33 8 -1.66 8 -2 8 C-2.125 5.125 -2.125 5.125 -2 2 C-1.34 1.34 -0.68 0.68 0 0 Z " fill="#905E1E" transform="translate(189,297)"/>
<path d="M0 0 C1.65 0.33 3.3 0.66 5 1 C4.34 2.32 3.68 3.64 3 5 C2.34 5 1.68 5 1 5 C1 5.66 1 6.32 1 7 C0.34 7 -0.32 7 -1 7 C-0.67 4.69 -0.34 2.38 0 0 Z " fill="#C47F26" transform="translate(122,276)"/>
<path d="M0 0 C0.99 0.33 1.98 0.66 3 1 C3.36923077 8.38461538 3.36923077 8.38461538 1.5 11.5 C1.005 11.995 0.51 12.49 0 13 C-0.17942163 9.05272412 -0.09350689 6.4019487 2 3 C1.01 2.67 0.02 2.34 -1 2 C-0.67 1.34 -0.34 0.68 0 0 Z " fill="#F7901E" transform="translate(149,265)"/>
<path d="M0 0 C0.66 0 1.32 0 2 0 C2 0.66 2 1.32 2 2 C3.65 1.67 5.3 1.34 7 1 C7 3.31 7 5.62 7 8 C6.34 8 5.68 8 5 8 C4.34 6.35 3.68 4.7 3 3 C2.34 3 1.68 3 1 3 C0.67 2.01 0.34 1.02 0 0 Z " fill="#BB7A23" transform="translate(138,233)"/>
<path d="M0 0 C-3.36423277 2.96052484 -6.69159287 3.92289822 -11 5 C-10 2 -10 2 -7.1875 0.25 C-4.03596914 -0.98589446 -3.03070628 -1.28222189 0 0 Z " fill="#192750" transform="translate(300,221)"/>
<path d="M0 0 C-0.55728913 3.34373475 -1.35173889 6.03312999 -3 9 C-3.66 9 -4.32 9 -5 9 C-5 7.68 -5 6.36 -5 5 C-4.34 5 -3.68 5 -3 5 C-3 4.34 -3 3.68 -3 3 C-3.66 2.67 -4.32 2.34 -5 2 C-2 0 -2 0 0 0 Z " fill="#CE8629" transform="translate(119,219)"/>
<path d="M0 0 C2.3125 -0.3125 2.3125 -0.3125 5 0 C7.72508509 3.28889579 8.36146791 5.78287443 8 10 C5.49701566 7.06171403 4.53069061 4.82097239 4 1 C2.68 0.67 1.36 0.34 0 0 Z " fill="#8C5B1E" transform="translate(203,298)"/>
<path d="M0 0 C1.65 0 3.3 0 5 0 C3.02 2.97 3.02 2.97 1 6 C1.66 6.33 2.32 6.66 3 7 C2.01 7 1.02 7 0 7 C-1.125 2.25 -1.125 2.25 0 0 Z " fill="#233766" transform="translate(390,222)"/>
<path d="M0 0 C2.64 0.66 5.28 1.32 8 2 C8 2.66 8 3.32 8 4 C5.36 4 2.72 4 0 4 C0 2.68 0 1.36 0 0 Z " fill="#F79418" transform="translate(116,257)"/>
<path d="M0 0 C2.02054804 1.64169528 4.02043058 3.30911778 6 5 C6 5.33 6 5.66 6 6 C4.35 6 2.7 6 1 6 C0.34 4.35 -0.32 2.7 -1 1 C-0.67 0.67 -0.34 0.34 0 0 Z " fill="#C27826" transform="translate(112,247)"/>
<path d="M0 0 C0.99 0 1.98 0 3 0 C3 0.66 3 1.32 3 2 C3.66 2 4.32 2 5 2 C5.33 2.99 5.66 3.98 6 5 C5.01 5.33 4.02 5.66 3 6 C2.01 5.34 1.02 4.68 0 4 C0 2.68 0 1.36 0 0 Z " fill="#FA9211" transform="translate(87,250)"/>
<path d="M0 0 C0.495 0.474375 0.99 0.94875 1.5 1.4375 C4.99468651 3.62167907 7.90966936 3.65913911 12 4 C12 4.33 12 4.66 12 5 C8.37 5 4.74 5 1 5 C0.67 3.35 0.34 1.7 0 0 Z " fill="#142249" transform="translate(224,242)"/>
<path d="M0 0 C1.65 0 3.3 0 5 0 C4.67 1.65 4.34 3.3 4 5 C2.68 5 1.36 5 0 5 C0 3.35 0 1.7 0 0 Z " fill="#21396D" transform="translate(356,222)"/>
<path d="M0 0 C2.00773956 2.00773956 2.99392854 3.36873617 4 6 C3.625 8.25 3.625 8.25 3 10 C0.51280729 7.08025204 -0.58572305 4.83206182 -1 1 C-0.67 0.67 -0.34 0.34 0 0 Z " fill="#AA732C" transform="translate(213,291)"/>
<path d="M0 0 C0.66 0.33 1.32 0.66 2 1 C2 4.63 2 8.26 2 12 C0.02 12.99 0.02 12.99 -2 14 C-1.67 13.01 -1.34 12.02 -1 11 C-0.34 11 0.32 11 1 11 C0.67 7.37 0.34 3.74 0 0 Z " fill="#9A6B2B" transform="translate(152,263)"/>
<path d="M0 0 C2.97 0.495 2.97 0.495 6 1 C6 2.32 6 3.64 6 5 C4.02 4.34 2.04 3.68 0 3 C0 2.01 0 1.02 0 0 Z " fill="#FD8F13" transform="translate(101,266)"/>
<path d="M0 0 C2.31 0.33 4.62 0.66 7 1 C7 2.98 7 4.96 7 7 C5.83040013 6.02433888 4.66438823 5.044375 3.5 4.0625 C2.8503125 3.51722656 2.200625 2.97195313 1.53125 2.41015625 C1.0259375 1.94480469 0.520625 1.47945313 0 1 C0 0.67 0 0.34 0 0 Z " fill="#BF7E28" transform="translate(93,263)"/>
<path d="M0 0 C2.31 1.98 4.62 3.96 7 6 C4 7 4 7 1 6 C0.67 4.02 0.34 2.04 0 0 Z " fill="#AF7123" transform="translate(145,256)"/>
<path d="M0 0 C0 2.97 0 5.94 0 9 C-0.99 8.67 -1.98 8.34 -3 8 C-2.34 8 -1.68 8 -1 8 C-1.33 6.35 -1.66 4.7 -2 3 C-2.99 3.495 -2.99 3.495 -4 4 C-4.66 3.34 -5.32 2.68 -6 2 C-2.25 0 -2.25 0 0 0 Z " fill="#1B2B53" transform="translate(243,243)"/>
<path d="M0 0 C2.3125 0.125 2.3125 0.125 5 1 C6.8125 4.0625 6.8125 4.0625 8 7 C4.2047869 5.50902342 2.38957269 3.24299151 0 0 Z " fill="#AB6C23" transform="translate(96,243)"/>
<path d="M0 0 C0.66 0.33 1.32 0.66 2 1 C2 1.66 2 2.32 2 3 C1.01 3 0.02 3 -1 3 C-1 3.99 -1 4.98 -1 6 C-2.65 6.33 -4.3 6.66 -6 7 C-4.02 4.69 -2.04 2.38 0 0 Z " fill="#C58023" transform="translate(143,215)"/>
<path d="M0 0 C0.33 0.66 0.66 1.32 1 2 C3.02463255 2.65213292 3.02463255 2.65213292 5 3 C5.33 4.65 5.66 6.3 6 8 C1.3125 4.38671875 1.3125 4.38671875 0 3 C0 2.01 0 1.02 0 0 Z " fill="#A86B26" transform="translate(93,299)"/>
<path d="M0 0 C2 2 2 2 2.125 4.625 C2.08375 5.40875 2.0425 6.1925 2 7 C1.34 6.67 0.68 6.34 0 6 C-0.66 6.66 -1.32 7.32 -2 8 C-1.125 1.125 -1.125 1.125 0 0 Z " fill="#B16B20" transform="translate(198,273)"/>
<path d="M0 0 C1.65 1.32 3.3 2.64 5 4 C4.34 5.32 3.68 6.64 3 8 C2.34 7.67 1.68 7.34 1 7 C0.59270772 4.67843403 0.25561323 2.3431213 0 0 Z " fill="#A06F2A" transform="translate(124,235)"/>
<path d="M0 0 C2.97 0 5.94 0 9 0 C9 0.33 9 0.66 9 1 C8.071875 1.268125 7.14375 1.53625 6.1875 1.8125 C3.23759634 2.91148371 1.94384814 3.62418561 0 6 C0 4.02 0 2.04 0 0 Z " fill="#13234C" transform="translate(259,227)"/>
<path d="M0 0 C1.1725131 0.95117134 2.33787015 1.91117009 3.5 2.875 C4.47453125 3.67550781 4.47453125 3.67550781 5.46875 4.4921875 C5.9740625 4.98976562 6.479375 5.48734375 7 6 C7 6.66 7 7.32 7 8 C3.64379729 6.61122646 1.92701272 5.08322035 0 2 C0 1.34 0 0.68 0 0 Z " fill="#A86F2C" transform="translate(136,191)"/>
<path d="M0 0 C1.32 0.66 2.64 1.32 4 2 C4 2.66 4 3.32 4 4 C2.02 4.33 0.04 4.66 -2 5 C-1.34 3.35 -0.68 1.7 0 0 Z " fill="#FB910F" transform="translate(106,289)"/>
<path d="M0 0 C-0.33 0.99 -0.66 1.98 -1 3 C-1 2.34 -1 1.68 -1 1 C-1.66 1 -2.32 1 -3 1 C-3 1.99 -3 2.98 -3 4 C-4.65 4.33 -6.3 4.66 -8 5 C-8 4.34 -8 3.68 -8 3 C-7.34 3 -6.68 3 -6 3 C-6 2.34 -6 1.68 -6 1 C-4 0 -4 0 0 0 Z " fill="#B97422" transform="translate(137,282)"/>
<path d="M0 0 C2.0625 0.4375 2.0625 0.4375 4 1 C3.67 1.99 3.34 2.98 3 4 C2.34 4 1.68 4 1 4 C0.67 4.66 0.34 5.32 0 6 C-0.38218767 4.34385343 -0.71395102 2.67542976 -1 1 C-0.67 0.67 -0.34 0.34 0 0 Z " fill="#FB9214" transform="translate(113,229)"/>
<path d="M0 0 C0.33 1.32 0.66 2.64 1 4 C-1.375 5.5625 -1.375 5.5625 -4 7 C-4.66 6.67 -5.32 6.34 -6 6 C-4.02 4.02 -2.04 2.04 0 0 Z " fill="#A06824" transform="translate(115,213)"/>
<path d="M0 0 C1.32 0.33 2.64 0.66 4 1 C3.01 1.66 2.02 2.32 1 3 C1 3.66 1 4.32 1 5 C-0.65 5 -2.3 5 -4 5 C-2.68 3.35 -1.36 1.7 0 0 Z " fill="#B57421" transform="translate(124,182)"/>
<path d="M0 0 C2 3 2 3 2 5 C0.68 5 -0.64 5 -2 5 C-2.33 5.66 -2.66 6.32 -3 7 C-2.25 2.25 -2.25 2.25 0 0 Z " fill="#CE7F27" transform="translate(180,301)"/>
<path d="M0 0 C1.73543126 2.60314689 2.61121812 3.98694043 3 7 C2.34 7.66 1.68 8.32 1 9 C-1.125 2.25 -1.125 2.25 0 0 Z " fill="#BB7A26" transform="translate(208,278)"/>
<path d="M0 0 C0.66 0 1.32 0 2 0 C2 0.99 2 1.98 2 3 C1.34 3 0.68 3 0 3 C0.33 4.32 0.66 5.64 1 7 C0.34 7 -0.32 7 -1 7 C-1.625 4.625 -1.625 4.625 -2 2 C-1.34 1.34 -0.68 0.68 0 0 Z " fill="#F59223" transform="translate(127,270)"/>
<path d="M0 0 C2.64 0.33 5.28 0.66 8 1 C7.01 2.485 7.01 2.485 6 4 C4.125 3.6875 4.125 3.6875 2 3 C1.34 2.01 0.68 1.02 0 0 Z " fill="#9A692A" transform="translate(118,242)"/>
</svg>
